{"glyphs":{"0":{"ha":724,"x_min":52,"x_max":671,"o":"m 440 696 q 427 719 440 696 q 361 741 414 741 q 283 696 309 741 q 258 551 258 651 l 258 337 q 284 190 258 235 q 362 144 309 144 q 440 190 414 144 q 466 337 466 235 l 467 551 q 440 696 467 650 m 671 536 l 671 349 q 589 79 671 172 q 362 -14 507 -14 q 134 79 216 -14 q 52 349 52 172 l 52 536 q 134 807 52 714 q 361 900 215 900 q 589 807 507 900 q 671 536 671 713 z "},"1":{"ha":724,"x_min":88,"x_max":492,"o":"m 492 0 l 286 0 l 286 682 l 88 682 l 88 827 l 492 889 l 492 0 z "},"2":{"ha":724,"x_min":37,"x_max":676,"o":"m 676 159 l 676 -1 l 54 -1 l 54 134 l 340 434 q 446 630 446 555 q 419 713 446 683 q 345 743 393 743 q 269 704 296 743 q 242 603 242 665 l 41 603 l 40 607 q 121 817 37 732 q 347 901 205 901 q 570 830 488 901 q 652 632 652 758 q 614 491 652 552 q 448 291 575 429 l 328 162 l 330 159 l 676 159 z "},"3":{"ha":724,"x_min":31,"x_max":675,"o":"m 340 528 q 426 557 395 528 q 456 635 456 587 q 428 712 456 684 q 354 740 400 740 q 278 716 308 740 q 248 657 248 693 l 48 657 l 47 661 q 129 832 43 766 q 342 899 214 899 q 575 832 490 899 q 661 645 661 766 q 623 534 661 585 q 522 454 586 483 q 635 375 595 428 q 675 248 675 321 q 583 56 675 127 q 342 -14 491 -14 q 186 14 256 -14 q 74 102 117 43 q 33 241 31 161 l 34 245 l 235 245 q 269 174 235 203 q 353 144 302 144 q 436 175 404 144 q 469 252 469 205 q 339 376 469 376 l 242 376 l 243 528 l 340 528 z "},"4":{"ha":724,"x_min":35,"x_max":688,"o":"m 392 347 l 392 621 l 388 622 l 220 347 l 392 347 m 598 888 l 598 347 l 688 347 l 688 187 l 598 187 l 598 0 l 392 0 l 392 187 l 47 187 l 35 315 l 392 887 l 392 888 l 598 888 z "},"5":{"ha":724,"x_min":52,"x_max":673,"o":"m 644 887 l 644 728 l 290 728 l 267 543 q 402 583 317 580 q 603 508 533 586 q 673 285 673 430 q 591 70 673 155 q 364 -14 509 -14 q 208 17 279 -14 q 94 107 136 48 q 53 241 52 166 l 54 245 l 256 258 q 285 174 256 204 q 366 144 314 144 q 442 182 417 144 q 467 283 467 219 q 357 441 467 441 q 256 379 279 441 l 71 389 l 122 887 l 644 887 z "},"6":{"ha":724,"x_min":49,"x_max":687,"o":"m 374 144 q 449 188 420 144 q 479 296 479 231 q 451 401 479 361 q 377 441 423 441 q 255 397 294 441 l 255 344 q 286 196 255 248 q 374 144 317 144 m 51 523 l 49 523 q 151 799 49 697 q 418 900 252 900 q 510 891 470 900 q 602 863 551 883 l 568 713 q 420 739 481 739 q 301 686 345 739 q 260 536 258 634 l 262 533 q 436 598 320 598 q 620 514 553 598 q 687 295 687 430 q 600 73 687 159 q 370 -14 512 -14 q 139 82 228 -14 q 51 344 51 178 l 51 523 z "},"7":{"ha":724,"x_min":32,"x_max":673,"o":"m 673 888 l 673 729 q 456 331 508 541 q 418 85 432 231 l 409 -1 l 203 -1 l 211 85 q 475 730 249 479 l 32 730 l 32 888 l 673 888 z "},"8":{"ha":724,"x_min":52,"x_max":671,"o":"m 259 259 q 259 233 259 259 q 287 175 259 206 q 362 144 315 144 q 438 175 410 144 q 466 259 466 206 q 437 343 466 313 q 362 374 409 374 q 287 343 315 374 q 259 259 259 313 m 299 561 q 310 547 299 561 q 363 532 321 532 q 426 561 404 532 q 448 638 448 589 q 426 714 448 687 q 362 741 404 741 q 299 714 321 741 q 277 638 277 688 q 299 561 277 589 m 71 650 q 149 834 71 768 q 362 900 228 900 q 574 834 496 900 q 653 650 653 768 q 620 534 653 585 q 527 453 587 484 q 633 368 595 422 q 671 243 671 313 q 588 53 671 120 q 362 -14 504 -14 q 137 54 221 -14 q 52 243 52 121 q 91 368 52 313 q 197 453 129 422 q 103 534 136 484 q 71 650 71 585 z "},"9":{"ha":724,"x_min":50,"x_max":669,"o":"m 321 144 q 423 189 384 144 q 463 311 463 234 l 463 350 q 309 276 402 276 q 119 358 187 276 q 50 578 50 439 q 137 809 50 718 q 361 900 224 900 q 583 802 497 900 q 669 536 669 704 l 669 325 q 571 79 669 172 q 321 -14 473 -14 q 132 24 226 -14 l 153 172 l 154 172 q 321 144 235 144 m 256 583 l 256 583 q 281 466 256 507 q 354 425 306 425 q 462 471 423 425 l 462 562 q 434 694 462 648 q 359 741 406 741 q 284 694 313 741 q 256 583 256 648 z "},"\r":{"ha":342,"x_min":0,"x_max":0,"o":""}," ":{"ha":353,"x_min":0,"x_max":0,"o":""},"!":{"ha":521,"x_min":158,"x_max":366,"o":"m 366 173 l 366 0 l 158 0 l 158 173 l 366 173 m 366 888 l 366 315 l 158 315 l 158 888 l 366 888 z "},"\"":{"ha":572,"x_min":115,"x_max":457,"o":"m 254 952 l 254 788 l 202 636 l 115 636 l 115 952 l 254 952 m 457 952 l 457 788 l 406 636 l 319 636 l 319 952 l 457 952 z "},"#":{"ha":726,"x_min":22,"x_max":704,"o":"m 22 250 l 22 362 l 176 362 l 203 523 l 68 523 l 68 635 l 222 635 l 264 888 l 385 888 l 343 635 l 441 635 l 484 888 l 605 888 l 563 635 l 704 635 l 704 523 l 545 523 l 517 362 l 657 362 l 657 250 l 499 250 l 458 0 l 337 0 l 378 250 l 279 250 l 239 0 l 117 0 l 158 250 l 22 250 m 325 523 l 298 362 l 396 362 l 423 523 l 325 523 z "},"$":{"ha":724,"x_min":52,"x_max":674,"o":"m 376 127 q 441 152 418 127 q 465 222 465 177 q 442 294 465 268 q 359 347 420 321 q 124 491 174 420 q 83 636 83 549 q 153 807 83 740 q 339 884 222 873 l 339 1013 l 436 1013 l 436 882 q 611 791 547 866 q 672 602 674 717 l 671 599 l 469 599 q 444 697 469 664 q 376 730 419 730 q 312 705 333 730 q 290 636 290 679 q 313 566 290 593 q 404 510 335 540 q 519 454 472 481 q 603 394 566 428 q 655 318 640 359 q 670 221 670 277 q 604 51 670 116 q 424 -26 538 -14 l 424 -149 l 327 -149 l 327 -25 q 126 61 201 -13 q 54 267 52 134 l 56 271 l 256 271 q 375 128 256 128 l 376 127 z "},"%":{"ha":928,"x_min":56,"x_max":873,"o":"m 610 216 l 610 170 q 629 119 610 140 q 681 98 649 98 q 728 116 713 98 q 742 170 742 134 l 742 216 q 724 268 742 248 q 675 289 706 289 q 627 268 645 289 q 610 216 610 248 m 477 170 l 477 216 q 530 348 477 297 q 676 399 583 399 q 822 349 770 399 q 873 216 873 298 l 873 170 q 822 37 873 87 q 677 -14 770 -14 q 530 37 583 -14 q 477 170 477 87 m 187 716 l 187 669 q 205 618 187 638 q 253 598 222 598 q 301 618 284 598 q 319 669 319 638 l 319 716 q 301 769 319 748 q 253 789 283 789 q 205 769 222 789 q 187 716 187 748 m 720 760 l 286 65 l 191 113 l 625 808 l 720 760 m 56 669 l 56 716 q 107 849 56 798 q 253 900 159 900 q 399 849 347 900 q 451 716 451 798 l 451 669 q 399 537 451 587 q 254 487 347 487 q 108 537 160 487 q 56 669 56 588 z "},"&":{"ha":842,"x_min":37,"x_max":822,"o":"m 115 661 q 184 834 115 768 q 367 901 254 901 q 524 840 463 901 q 585 687 585 779 q 558 577 585 628 q 482 490 531 526 l 429 454 l 578 283 q 623 444 623 353 l 768 444 q 688 157 768 264 l 822 2 l 821 -1 l 595 -1 l 550 51 q 321 -14 448 -14 q 115 55 194 -14 q 37 238 37 124 q 72 355 37 306 q 191 466 107 405 l 193 467 q 134 569 153 524 q 115 661 115 614 m 433 672 q 433 686 433 672 q 414 721 433 700 q 363 741 395 741 q 312 719 332 741 q 293 663 293 697 q 339 560 293 618 l 376 583 q 421 625 409 605 q 433 672 433 645 m 243 252 q 257 196 243 221 q 292 158 270 172 q 341 145 314 145 q 446 168 397 145 l 283 352 l 278 349 q 243 252 243 307 z "},"'":{"ha":369,"x_min":115,"x_max":248,"o":"m 248 952 l 248 774 l 202 601 l 115 601 l 115 952 l 248 952 z "},"(":{"ha":620,"x_min":161,"x_max":505,"o":"m 161 345 l 161 361 q 185 582 161 477 q 251 765 210 687 q 348 898 293 843 q 464 976 402 952 l 468 976 l 505 879 q 374 688 422 818 q 326 363 326 557 l 326 343 q 374 17 326 147 q 505 -174 422 -113 l 468 -271 l 464 -271 q 249 -53 336 -220 q 161 345 161 114 z "},")":{"ha":619,"x_min":115,"x_max":473,"o":"m 473 361 l 473 345 q 447 128 473 233 q 377 -55 421 24 q 276 -191 334 -134 q 156 -271 219 -247 l 152 -271 l 115 -174 q 246 19 197 -111 q 294 343 294 149 l 294 363 q 245 687 294 557 q 115 879 197 817 l 152 976 l 156 976 q 379 755 286 928 q 473 361 473 583 z "},"*":{"ha":561,"x_min":16,"x_max":543,"o":"m 72 458 l 203 623 l 16 678 l 53 793 l 235 713 l 222 927 l 344 927 l 328 709 l 506 787 l 543 671 l 354 616 l 479 454 l 381 383 l 275 562 l 171 389 l 72 458 z "},"+":{"ha":668,"x_min":28,"x_max":637,"o":"m 429 746 l 429 514 l 637 514 l 637 338 l 429 338 l 429 99 l 236 99 l 236 338 l 28 338 l 28 514 l 236 514 l 236 746 l 429 746 z "},",":{"ha":330,"x_min":34,"x_max":255,"o":"m 255 133 l 255 -27 l 156 -221 l 34 -221 l 77 -22 l 77 133 l 255 133 z "},"-":{"ha":562,"x_min":93,"x_max":460,"o":"m 460 496 l 460 337 l 93 337 l 93 496 l 460 496 z "},".":{"ha":378,"x_min":83,"x_max":289,"o":"m 289 174 l 289 0 l 83 0 l 83 174 l 289 174 z "},"/":{"ha":439,"x_min":-18,"x_max":432,"o":"m 432 880 l 128 -85 l -18 -85 l 286 880 l 432 880 z "},":":{"ha":374,"x_min":75,"x_max":260,"o":"m 260 156 l 260 0 l 75 0 l 75 156 l 260 156 m 260 643 l 260 487 l 75 487 l 75 643 l 260 643 z "},";":{"ha":353,"x_min":56,"x_max":255,"o":"m 255 97 l 255 -47 l 166 -221 l 56 -221 l 95 -42 l 95 97 l 255 97 m 252 621 l 252 465 l 66 465 l 66 621 l 252 621 z "},"<":{"ha":637,"x_min":28,"x_max":568,"o":"m 568 450 l 231 337 l 231 333 l 568 222 l 568 35 l 28 255 l 28 417 l 568 637 l 568 450 z "},"=":{"ha":730,"x_min":78,"x_max":644,"o":"m 644 357 l 644 199 l 78 199 l 78 357 l 644 357 m 644 625 l 644 467 l 78 467 l 78 625 l 644 625 z "},">":{"ha":637,"x_min":70,"x_max":609,"o":"m 406 337 l 70 450 l 70 637 l 609 417 l 609 255 l 70 35 l 70 222 l 406 333 l 406 337 z "},"?":{"ha":813,"x_min":97,"x_max":710,"o":"m 482 163 l 482 -1 l 277 -1 l 277 163 l 482 163 m 505 630 q 477 712 505 682 q 402 743 449 743 q 329 717 356 743 q 301 644 302 691 l 100 644 l 99 647 q 177 837 97 772 q 400 901 258 901 q 627 828 543 901 q 710 631 710 755 q 666 492 710 556 q 549 390 621 428 q 496 335 511 364 q 482 254 482 306 l 277 252 q 291 346 277 309 q 332 411 304 383 q 416 479 359 439 q 505 630 505 534 z "},"@":{"ha":1104,"x_min":16,"x_max":1066,"o":"m 751 -44 q 666 -16 701 -44 q 615 62 630 12 q 462 -42 564 -42 q 322 30 370 -42 q 287 222 274 102 q 376 468 302 376 q 555 560 449 560 q 669 546 625 560 q 772 495 713 532 l 770 493 l 773 493 l 742 147 q 777 55 738 55 q 886 119 844 55 q 932 286 927 183 q 850 610 942 496 q 572 724 758 724 q 277 601 386 724 q 160 260 169 477 q 248 -71 150 50 q 531 -192 347 -192 q 733 -152 640 -192 l 756 -253 q 654 -293 716 -278 q 528 -307 591 -307 q 149 -156 281 -307 q 26 260 16 -5 q 183 677 37 525 q 573 830 330 830 l 574 829 q 939 685 812 829 q 1056 286 1066 541 q 977 54 1050 148 q 882 -18 940 8 q 751 -44 824 -44 m 632 436 q 581 444 604 444 q 484 389 517 444 q 440 222 450 335 q 503 74 429 74 q 563 93 538 74 q 608 160 589 113 l 632 436 z "},"A":{"ha":793,"x_min":4,"x_max":800,"o":"m 593 0 l 542 173 l 262 173 l 212 0 l 4 0 l 291 888 l 513 888 l 800 0 l 593 0 m 400 650 l 308 332 l 496 332 l 404 650 l 400 650 z "},"B":{"ha":803,"x_min":70,"x_max":756,"o":"m 431 382 l 277 382 l 277 159 l 418 159 q 551 265 551 159 q 522 353 551 324 q 431 382 493 382 m 277 730 l 277 519 l 379 519 q 519 622 519 522 q 484 705 519 679 q 375 730 450 730 l 277 730 m 70 889 l 375 889 q 635 827 544 889 q 726 645 726 766 q 695 531 726 580 q 604 457 665 482 q 718 388 680 440 q 756 263 756 336 q 670 66 756 133 q 418 0 584 0 l 70 1 l 70 889 z "},"C":{"ha":803,"x_min":48,"x_max":764,"o":"m 762 307 q 670 67 756 149 q 418 -14 583 -14 q 151 87 254 -14 q 48 350 48 188 l 48 536 q 147 799 48 698 q 409 900 246 900 q 662 817 572 900 q 764 574 752 733 l 762 570 l 562 570 q 522 701 557 660 q 406 741 487 741 q 296 686 336 741 q 255 537 255 630 l 255 350 q 299 200 255 256 q 419 144 344 144 q 525 183 494 144 q 561 311 557 222 l 761 311 l 762 307 z "},"D":{"ha":817,"x_min":70,"x_max":759,"o":"m 376 730 l 277 730 l 277 159 l 376 159 q 505 215 458 159 q 552 364 552 271 l 552 526 q 505 674 552 619 q 376 730 458 730 m 391 0 l 70 0 l 70 888 l 391 888 q 654 786 549 888 q 759 524 759 684 l 759 364 q 654 102 759 205 q 391 0 549 0 z "},"E":{"ha":711,"x_min":70,"x_max":688,"o":"m 625 539 l 625 380 l 277 380 l 277 159 l 687 159 l 687 0 l 70 0 l 70 888 l 688 888 l 688 730 l 277 730 l 277 539 l 625 539 z "},"F":{"ha":718,"x_min":70,"x_max":694,"o":"m 632 516 l 632 357 l 277 357 l 277 0 l 70 0 l 70 888 l 694 888 l 694 730 l 277 730 l 277 516 l 632 516 z "},"G":{"ha":827,"x_min":54,"x_max":772,"o":"m 772 455 l 772 121 q 633 24 721 62 q 425 -14 546 -14 q 156 87 259 -14 q 54 350 54 188 l 54 536 q 154 799 54 697 q 417 900 254 900 q 667 823 580 900 q 766 604 754 747 l 766 600 l 572 600 q 526 707 562 673 q 419 741 490 741 q 303 685 347 741 q 260 537 260 628 l 260 350 q 303 200 260 256 q 425 144 347 144 q 565 178 524 144 l 565 319 l 425 319 l 425 455 l 772 455 z "},"H":{"ha":882,"x_min":70,"x_max":811,"o":"m 811 888 l 811 0 l 606 0 l 606 357 l 277 357 l 277 0 l 70 0 l 70 888 l 277 888 l 277 516 l 606 516 l 606 888 l 811 888 z "},"I":{"ha":373,"x_min":83,"x_max":290,"o":"m 290 888 l 290 0 l 83 0 l 83 888 l 290 888 z "},"J":{"ha":725,"x_min":34,"x_max":655,"o":"m 655 887 l 655 277 q 569 65 655 144 q 340 -14 482 -14 q 116 56 198 -14 q 37 261 34 127 l 39 264 l 240 264 q 269 174 240 203 q 344 144 297 144 q 420 180 391 144 q 450 277 450 216 l 449 887 l 655 887 z "},"K":{"ha":809,"x_min":70,"x_max":822,"o":"m 277 357 l 277 0 l 70 0 l 70 888 l 277 888 l 277 541 l 347 541 l 542 888 l 798 888 l 523 486 l 822 0 l 571 0 l 372 357 l 277 357 z "},"L":{"ha":677,"x_min":70,"x_max":659,"o":"m 277 888 l 277 159 l 659 159 l 659 0 l 70 0 l 70 888 l 277 888 z "},"M":{"ha":1086,"x_min":70,"x_max":1017,"o":"m 70 888 l 340 888 l 540 267 l 543 267 l 745 888 l 1017 888 l 1017 0 l 810 0 l 810 220 l 829 626 l 826 627 l 612 0 l 473 0 l 260 621 l 257 621 l 277 220 l 277 0 l 70 0 l 70 888 z "},"N":{"ha":882,"x_min":70,"x_max":811,"o":"m 811 888 l 811 0 l 606 0 l 280 566 l 277 565 l 277 0 l 70 0 l 70 888 l 277 888 l 602 322 l 606 323 l 606 888 l 811 888 z "},"O":{"ha":854,"x_min":50,"x_max":804,"o":"m 599 363 l 599 524 q 553 682 599 622 q 427 741 508 741 q 300 682 345 741 q 255 524 255 623 l 255 363 q 301 204 255 264 q 428 144 347 144 q 554 204 509 144 q 599 363 599 264 m 804 523 l 804 363 q 700 92 804 197 q 428 -14 596 -14 q 155 92 260 -14 q 50 363 50 197 l 50 523 q 97 717 50 631 q 230 851 144 803 q 427 900 317 900 q 700 794 595 900 q 804 523 804 688 z "},"P":{"ha":821,"x_min":70,"x_max":774,"o":"m 277 730 l 277 463 l 431 463 q 532 499 496 463 q 568 596 568 535 q 532 693 568 656 q 431 730 496 730 l 277 730 m 431 304 l 277 304 l 277 0 l 70 0 l 70 888 l 431 888 q 681 808 589 888 q 774 596 774 728 q 681 384 774 464 q 431 304 589 304 z "},"Q":{"ha":886,"x_min":54,"x_max":863,"o":"m 604 349 l 604 509 q 558 667 604 608 q 431 727 513 727 q 305 668 350 727 q 260 509 260 608 l 260 349 q 306 190 260 250 q 432 130 351 130 q 558 190 513 130 q 604 349 604 250 m 809 509 l 809 349 q 714 87 809 190 l 863 -58 l 737 -159 l 578 -4 q 433 -28 511 -28 q 159 77 264 -28 q 54 349 54 183 l 54 509 q 101 703 54 617 q 235 837 149 789 q 432 886 321 886 q 704 780 600 886 q 809 509 809 674 z "},"R":{"ha":825,"x_min":70,"x_max":803,"o":"m 277 1 l 70 1 l 70 890 l 412 890 q 657 819 567 890 q 747 623 747 747 q 603 424 747 487 q 720 348 683 401 q 756 212 756 295 l 756 156 q 768 72 756 114 q 803 12 779 30 l 803 0 l 590 0 q 551 156 551 31 l 551 210 q 517 307 551 274 q 418 340 484 340 l 277 342 l 277 1 m 277 730 l 277 499 l 412 499 q 508 527 475 499 q 541 610 541 555 q 507 697 541 665 q 412 730 473 730 l 277 730 z "},"S":{"ha":789,"x_min":43,"x_max":748,"o":"m 414 142 l 414 141 q 509 166 477 141 q 541 235 541 191 q 512 306 541 280 q 399 361 482 331 q 143 479 218 418 q 68 651 68 541 q 163 831 68 762 q 409 900 259 900 q 653 824 559 900 q 743 629 747 748 l 742 625 l 542 625 q 506 712 542 680 q 407 745 469 745 q 309 718 345 745 q 273 651 273 690 q 307 588 273 612 q 443 528 341 564 q 675 414 602 481 q 748 233 748 348 q 657 52 748 119 q 414 -14 567 -14 q 228 19 311 -14 q 94 120 144 52 q 45 281 43 188 l 46 284 l 248 284 q 288 175 248 209 q 414 142 328 142 z "},"T":{"ha":704,"x_min":16,"x_max":690,"o":"m 690 888 l 690 730 l 455 730 l 455 0 l 248 0 l 248 730 l 16 730 l 16 888 l 690 888 z "},"U":{"ha":865,"x_min":65,"x_max":799,"o":"m 592 887 l 799 887 l 799 305 q 700 70 799 155 q 432 -14 600 -14 q 165 70 264 -14 q 65 305 65 155 l 65 887 l 272 887 l 272 305 q 314 184 272 224 q 433 144 355 144 q 592 305 592 144 l 592 887 z "},"V":{"ha":797,"x_min":-1,"x_max":797,"o":"m 215 888 l 389 241 l 395 209 l 399 209 l 405 239 l 581 888 l 797 888 l 509 0 l 286 0 l -1 888 l 215 888 z "},"W":{"ha":1110,"x_min":6,"x_max":1104,"o":"m 627 888 l 785 306 l 788 306 l 905 888 l 1104 888 l 901 0 l 706 0 l 557 548 l 553 548 l 405 0 l 211 0 l 6 888 l 206 888 l 323 306 l 327 306 l 484 888 l 627 888 z "},"X":{"ha":798,"x_min":9,"x_max":800,"o":"m 252 888 l 395 589 l 542 888 l 780 888 l 526 448 l 800 0 l 549 0 l 398 306 l 247 0 l 9 0 l 270 448 l 16 888 l 252 888 z "},"Y":{"ha":800,"x_min":-2,"x_max":802,"o":"m 500 0 l 294 0 l 294 323 l -2 888 l 221 888 l 397 500 l 401 500 l 578 888 l 802 888 l 500 313 l 500 0 z "},"Z":{"ha":730,"x_min":39,"x_max":699,"o":"m 699 159 l 699 0 l 41 0 l 41 93 l 438 730 l 39 730 l 39 888 l 694 888 l 694 800 l 295 159 l 699 159 z "},"[":{"ha":528,"x_min":154,"x_max":433,"o":"m 433 1041 l 433 891 l 360 891 l 360 -64 l 433 -64 l 433 -213 l 154 -213 l 154 1041 l 433 1041 z "},"\\":{"ha":532,"x_min":-9,"x_max":568,"o":"m 361 -85 l -9 880 l 197 880 l 568 -85 l 361 -85 z "},"]":{"ha":528,"x_min":97,"x_max":375,"o":"m 97 891 l 97 1041 l 375 1041 l 375 -213 l 97 -213 l 97 -64 l 170 -64 l 170 891 l 97 891 z "},"^":{"ha":559,"x_min":22,"x_max":540,"o":"m 275 747 l 176 494 l 22 494 l 205 938 l 357 938 l 540 494 l 385 494 l 284 747 l 281 758 l 278 758 l 275 747 z "},"_":{"ha":552,"x_min":0,"x_max":551,"o":"m 551 -17 l 551 -170 l 0 -170 l 0 -17 l 551 -17 z "},"`":{"ha":425,"x_min":45,"x_max":385,"o":"m 258 984 l 385 822 l 217 822 l 45 981 l 46 984 l 258 984 z "},"a":{"ha":663,"x_min":28,"x_max":642,"o":"m 239 -14 q 86 40 144 -14 q 28 184 28 94 q 102 337 28 285 q 325 390 176 390 l 400 390 l 400 437 q 319 524 400 524 q 248 455 248 524 l 49 456 l 47 459 q 123 611 43 551 q 330 671 202 671 q 532 610 458 671 q 607 435 607 548 l 607 186 q 642 -1 607 87 l 439 -1 q 412 75 420 35 q 239 -14 347 -14 m 327 280 q 257 257 280 280 q 233 201 233 235 q 253 150 233 168 q 302 133 272 133 q 400 177 364 133 l 400 280 l 327 280 z "},"b":{"ha":703,"x_min":58,"x_max":670,"o":"m 464 315 l 464 328 q 441 467 464 421 q 360 513 418 513 q 264 464 292 513 l 264 186 q 356 144 292 144 q 442 184 420 144 q 464 315 464 224 m 413 -14 q 250 77 308 -14 l 237 -1 l 58 -1 l 58 951 l 264 951 l 264 595 q 412 671 322 671 q 604 580 538 671 q 670 328 670 489 l 669 315 q 604 73 669 161 q 413 -14 538 -14 z "},"c":{"ha":638,"x_min":28,"x_max":614,"o":"m 233 321 q 258 189 233 234 q 340 144 282 144 q 422 233 422 144 l 611 233 l 612 230 q 538 54 614 122 q 340 -14 462 -14 q 110 77 193 -14 q 28 321 28 169 l 28 336 q 110 579 28 488 q 339 671 192 671 q 540 601 466 671 q 612 410 614 531 l 611 406 l 422 406 q 401 484 422 455 q 339 513 380 513 q 258 467 282 513 q 233 336 233 422 l 233 321 z "},"d":{"ha":703,"x_min":31,"x_max":644,"o":"m 288 671 q 437 590 377 671 l 437 951 l 644 951 l 644 -1 l 465 -1 l 450 80 q 288 -14 388 -14 q 99 75 167 -14 q 31 315 31 163 l 31 328 q 98 578 31 486 q 288 671 166 671 m 237 328 l 237 315 q 261 188 237 231 q 340 144 286 144 q 437 191 406 144 l 437 458 q 341 513 404 513 q 237 328 237 513 z "},"e":{"ha":661,"x_min":40,"x_max":632,"o":"m 431 410 q 345 513 431 513 q 252 397 262 513 l 254 393 l 431 393 l 431 410 m 620 60 l 620 60 l 620 60 m 40 307 l 40 331 q 121 579 40 486 q 345 672 201 673 q 556 592 479 672 q 632 373 632 512 l 632 264 l 255 264 l 254 261 q 296 176 260 208 q 388 144 331 144 q 478 153 444 144 q 571 185 512 161 l 620 60 q 506 7 574 27 q 360 -14 437 -14 q 128 77 216 -14 q 40 307 40 167 z "},"f":{"ha":454,"x_min":7,"x_max":467,"o":"m 309 0 l 102 0 l 102 517 l 7 517 l 7 661 l 102 661 l 102 729 q 170 904 102 843 q 364 965 238 965 q 467 952 404 965 l 451 800 q 389 806 412 806 q 330 786 351 806 q 309 729 309 766 l 309 661 l 437 661 l 437 517 l 309 517 l 309 0 z "},"g":{"ha":703,"x_min":31,"x_max":643,"o":"m 288 643 q 448 548 387 643 l 462 631 l 643 631 l 643 -4 q 552 -217 643 -137 q 307 -296 461 -296 q 93 -245 201 -296 l 126 -92 q 307 -130 216 -130 q 403 -97 370 -130 q 437 -3 437 -63 l 437 31 q 287 -43 380 -43 q 99 46 166 -43 q 31 287 31 136 l 31 299 q 98 550 31 457 q 288 643 165 643 m 237 299 l 237 287 q 339 116 237 116 q 437 159 406 116 l 437 435 q 340 484 406 484 q 237 299 237 484 z "},"h":{"ha":703,"x_min":52,"x_max":646,"o":"m 259 952 l 259 578 q 427 673 322 673 q 589 600 532 673 q 646 380 646 527 l 646 0 l 440 0 l 440 381 q 418 484 440 454 q 342 514 395 514 q 259 480 289 514 l 259 0 l 52 0 l 52 952 l 259 952 z "},"i":{"ha":342,"x_min":68,"x_max":275,"o":"m 275 661 l 275 0 l 68 0 l 68 661 l 275 661 m 275 952 l 275 814 l 68 814 l 68 952 l 275 952 z "},"j":{"ha":334,"x_min":-71,"x_max":277,"o":"m 71 631 l 277 631 l 277 -39 q 211 -229 277 -162 q 26 -296 145 -296 q -71 -286 -24 -296 l -62 -130 q 0 -138 -30 -138 q 71 -39 71 -138 l 71 631 m 273 922 l 273 785 l 66 785 l 66 922 l 273 922 z "},"k":{"ha":683,"x_min":58,"x_max":702,"o":"m 265 262 l 265 0 l 58 0 l 58 952 l 265 952 l 265 418 l 292 418 l 433 661 l 669 661 l 465 362 l 702 0 l 467 0 l 300 262 l 265 262 z "},"l":{"ha":342,"x_min":68,"x_max":275,"o":"m 275 952 l 275 0 l 68 0 l 68 952 l 275 952 z "},"m":{"ha":1077,"x_min":58,"x_max":1017,"o":"m 640 473 l 641 441 l 641 0 l 435 0 l 435 402 q 416 489 435 465 q 355 514 397 514 q 265 473 298 514 l 265 0 l 58 0 l 58 661 l 252 661 l 259 573 q 450 673 325 673 q 620 564 576 673 q 810 673 684 673 q 963 605 909 673 q 1017 402 1017 538 l 1017 0 l 810 0 l 810 402 q 791 489 810 465 q 731 514 772 514 q 640 473 674 514 z "},"n":{"ha":703,"x_min":55,"x_max":649,"o":"m 55 661 l 248 661 l 256 568 q 443 673 325 673 q 649 410 649 673 l 649 0 l 443 0 l 443 410 q 420 490 443 466 q 347 514 397 514 q 260 475 296 514 l 260 0 l 55 0 l 55 661 z "},"o":{"ha":703,"x_min":31,"x_max":670,"o":"m 237 335 l 237 322 q 351 144 237 144 q 465 322 465 144 l 465 335 q 351 513 465 513 q 237 335 237 513 m 31 322 l 31 335 q 116 579 31 487 q 351 671 201 671 q 585 579 500 671 q 670 335 670 487 l 670 322 q 585 78 670 170 q 351 -14 500 -14 q 116 77 201 -14 q 31 322 31 169 z "},"p":{"ha":703,"x_min":59,"x_max":671,"o":"m 415 -41 q 266 31 322 -41 l 266 -282 l 59 -282 l 59 632 l 252 632 l 260 559 q 413 644 318 644 q 603 551 535 644 q 671 301 671 458 l 671 288 q 604 48 671 136 q 415 -41 536 -41 m 363 486 q 265 435 294 486 l 265 160 q 363 118 292 118 q 465 288 465 118 l 465 301 q 363 486 465 486 z "},"q":{"ha":703,"x_min":31,"x_max":644,"o":"m 340 118 q 438 161 410 118 l 438 435 q 341 486 408 486 q 237 301 237 486 l 238 288 q 262 161 238 204 q 340 118 286 118 m 31 288 l 31 301 q 99 551 31 458 q 289 644 167 644 q 449 549 390 644 l 466 632 l 644 632 l 644 -282 l 438 -282 l 438 33 q 288 -41 381 -41 q 99 48 167 -41 q 31 288 31 137 z "},"r":{"ha":462,"x_min":58,"x_max":452,"o":"m 264 0 l 58 0 l 58 661 l 252 661 l 259 564 q 395 673 304 673 q 452 665 427 673 l 431 479 l 356 479 q 264 433 287 479 l 264 0 z "},"s":{"ha":640,"x_min":22,"x_max":602,"o":"m 319 122 l 319 123 q 403 185 403 123 q 374 230 403 211 q 274 263 345 248 q 99 334 156 286 q 41 467 41 381 q 116 612 41 553 q 317 671 190 671 q 523 613 445 671 q 597 460 602 554 l 596 456 l 396 456 q 376 516 396 496 q 318 536 356 536 q 258 518 279 536 q 236 473 236 500 q 263 427 236 445 q 363 395 290 410 q 545 323 488 371 q 602 188 602 276 q 522 43 602 100 q 313 -14 443 -14 q 102 52 182 -14 q 25 207 22 119 l 26 210 l 213 210 q 319 122 216 122 z "},"t":{"ha":453,"x_min":4,"x_max":431,"o":"m 97 823 l 302 823 l 302 659 l 414 659 l 414 516 l 302 516 l 302 214 q 356 147 302 147 q 416 153 389 147 l 431 1 q 304 -14 368 -14 q 149 41 200 -14 q 97 212 97 96 l 97 516 l 4 516 l 4 659 l 97 659 l 97 823 z "},"u":{"ha":703,"x_min":53,"x_max":648,"o":"m 272 -14 q 110 53 167 -14 q 53 256 53 119 l 53 659 l 259 659 l 259 255 q 340 144 259 144 q 441 181 406 144 l 441 659 l 648 659 l 648 -1 l 467 -1 l 454 77 q 272 -14 389 -14 z "},"v":{"ha":643,"x_min":0,"x_max":639,"o":"m 217 661 l 306 272 l 318 202 l 321 201 l 335 272 l 422 661 l 639 661 l 425 0 l 215 0 l 0 661 l 217 661 z "},"w":{"ha":907,"x_min":13,"x_max":891,"o":"m 517 661 l 626 278 l 629 278 l 701 661 l 891 661 l 736 0 l 562 0 l 454 351 l 450 351 l 342 0 l 168 0 l 13 661 l 203 661 l 276 275 l 279 275 l 387 661 l 517 661 z "},"x":{"ha":643,"x_min":3,"x_max":645,"o":"m 239 661 l 320 466 l 323 466 l 407 661 l 638 661 l 447 334 l 645 0 l 414 0 l 326 201 l 322 201 l 235 0 l 3 0 l 201 334 l 9 661 l 239 661 z "},"y":{"ha":643,"x_min":-3,"x_max":649,"o":"m 316 256 l 320 256 l 429 631 l 649 631 l 386 -128 q 285 -266 342 -232 q 154 -296 233 -296 l 140 -296 q 127 -295 134 -296 q 116 -294 119 -294 q 103 -292 113 -294 q 91 -289 94 -290 q 75 -285 88 -288 q 56 -281 61 -282 l 81 -134 q 104 -137 100 -137 q 175 -123 152 -137 q 209 -79 198 -110 l 225 -37 l -3 631 l 216 631 l 316 262 l 316 256 z "},"z":{"ha":643,"x_min":40,"x_max":601,"o":"m 601 159 l 601 0 l 40 0 l 40 115 l 333 502 l 52 502 l 52 661 l 595 661 l 595 549 l 300 159 l 601 159 z "},"{":{"ha":582,"x_min":113,"x_max":469,"o":"m 212 64 l 212 188 q 187 276 212 245 q 113 307 162 307 l 113 446 q 212 566 212 446 l 212 690 q 263 870 212 800 q 431 974 315 941 l 469 867 q 408 806 427 850 q 390 690 390 762 l 390 566 q 277 377 390 432 q 390 189 390 321 l 390 64 q 408 -51 390 -7 q 469 -112 427 -95 l 431 -220 q 263 -117 315 -188 q 212 64 212 -45 z "},"|":{"ha":496,"x_min":193,"x_max":305,"o":"m 305 888 l 305 -165 l 193 -165 l 193 888 l 305 888 z "},"}":{"ha":582,"x_min":113,"x_max":470,"o":"m 193 64 l 193 189 q 307 378 193 323 q 193 567 193 433 l 193 691 q 113 867 193 836 l 152 975 q 319 871 267 942 q 372 691 372 800 l 372 567 q 470 447 372 447 l 470 308 q 372 189 372 308 l 372 64 q 319 -116 372 -44 q 152 -220 267 -187 l 113 -112 q 193 64 193 -80 z "},"~":{"ha":791,"x_min":57,"x_max":730,"o":"m 538 249 q 444 268 487 249 q 363 321 400 286 q 306 366 326 355 q 260 376 286 376 q 216 346 235 376 q 198 272 198 316 l 57 290 q 110 467 57 399 q 248 535 163 535 q 433 456 346 535 q 480 419 460 430 q 526 408 500 408 q 570 439 551 408 q 589 513 589 469 l 730 494 q 676 318 730 387 q 538 249 623 249 z "}," ":{"ha":353,"x_min":0,"x_max":0,"o":""},"¡":{"ha":376,"x_min":75,"x_max":303,"o":"m 78 -252 l 104 355 l 271 355 l 297 -252 l 78 -252 m 108 618 q 124 633 108 618 q 189 648 140 648 q 271 618 238 648 q 303 544 303 589 q 271 470 303 499 q 189 441 239 441 q 107 470 140 441 q 75 544 75 499 q 108 618 75 589 z "},"¢":{"ha":738,"x_min":59,"x_max":648,"o":"m 266 307 l 264 307 q 288 169 264 208 q 359 130 311 130 q 431 154 407 130 q 454 219 455 177 l 648 219 q 589 59 648 124 q 433 -24 530 -6 l 433 -167 l 311 -167 l 311 -25 q 125 80 191 -7 q 59 309 59 167 l 59 319 q 125 546 59 458 q 311 652 192 635 l 311 788 l 433 788 l 433 650 q 592 565 535 633 q 648 391 648 496 l 455 391 q 431 470 455 442 q 363 498 406 498 q 270 395 283 498 q 266 307 266 363 z "},"£":{"ha":750,"x_min":63,"x_max":720,"o":"m 559 342 l 379 342 l 382 274 q 346 165 382 203 l 718 165 l 718 0 l 64 0 l 64 165 l 127 165 q 164 228 163 174 l 165 260 l 162 342 l 63 342 l 63 502 l 157 502 l 153 634 q 227 830 153 760 q 434 901 301 901 q 644 831 567 901 q 720 640 720 762 l 519 640 q 436 736 519 736 q 385 710 404 736 q 367 634 367 685 l 372 502 l 559 502 l 559 342 z "},"¤":{"ha":852,"x_min":41,"x_max":815,"o":"m 209 504 q 176 370 176 441 q 209 236 176 298 q 300 140 241 175 q 425 104 356 104 q 552 140 494 104 q 643 236 610 175 q 675 370 675 298 q 643 503 675 442 q 550 599 610 564 q 424 634 491 634 q 300 600 357 634 q 209 503 242 565 l 209 504 m 646 64 q 426 -14 550 -14 q 205 63 302 -14 l 127 -18 l 41 71 l 123 154 q 62 372 62 250 q 129 592 62 495 l 41 682 l 127 770 l 214 681 q 427 751 309 751 q 640 680 545 751 l 728 770 l 815 682 l 724 589 q 790 372 790 492 q 730 156 790 252 l 815 71 l 728 -18 l 646 64 z "},"¥":{"ha":768,"x_min":9,"x_max":762,"o":"m 665 453 l 665 337 l 490 337 l 490 276 l 665 276 l 665 161 l 490 161 l 490 0 l 277 0 l 277 161 l 83 161 l 83 276 l 277 276 l 277 337 l 83 337 l 83 453 l 231 453 l 9 888 l 241 888 l 387 537 l 530 888 l 762 888 l 541 453 l 665 453 z "},"¦":{"ha":320,"x_min":73,"x_max":251,"o":"m 251 -183 l 73 -183 l 73 302 l 251 302 l 251 -183 m 251 870 l 251 408 l 73 408 l 73 870 l 251 870 z "},"§":{"ha":794,"x_min":57,"x_max":729,"o":"m 729 274 q 635 111 729 165 q 719 -64 719 47 q 633 -237 719 -176 q 389 -298 547 -298 q 144 -233 231 -298 q 57 -46 57 -168 l 263 -46 q 294 -116 263 -93 q 395 -138 326 -138 q 513 -69 513 -138 q 477 -11 513 -33 q 334 41 442 11 q 170 104 226 71 q 85 184 113 137 q 57 292 57 227 q 153 457 57 399 q 66 631 66 520 q 155 806 66 742 q 395 871 243 871 q 632 803 547 871 q 718 611 718 734 l 512 611 q 480 685 512 658 q 392 712 449 712 q 305 692 336 712 q 274 634 274 672 q 307 576 274 597 q 430 532 339 556 q 574 486 522 508 q 660 433 626 463 l 659 433 q 729 274 729 372 m 262 317 q 273 270 262 287 q 317 237 284 253 q 420 199 349 221 l 492 178 q 528 248 528 206 q 494 314 528 290 q 364 368 460 338 q 292 390 338 374 q 262 317 262 366 z "},"¨":{"ha":618,"x_min":57,"x_max":557,"o":"m 149 836 q 129 836 149 836 q 83 859 110 836 q 57 917 57 882 q 83 974 57 951 q 149 998 110 998 q 214 974 187 998 q 241 917 241 951 q 214 859 241 883 q 149 836 187 836 m 465 836 q 446 836 465 836 q 400 859 427 836 q 374 917 374 882 q 400 974 374 951 q 465 998 427 998 q 531 974 504 998 q 557 917 557 951 q 531 859 557 883 q 465 836 504 836 z "},"©":{"ha":981,"x_min":52,"x_max":919,"o":"m 586 362 l 676 362 l 677 359 q 627 219 680 267 q 477 171 574 171 q 321 235 379 171 q 264 407 264 300 l 264 479 q 321 651 264 587 q 476 715 379 715 q 627 667 574 715 q 678 528 681 618 l 677 524 l 587 524 q 560 607 587 581 q 476 633 533 633 q 389 592 420 633 q 358 480 358 551 l 358 407 q 389 294 358 336 q 476 253 420 253 q 559 279 533 253 q 586 362 586 304 m 486 823 q 345 794 411 823 q 230 714 278 765 q 154 593 182 664 q 126 444 126 523 q 174 250 126 337 q 304 112 222 162 q 485 62 387 62 q 666 112 584 62 q 796 250 748 162 q 844 443 844 337 q 796 637 844 549 q 666 774 748 724 q 486 823 584 823 m 792 118 q 763 87 792 118 q 654 21 734 57 q 485 -14 574 -14 q 316 21 396 -14 q 178 118 235 57 q 86 263 120 178 q 52 444 52 349 q 110 675 52 570 q 266 840 167 780 q 485 899 366 899 q 704 840 604 899 q 861 675 804 780 q 919 444 919 570 q 885 263 919 349 q 792 118 850 178 z "},"ª":{"ha":552,"x_min":81,"x_max":474,"o":"m 356 519 q 235 469 309 469 q 121 506 161 469 q 81 608 81 543 q 290 749 81 749 l 351 749 l 351 780 q 281 857 351 857 q 219 842 241 857 q 197 797 197 826 l 91 806 q 144 908 91 869 q 281 948 197 948 q 411 904 364 948 q 458 779 458 860 l 458 586 q 474 477 458 528 l 366 478 q 356 519 359 502 m 188 610 q 260 557 188 557 q 309 568 283 557 q 351 594 334 578 l 351 677 l 287 677 q 214 659 241 677 q 188 610 188 641 z "},"«":{"ha":644,"x_min":33,"x_max":605,"o":"m 325 566 l 184 322 l 325 79 l 199 79 l 33 317 l 33 328 l 199 566 l 325 566 m 605 566 l 464 322 l 605 79 l 479 79 l 313 317 l 313 328 l 479 566 l 605 566 z "},"¬":{"ha":686,"x_min":77,"x_max":586,"o":"m 586 517 l 586 254 l 464 254 l 464 412 l 77 412 l 77 517 l 586 517 z "},"­":{"ha":562,"x_min":83,"x_max":450,"o":"m 450 496 l 450 337 l 83 337 l 83 496 l 450 496 z "},"®":{"ha":981,"x_min":52,"x_max":919,"o":"m 397 191 l 304 191 l 304 710 l 476 710 q 622 668 570 710 q 674 549 674 625 q 609 446 674 482 q 658 393 644 427 q 673 292 673 359 q 683 201 673 225 l 683 191 l 589 191 q 581 309 581 213 q 560 376 581 355 q 493 397 540 397 l 397 397 l 397 191 m 397 628 l 397 478 l 475 478 q 552 498 522 478 q 583 549 583 517 q 561 610 583 593 q 483 628 540 627 l 397 628 m 174 634 q 125 444 125 547 q 171 254 125 340 q 300 114 217 167 q 484 62 382 62 q 668 113 585 62 q 798 253 751 165 q 844 443 844 342 q 798 632 844 544 q 668 771 751 720 q 485 823 584 823 q 304 773 387 823 q 174 635 222 723 l 174 634 m 109 214 q 52 444 52 320 q 109 673 52 568 q 267 840 165 779 q 485 900 368 900 q 703 840 602 900 q 862 673 805 778 q 919 443 919 568 q 861 213 919 319 q 702 47 804 107 q 484 -14 601 -14 q 268 47 368 -14 q 109 214 168 108 l 109 214 z "},"¯":{"ha":650,"x_min":98,"x_max":547,"o":"m 547 977 l 547 871 l 98 871 l 98 977 l 547 977 z "},"°":{"ha":496,"x_min":77,"x_max":416,"o":"m 248 870 q 232 870 248 870 q 193 847 216 870 q 171 792 171 824 q 194 738 171 760 q 248 716 216 716 q 300 738 279 716 q 321 792 321 760 q 300 847 321 824 q 248 870 279 870 m 416 792 q 416 756 416 792 q 367 672 416 721 q 247 623 318 623 q 126 672 176 623 q 77 792 77 721 q 127 913 77 863 q 247 963 177 963 q 366 913 317 963 q 416 792 416 863 z "},"±":{"ha":673,"x_min":52,"x_max":610,"o":"m 597 162 l 597 1 l 62 1 l 62 162 l 597 162 m 420 789 l 420 595 l 610 595 l 610 429 l 420 429 l 420 217 l 241 217 l 241 429 l 52 429 l 52 595 l 241 595 l 241 789 l 420 789 z "},"´":{"ha":422,"x_min":55,"x_max":393,"o":"m 55 829 l 175 1021 l 393 1021 l 223 829 l 55 829 z "},"µ":{"ha":802,"x_min":81,"x_max":703,"o":"m 81 632 l 288 632 l 288 246 q 311 150 289 179 q 388 120 333 120 q 498 176 465 120 l 498 632 l 703 632 l 703 -28 l 510 -28 l 507 4 q 378 -41 452 -41 q 287 -20 327 -41 l 287 -282 l 81 -282 l 81 632 z "},"¶":{"ha":611,"x_min":50,"x_max":541,"o":"m 541 0 l 401 0 l 401 317 l 352 317 q 131 394 212 317 q 50 603 50 471 q 131 811 50 734 q 353 888 212 888 l 541 888 l 541 0 z "},"·":{"ha":401,"x_min":84,"x_max":311,"o":"m 198 350 q 174 350 198 350 q 117 379 149 350 q 84 453 84 408 q 116 527 84 498 q 198 556 149 556 q 279 527 248 556 q 311 453 311 498 q 279 379 311 408 q 198 350 248 350 z "},"¸":{"ha":347,"x_min":52,"x_max":313,"o":"m 313 -169 q 253 -280 313 -240 q 85 -320 193 -320 l 81 -207 q 134 -159 134 -207 q 116 -127 134 -136 q 52 -115 98 -118 l 71 -26 l 228 -26 l 222 -64 q 313 -169 313 -81 z "},"º":{"ha":572,"x_min":71,"x_max":494,"o":"m 178 728 l 178 684 q 207 590 178 624 q 283 557 235 557 q 360 590 332 557 q 388 682 387 623 l 388 731 q 360 824 388 790 q 283 857 332 857 q 206 824 234 857 q 178 728 178 790 m 71 687 l 71 731 q 129 888 71 829 q 283 947 187 947 q 436 888 378 947 q 494 728 494 829 l 494 684 q 437 527 494 587 q 283 468 380 468 q 129 527 186 468 q 71 687 71 587 z "},"»":{"ha":644,"x_min":41,"x_max":614,"o":"m 41 566 l 168 566 l 334 328 l 334 316 l 168 78 l 41 78 l 183 321 l 41 566 m 321 566 l 448 566 l 614 328 l 614 316 l 448 78 l 321 78 l 463 321 l 321 566 z "},"¼":{"ha":886,"x_min":186,"x_max":715,"o":"m 715 774 l 281 79 l 186 127 l 619 822 l 715 774 z "},"½":{"ha":938,"x_min":161,"x_max":691,"o":"m 691 774 l 257 79 l 161 127 l 595 822 l 691 774 z "},"¾":{"ha":1031,"x_min":296,"x_max":826,"o":"m 826 774 l 392 79 l 296 127 l 730 822 l 826 774 z "},"¿":{"ha":637,"x_min":45,"x_max":619,"o":"m 251 -20 q 271 -83 251 -62 q 328 -103 290 -103 q 388 -77 365 -103 q 412 -3 411 -52 l 619 -3 q 542 -195 616 -127 q 329 -262 467 -262 q 118 -199 192 -262 q 45 -20 45 -136 q 68 76 45 32 q 147 174 92 121 l 199 221 q 252 315 247 262 l 254 359 l 429 358 q 411 219 429 268 q 348 131 393 170 l 308 94 q 251 -20 251 38 m 429 618 q 445 603 429 618 q 461 544 461 589 q 429 470 461 499 q 348 441 397 441 q 266 470 298 441 q 233 544 233 499 q 266 618 233 589 q 348 647 298 647 q 429 618 397 647 z "},"À":{"ha":852,"x_min":4,"x_max":800,"o":"m 593 0 l 542 173 l 262 173 l 212 0 l 4 0 l 291 888 l 513 888 l 800 0 l 593 0 m 400 650 l 308 332 l 496 332 l 404 650 l 400 650 m 428 1194 l 555 1032 l 387 1032 l 215 1191 l 216 1194 l 428 1194 z "},"Á":{"ha":852,"x_min":4,"x_max":800,"o":"m 593 0 l 542 173 l 262 173 l 212 0 l 4 0 l 291 888 l 513 888 l 800 0 l 593 0 m 400 650 l 308 332 l 496 332 l 404 650 l 400 650 m 363 1039 l 484 1231 l 701 1231 l 532 1039 l 363 1039 z "},"Â":{"ha":852,"x_min":4,"x_max":800,"o":"m 593 0 l 542 173 l 262 173 l 212 0 l 4 0 l 291 888 l 513 888 l 800 0 l 593 0 m 400 650 l 308 332 l 496 332 l 404 650 l 400 650 m 699 1053 l 536 1053 l 439 1135 l 342 1053 l 183 1053 l 183 1063 l 380 1232 l 498 1232 l 699 1061 l 699 1053 z "},"Ã":{"ha":852,"x_min":4,"x_max":800,"o":"m 593 0 l 542 173 l 262 173 l 212 0 l 4 0 l 291 888 l 513 888 l 800 0 l 593 0 m 400 650 l 308 332 l 496 332 l 404 650 l 400 650 m 535 1060 q 445 1086 506 1060 q 365 1112 384 1112 q 332 1097 345 1112 q 319 1057 319 1083 l 205 1063 q 245 1180 205 1131 q 345 1230 286 1230 q 428 1206 370 1230 q 492 1180 486 1182 q 517 1179 498 1179 q 549 1193 536 1179 q 562 1234 562 1206 l 676 1227 q 635 1108 676 1157 q 535 1060 595 1060 z "},"Ä":{"ha":852,"x_min":4,"x_max":800,"o":"m 593 0 l 542 173 l 262 173 l 212 0 l 4 0 l 291 888 l 513 888 l 800 0 l 593 0 m 400 650 l 308 332 l 496 332 l 404 650 l 400 650 m 279 1046 q 259 1046 279 1046 q 214 1069 240 1046 q 187 1127 187 1093 q 214 1184 187 1161 q 279 1208 240 1208 q 344 1184 317 1208 q 371 1127 371 1161 q 344 1069 371 1093 q 279 1046 317 1046 m 595 1046 q 576 1046 595 1046 q 530 1069 557 1046 q 504 1127 504 1093 q 530 1184 504 1161 q 595 1208 557 1208 q 661 1184 634 1208 q 688 1127 688 1161 q 661 1069 688 1093 q 595 1046 634 1046 z "},"Å":{"ha":852,"x_min":4,"x_max":800,"o":"m 593 0 l 542 173 l 262 173 l 212 0 l 4 0 l 291 888 l 513 888 l 800 0 l 593 0 m 400 650 l 308 332 l 496 332 l 404 650 l 400 650 m 453 1224 q 438 1224 453 1224 q 407 1206 424 1224 q 389 1160 389 1187 q 407 1114 389 1132 q 453 1096 424 1096 q 498 1114 481 1096 q 515 1160 515 1132 q 498 1206 515 1187 q 453 1224 481 1224 m 589 1160 q 589 1134 589 1160 q 550 1073 589 1107 q 452 1038 511 1038 q 354 1072 393 1038 q 315 1159 315 1107 q 355 1247 315 1212 q 452 1283 395 1283 q 550 1247 510 1283 q 589 1160 589 1212 z "},"Æ":{"ha":1175,"x_min":9,"x_max":1130,"o":"m 1130 161 l 1130 0 l 583 0 l 574 201 l 340 201 l 248 0 l 9 0 l 458 888 l 1093 888 l 1093 728 l 758 728 l 766 534 l 1043 534 l 1043 374 l 772 374 l 781 161 l 1130 161 m 554 663 l 417 366 l 567 366 l 554 663 z "},"Ç":{"ha":821,"x_min":43,"x_max":759,"o":"m 610 -169 q 549 -280 610 -240 q 381 -320 489 -320 l 377 -207 q 431 -159 431 -207 q 412 -127 431 -136 q 349 -115 394 -118 l 368 -26 l 524 -26 l 518 -64 q 610 -169 610 -81 m 758 307 q 665 67 751 149 q 414 -14 578 -14 q 146 87 249 -14 q 43 350 43 188 l 43 536 q 142 799 43 698 q 405 900 241 900 q 657 817 568 900 q 759 574 747 733 l 758 570 l 557 570 q 517 701 553 660 q 401 741 482 741 q 291 686 332 741 q 250 537 250 630 l 250 350 q 295 200 250 256 q 414 144 339 144 q 520 183 489 144 q 556 311 552 222 l 756 311 l 758 307 z "},"È":{"ha":699,"x_min":63,"x_max":682,"o":"m 618 539 l 618 380 l 270 380 l 270 159 l 680 159 l 680 0 l 63 0 l 63 888 l 682 888 l 682 730 l 270 730 l 270 539 l 618 539 m 383 1194 l 510 1032 l 342 1032 l 170 1191 l 171 1194 l 383 1194 z "},"É":{"ha":699,"x_min":63,"x_max":682,"o":"m 618 539 l 618 380 l 270 380 l 270 159 l 680 159 l 680 0 l 63 0 l 63 888 l 682 888 l 682 730 l 270 730 l 270 539 l 618 539 m 319 1039 l 439 1231 l 656 1231 l 487 1039 l 319 1039 z "},"Ê":{"ha":699,"x_min":63,"x_max":682,"o":"m 618 539 l 618 380 l 270 380 l 270 159 l 680 159 l 680 0 l 63 0 l 63 888 l 682 888 l 682 730 l 270 730 l 270 539 l 618 539 m 654 1053 l 492 1053 l 394 1135 l 297 1053 l 138 1053 l 138 1063 l 336 1232 l 454 1232 l 654 1061 l 654 1053 z "},"Ë":{"ha":699,"x_min":63,"x_max":682,"o":"m 618 539 l 618 380 l 270 380 l 270 159 l 680 159 l 680 0 l 63 0 l 63 888 l 682 888 l 682 730 l 270 730 l 270 539 l 618 539 m 234 1046 q 215 1046 234 1046 q 169 1069 195 1046 q 142 1127 142 1093 q 169 1184 142 1161 q 234 1208 195 1208 q 299 1184 273 1208 q 326 1127 326 1161 q 299 1069 326 1093 q 234 1046 273 1046 m 551 1046 q 531 1046 551 1046 q 486 1069 512 1046 q 459 1127 459 1093 q 486 1184 459 1161 q 551 1208 512 1208 q 616 1184 589 1208 q 643 1127 643 1161 q 616 1069 643 1093 q 551 1046 589 1046 z "},"Ì":{"ha":377,"x_min":-43,"x_max":296,"o":"m 296 888 l 296 0 l 90 0 l 90 888 l 296 888 m 170 1194 l 296 1032 l 128 1032 l -43 1191 l -43 1194 l 170 1194 z "},"Í":{"ha":377,"x_min":75,"x_max":428,"o":"m 281 888 l 281 0 l 75 0 l 75 888 l 281 888 m 90 1039 l 210 1231 l 428 1231 l 258 1039 l 90 1039 z "},"Î":{"ha":377,"x_min":-74,"x_max":441,"o":"m 297 888 l 297 0 l 91 0 l 91 888 l 297 888 m 441 1053 l 279 1053 l 182 1135 l 85 1053 l -74 1053 l -74 1063 l 123 1232 l 241 1232 l 441 1061 l 441 1053 z "},"Ï":{"ha":377,"x_min":-71,"x_max":430,"o":"m 297 888 l 297 0 l 91 0 l 91 888 l 297 888 m 21 1046 q 2 1046 21 1046 q -44 1069 -18 1046 q -71 1127 -71 1093 q -44 1184 -71 1161 q 21 1208 -18 1208 q 86 1184 60 1208 q 113 1127 113 1161 q 86 1069 113 1093 q 21 1046 60 1046 m 338 1046 q 318 1046 338 1046 q 273 1069 299 1046 q 246 1127 246 1093 q 273 1184 246 1161 q 338 1208 299 1208 q 403 1184 376 1208 q 430 1127 430 1161 q 403 1069 430 1093 q 338 1046 376 1046 z "},"Ð":{"ha":827,"x_min":-18,"x_max":784,"o":"m 428 504 l 428 388 l 300 388 l 300 165 l 375 165 q 517 231 468 165 q 566 425 566 296 l 566 464 q 372 724 566 724 l 300 724 l 300 504 l 428 504 m 378 0 l 86 0 l 86 388 l -18 388 l -18 504 l 86 504 l 86 888 l 372 888 q 584 836 491 888 q 730 686 677 783 q 784 467 783 589 l 784 425 q 733 207 784 302 q 587 55 682 111 q 378 0 493 0 z "},"Ñ":{"ha":878,"x_min":62,"x_max":804,"o":"m 804 888 l 804 0 l 598 0 l 273 566 l 269 565 l 269 0 l 62 0 l 62 888 l 269 888 l 594 322 l 598 323 l 598 888 l 804 888 m 546 1060 q 456 1086 517 1060 q 375 1112 395 1112 q 343 1097 356 1112 q 330 1057 330 1083 l 216 1063 q 256 1180 216 1131 q 356 1230 297 1230 q 439 1206 380 1230 q 503 1180 497 1182 q 528 1179 509 1179 q 560 1193 547 1179 q 573 1234 573 1206 l 687 1227 q 646 1108 687 1157 q 546 1060 606 1060 z "},"Ò":{"ha":863,"x_min":45,"x_max":800,"o":"m 595 363 l 595 524 q 549 682 595 622 q 422 741 504 741 q 296 682 341 741 q 251 524 251 623 l 251 363 q 297 204 251 264 q 424 144 342 144 q 550 204 505 144 q 595 363 595 264 m 800 523 l 800 363 q 696 92 800 197 q 424 -14 592 -14 q 151 92 256 -14 q 45 363 45 197 l 45 523 q 93 717 45 631 q 226 851 140 803 q 423 900 313 900 q 695 794 591 900 q 800 523 800 688 m 427 1194 l 554 1032 l 386 1032 l 214 1191 l 215 1194 l 427 1194 z "},"Ó":{"ha":863,"x_min":45,"x_max":800,"o":"m 594 363 l 594 524 q 549 682 594 622 q 422 741 503 741 q 295 682 340 741 q 250 524 250 623 l 250 363 q 296 204 250 264 q 423 144 342 144 q 549 204 504 144 q 594 363 594 264 m 800 523 l 800 363 q 695 92 800 197 q 423 -14 591 -14 q 150 92 255 -14 q 45 363 45 197 l 45 523 q 92 717 45 631 q 225 851 139 803 q 422 900 312 900 q 695 794 590 900 q 800 523 800 688 m 362 1039 l 482 1231 l 700 1231 l 530 1039 l 362 1039 z "},"Ô":{"ha":863,"x_min":45,"x_max":800,"o":"m 594 363 l 594 524 q 549 682 594 622 q 422 741 503 741 q 295 682 340 741 q 250 524 250 623 l 250 363 q 296 204 250 264 q 423 144 342 144 q 549 204 504 144 q 594 363 594 264 m 800 523 l 800 363 q 695 92 800 197 q 423 -14 591 -14 q 150 92 255 -14 q 45 363 45 197 l 45 523 q 92 717 45 631 q 225 851 139 803 q 422 900 312 900 q 695 794 590 900 q 800 523 800 688 m 697 1053 l 535 1053 l 437 1135 l 340 1053 l 182 1053 l 182 1063 l 379 1232 l 497 1232 l 697 1061 l 697 1053 z "},"Õ":{"ha":863,"x_min":45,"x_max":800,"o":"m 594 363 l 594 524 q 549 682 594 622 q 422 741 503 741 q 295 682 340 741 q 250 524 250 623 l 250 363 q 296 204 250 264 q 423 144 342 144 q 549 204 504 144 q 594 363 594 264 m 800 523 l 800 363 q 695 92 800 197 q 423 -14 591 -14 q 150 92 255 -14 q 45 363 45 197 l 45 523 q 92 717 45 631 q 225 851 139 803 q 422 900 312 900 q 695 794 590 900 q 800 523 800 688 m 534 1060 q 444 1086 505 1060 q 363 1112 382 1112 q 331 1097 344 1112 q 317 1057 317 1083 l 203 1063 q 244 1180 203 1131 q 344 1230 285 1230 q 427 1206 368 1230 q 491 1180 485 1182 q 515 1179 496 1179 q 548 1193 534 1179 q 561 1234 561 1206 l 675 1227 q 634 1108 675 1157 q 534 1060 593 1060 z "},"Ö":{"ha":863,"x_min":45,"x_max":800,"o":"m 594 363 l 594 524 q 549 682 594 622 q 422 741 503 741 q 295 682 340 741 q 250 524 250 623 l 250 363 q 296 204 250 264 q 423 144 342 144 q 549 204 504 144 q 594 363 594 264 m 800 523 l 800 363 q 695 92 800 197 q 423 -14 591 -14 q 150 92 255 -14 q 45 363 45 197 l 45 523 q 92 717 45 631 q 225 851 139 803 q 422 900 312 900 q 695 794 590 900 q 800 523 800 688 m 277 1046 q 258 1046 277 1046 q 212 1069 239 1046 q 186 1127 186 1093 q 212 1184 186 1161 q 277 1208 239 1208 q 343 1184 316 1208 q 370 1127 370 1161 q 343 1069 370 1093 q 277 1046 316 1046 m 594 1046 q 575 1046 594 1046 q 529 1069 555 1046 q 503 1127 503 1093 q 529 1184 503 1161 q 594 1208 555 1208 q 660 1184 633 1208 q 686 1127 686 1161 q 660 1069 686 1093 q 594 1046 633 1046 z "},"×":{"ha":661,"x_min":33,"x_max":626,"o":"m 150 134 l 33 246 l 215 432 l 33 619 l 150 730 l 329 548 l 508 730 l 626 619 l 443 432 l 626 246 l 508 134 l 329 316 l 150 134 z "},"Ø":{"ha":860,"x_min":50,"x_max":827,"o":"m 827 451 l 827 420 q 779 190 827 290 q 641 36 730 90 q 439 -18 553 -18 q 260 22 342 -18 l 211 -64 l 85 -64 l 171 86 q 50 425 50 205 l 50 456 q 97 687 50 588 q 233 841 144 787 q 437 895 322 895 q 613 856 534 895 l 650 921 l 777 921 l 703 792 q 827 451 827 669 m 608 457 q 591 597 608 536 l 349 176 q 439 149 385 149 q 564 217 521 149 q 608 416 608 286 l 608 457 m 267 420 q 283 281 267 338 l 524 701 q 437 726 486 726 q 267 460 268 726 l 267 420 z "},"Ù":{"ha":831,"x_min":58,"x_max":792,"o":"m 585 887 l 792 887 l 792 305 q 693 70 792 155 q 426 -14 593 -14 q 158 70 258 -14 q 58 305 58 155 l 58 887 l 265 887 l 265 305 q 307 184 265 224 q 427 144 349 144 q 585 305 585 144 l 585 887 m 405 1194 l 532 1032 l 363 1032 l 192 1191 l 193 1194 l 405 1194 z "},"Ú":{"ha":831,"x_min":58,"x_max":791,"o":"m 585 887 l 791 887 l 791 305 q 692 70 791 155 q 425 -14 593 -14 q 157 70 257 -14 q 58 305 58 155 l 58 887 l 264 887 l 264 305 q 306 184 264 224 q 426 144 348 144 q 585 305 585 144 l 585 887 m 340 1039 l 460 1231 l 677 1231 l 508 1039 l 340 1039 z "},"Û":{"ha":831,"x_min":58,"x_max":791,"o":"m 585 887 l 791 887 l 791 305 q 692 70 791 155 q 425 -14 593 -14 q 157 70 257 -14 q 58 305 58 155 l 58 887 l 264 887 l 264 305 q 306 184 264 224 q 426 144 348 144 q 585 305 585 144 l 585 887 m 675 1053 l 513 1053 l 415 1135 l 318 1053 l 159 1053 l 159 1063 l 357 1232 l 475 1232 l 675 1061 l 675 1053 z "},"Ü":{"ha":831,"x_min":58,"x_max":791,"o":"m 585 887 l 791 887 l 791 305 q 692 70 791 155 q 425 -14 593 -14 q 157 70 257 -14 q 58 305 58 155 l 58 887 l 264 887 l 264 305 q 306 184 264 224 q 426 144 348 144 q 585 305 585 144 l 585 887 m 255 1046 q 236 1046 255 1046 q 190 1069 216 1046 q 163 1127 163 1093 q 190 1184 163 1161 q 255 1208 216 1208 q 320 1184 294 1208 q 347 1127 347 1161 q 320 1069 347 1093 q 255 1046 294 1046 m 572 1046 q 552 1046 572 1046 q 507 1069 533 1046 q 480 1127 480 1093 q 507 1184 480 1161 q 572 1208 533 1208 q 637 1184 610 1208 q 664 1127 664 1161 q 637 1069 664 1093 q 572 1046 610 1046 z "},"Ý":{"ha":785,"x_min":-2,"x_max":802,"o":"m 500 0 l 294 0 l 294 323 l -2 888 l 221 888 l 397 500 l 401 500 l 578 888 l 802 888 l 500 313 l 500 0 m 326 1039 l 446 1231 l 663 1231 l 494 1039 l 326 1039 z "},"Þ":{"ha":772,"x_min":71,"x_max":741,"o":"m 400 572 l 278 572 l 278 328 l 399 328 q 498 360 462 328 q 534 450 534 392 q 498 540 534 507 q 400 572 463 572 m 71 888 l 278 888 l 278 731 l 403 731 q 584 696 507 730 q 701 597 661 662 q 741 450 741 533 q 651 247 741 322 q 403 170 560 171 l 278 170 l 278 0 l 71 0 l 71 888 z "},"ß":{"ha":812,"x_min":81,"x_max":776,"o":"m 81 0 l 81 671 q 162 880 81 806 q 395 953 243 953 q 590 889 516 953 q 665 721 665 826 q 650 646 665 684 q 622 573 636 608 q 607 514 607 538 q 622 470 607 490 q 688 399 637 450 q 776 224 776 316 q 701 48 776 109 q 485 -13 625 -13 q 392 -4 437 -13 q 321 18 346 4 l 357 173 q 486 146 409 146 q 547 166 524 146 q 571 217 571 186 q 555 270 571 248 q 492 333 540 292 q 422 413 444 375 q 401 497 401 452 q 430 611 401 542 q 459 714 459 681 q 435 770 459 747 q 369 793 410 793 q 308 763 328 793 q 288 667 288 732 l 288 0 l 81 0 z "},"à":{"ha":663,"x_min":25,"x_max":640,"o":"m 237 -14 q 83 40 142 -14 q 25 184 25 94 q 99 337 25 285 q 322 390 173 390 l 397 390 l 397 437 q 316 524 397 524 q 245 455 245 524 l 46 456 l 45 459 q 120 611 41 551 q 327 671 199 671 q 530 610 455 671 q 604 435 604 548 l 604 186 q 640 -1 604 87 l 436 -1 q 409 75 418 35 q 237 -14 345 -14 m 324 280 q 254 257 277 280 q 231 201 231 235 q 250 150 231 168 q 300 133 269 133 q 397 177 361 133 l 397 280 l 324 280 m 313 984 l 440 822 l 272 822 l 100 981 l 101 984 l 313 984 z "},"á":{"ha":663,"x_min":25,"x_max":640,"o":"m 237 -14 q 83 40 142 -14 q 25 184 25 94 q 99 337 25 285 q 322 390 173 390 l 397 390 l 397 437 q 316 524 397 524 q 245 455 245 524 l 46 456 l 45 459 q 120 611 41 551 q 327 671 199 671 q 530 610 455 671 q 604 435 604 548 l 604 186 q 640 -1 604 87 l 436 -1 q 409 75 418 35 q 237 -14 345 -14 m 324 280 q 254 257 277 280 q 231 201 231 235 q 250 150 231 168 q 300 133 269 133 q 397 177 361 133 l 397 280 l 324 280 m 249 829 l 369 1021 l 587 1021 l 417 829 l 249 829 z "},"â":{"ha":663,"x_min":25,"x_max":640,"o":"m 237 -14 q 83 40 142 -14 q 25 184 25 94 q 99 337 25 285 q 322 390 173 390 l 397 390 l 397 437 q 316 524 397 524 q 245 455 245 524 l 46 456 l 45 459 q 120 611 41 551 q 327 671 199 671 q 530 610 455 671 q 604 435 604 548 l 604 186 q 640 -1 604 87 l 436 -1 q 409 75 418 35 q 237 -14 345 -14 m 324 280 q 254 257 277 280 q 231 201 231 235 q 250 150 231 168 q 300 133 269 133 q 397 177 361 133 l 397 280 l 324 280 m 584 842 l 422 842 l 324 925 l 227 842 l 68 842 l 68 852 l 266 1022 l 384 1022 l 584 850 l 584 842 z "},"ã":{"ha":663,"x_min":25,"x_max":640,"o":"m 237 -14 q 83 40 142 -14 q 25 184 25 94 q 99 337 25 285 q 322 390 173 390 l 397 390 l 397 437 q 316 524 397 524 q 245 455 245 524 l 46 456 l 45 459 q 120 611 41 551 q 327 671 199 671 q 530 610 455 671 q 604 435 604 548 l 604 186 q 640 -1 604 87 l 436 -1 q 409 75 418 35 q 237 -14 345 -14 m 324 280 q 254 257 277 280 q 231 201 231 235 q 250 150 231 168 q 300 133 269 133 q 397 177 361 133 l 397 280 l 324 280 m 420 850 q 331 876 392 850 q 250 902 270 902 q 217 888 231 902 q 204 847 204 873 l 90 853 q 131 971 90 922 q 231 1020 172 1020 q 313 996 255 1020 q 377 971 372 972 q 402 969 383 969 q 434 983 421 969 q 448 1024 448 997 l 562 1017 q 521 899 562 947 q 420 850 480 850 z "},"ä":{"ha":663,"x_min":25,"x_max":640,"o":"m 237 -14 q 83 40 142 -14 q 25 184 25 94 q 99 337 25 285 q 322 390 173 390 l 397 390 l 397 437 q 316 524 397 524 q 245 455 245 524 l 46 456 l 45 459 q 120 611 41 551 q 327 671 199 671 q 530 610 455 671 q 604 435 604 548 l 604 186 q 640 -1 604 87 l 436 -1 q 409 75 418 35 q 237 -14 345 -14 m 324 280 q 254 257 277 280 q 231 201 231 235 q 250 150 231 168 q 300 133 269 133 q 397 177 361 133 l 397 280 l 324 280 m 164 836 q 145 836 164 836 q 99 859 125 836 q 73 917 73 882 q 99 974 73 951 q 164 998 125 998 q 230 974 203 998 q 256 917 256 951 q 230 859 256 883 q 164 836 203 836 m 481 836 q 461 836 481 836 q 416 859 442 836 q 389 917 389 882 q 416 974 389 951 q 481 998 442 998 q 546 974 519 998 q 573 917 573 951 q 546 859 573 883 q 481 836 519 836 z "},"å":{"ha":663,"x_min":24,"x_max":639,"o":"m 236 -14 q 83 40 141 -14 q 24 184 24 94 q 98 337 24 285 q 321 390 172 390 l 397 390 l 397 437 q 315 524 397 524 q 245 455 245 524 l 45 456 l 44 459 q 119 611 40 551 q 327 671 199 671 q 529 610 454 671 q 604 435 604 548 l 604 186 q 639 -1 604 87 l 435 -1 q 408 75 417 35 q 236 -14 344 -14 m 323 280 q 253 257 277 280 q 230 201 230 235 q 249 150 230 168 q 299 133 269 133 q 397 177 361 133 l 397 280 l 323 280 m 338 1014 q 324 1014 338 1014 q 292 996 309 1014 q 275 949 275 977 q 292 904 275 922 q 338 886 309 886 q 384 904 367 886 q 401 949 401 922 q 384 996 401 977 q 338 1014 367 1014 m 475 949 q 475 923 475 949 q 436 862 475 897 q 338 827 397 827 q 240 862 279 827 q 201 949 201 897 q 240 1037 201 1002 q 338 1073 280 1073 q 435 1037 395 1073 q 475 949 475 1002 z "},"æ":{"ha":1056,"x_min":38,"x_max":1029,"o":"m 243 195 q 335 129 243 129 q 438 168 391 129 l 438 275 l 353 275 q 274 252 305 274 q 243 195 243 230 m 828 410 q 808 487 828 460 q 744 513 788 513 q 640 393 652 513 l 828 393 l 828 410 m 1007 60 l 1008 61 q 1007 60 1007 61 m 756 -13 q 524 69 608 -13 q 425 8 485 29 q 296 -13 366 -13 q 106 43 174 -13 q 38 197 38 98 q 117 347 38 295 q 352 399 197 398 l 438 399 l 438 427 q 417 490 438 467 q 356 513 397 513 q 291 495 315 513 q 267 450 267 477 l 61 462 q 143 613 61 555 q 354 671 224 671 q 554 616 484 671 q 749 671 631 672 q 955 590 880 671 q 1029 370 1029 509 l 1029 264 l 639 264 q 784 145 656 145 q 920 170 861 145 l 958 186 l 1007 60 q 896 8 966 28 q 756 -13 827 -13 z "},"ç":{"ha":650,"x_min":24,"x_max":611,"o":"m 530 -169 q 470 -280 530 -240 q 302 -320 410 -320 l 298 -207 q 351 -159 351 -207 q 333 -127 351 -136 q 269 -115 315 -118 l 288 -26 l 445 -26 l 439 -64 q 530 -169 530 -81 m 230 321 q 254 189 230 234 q 337 144 279 144 q 419 233 419 144 l 608 233 l 609 230 q 535 54 611 122 q 337 -14 458 -14 q 107 77 189 -14 q 24 321 24 169 l 24 336 q 106 579 24 488 q 336 671 189 671 q 537 601 463 671 q 609 410 611 531 l 608 406 l 419 406 q 398 484 419 455 q 336 513 376 513 q 254 467 279 513 q 230 336 230 422 l 230 321 z "},"è":{"ha":681,"x_min":36,"x_max":628,"o":"m 427 410 q 341 513 427 513 q 248 397 258 513 l 250 393 l 427 393 l 427 410 m 616 60 l 616 60 l 616 60 m 311 985 l 438 823 l 270 823 l 98 981 l 99 985 l 311 985 m 36 307 l 36 331 q 117 579 36 486 q 341 672 197 673 q 552 592 475 672 q 628 373 628 512 l 628 264 l 251 264 l 250 261 q 292 176 256 208 q 384 144 327 144 q 474 153 440 144 q 567 185 508 161 l 616 60 q 502 7 570 27 q 356 -14 433 -14 q 124 77 212 -14 q 36 307 36 167 z "},"é":{"ha":681,"x_min":36,"x_max":628,"o":"m 427 410 q 341 513 427 513 q 248 397 258 513 l 250 393 l 427 393 l 427 410 m 616 60 l 616 60 l 616 60 m 247 829 l 367 1021 l 585 1021 l 415 829 l 247 829 m 36 307 l 36 331 q 117 579 36 486 q 341 672 197 673 q 552 592 475 672 q 628 373 628 512 l 628 264 l 251 264 l 250 261 q 292 176 256 208 q 384 144 327 144 q 474 153 440 144 q 567 185 508 161 l 616 60 q 502 7 570 27 q 356 -14 433 -14 q 124 77 212 -14 q 36 307 36 167 z "},"ê":{"ha":681,"x_min":36,"x_max":628,"o":"m 427 410 q 341 513 427 513 q 248 397 258 513 l 250 393 l 427 393 l 427 410 m 616 60 l 616 60 l 616 60 m 582 843 l 420 843 l 322 926 l 225 843 l 66 843 l 66 853 l 264 1023 l 382 1023 l 582 851 l 582 843 m 36 307 l 36 331 q 117 579 36 486 q 341 672 197 673 q 552 592 475 672 q 628 373 628 512 l 628 264 l 251 264 l 250 261 q 292 176 256 208 q 384 144 327 144 q 474 153 440 144 q 567 185 508 161 l 616 60 q 502 7 570 27 q 356 -14 433 -14 q 124 77 212 -14 q 36 307 36 167 z "},"ë":{"ha":681,"x_min":36,"x_max":628,"o":"m 427 410 q 341 513 427 513 q 248 397 258 513 l 250 393 l 427 393 l 427 410 m 616 60 l 616 60 l 616 60 m 162 836 q 143 836 162 836 q 97 860 123 836 q 71 917 71 883 q 97 975 71 951 q 162 998 123 998 q 228 975 201 998 q 254 918 254 951 q 228 860 254 884 q 162 836 201 836 m 479 836 q 459 836 479 836 q 414 860 440 836 q 387 917 387 883 q 414 975 387 951 q 479 998 440 998 q 544 975 517 998 q 571 918 571 951 q 544 860 571 884 q 479 836 517 836 m 36 307 l 36 331 q 117 579 36 486 q 341 672 197 673 q 552 592 475 672 q 628 373 628 512 l 628 264 l 251 264 l 250 261 q 292 176 256 208 q 384 144 327 144 q 474 153 440 144 q 567 185 508 161 l 616 60 q 502 7 570 27 q 356 -14 433 -14 q 124 77 212 -14 q 36 307 36 167 z "},"ì":{"ha":357,"x_min":-52,"x_max":290,"o":"m 290 661 l 290 0 l 83 0 l 83 661 l 290 661 m 161 970 l 288 808 l 119 808 l -52 967 l -52 970 l 161 970 z "},"í":{"ha":357,"x_min":68,"x_max":418,"o":"m 275 661 l 275 0 l 68 0 l 68 661 l 275 661 m 81 815 l 201 1007 l 418 1007 l 249 815 l 81 815 z "},"î":{"ha":357,"x_min":-83,"x_max":433,"o":"m 292 661 l 292 0 l 85 0 l 85 661 l 292 661 m 433 829 l 271 829 l 173 911 l 76 829 l -83 829 l -83 839 l 115 1008 l 233 1008 l 433 837 l 433 829 z "},"ï":{"ha":357,"x_min":-79,"x_max":421,"o":"m 290 661 l 290 0 l 83 0 l 83 661 l 290 661 m 12 822 q -7 822 12 822 q -53 845 -26 822 q -79 903 -79 869 q -53 961 -79 937 q 12 984 -26 984 q 78 961 51 984 q 104 903 104 937 q 78 846 104 869 q 12 822 51 822 m 329 822 q 310 822 329 822 q 264 845 290 822 q 237 903 237 869 q 264 961 237 937 q 329 984 290 984 q 394 961 368 984 q 421 903 421 937 q 394 846 421 869 q 329 822 368 822 z "},"ð":{"ha":711,"x_min":39,"x_max":686,"o":"m 245 282 l 245 282 q 276 181 245 219 q 361 143 307 143 q 447 194 415 143 q 479 336 479 244 l 479 396 q 361 436 438 436 q 245 282 245 436 m 686 394 l 686 359 q 643 165 686 251 q 524 33 600 79 q 356 -14 449 -14 q 192 24 264 -14 q 79 132 119 62 q 39 283 39 199 q 112 506 39 427 q 316 585 185 585 q 454 547 395 585 q 360 694 425 631 l 252 627 l 204 699 l 287 750 q 138 813 221 790 l 204 962 q 457 855 347 934 l 557 917 l 604 844 l 526 795 q 686 394 686 637 z "},"ñ":{"ha":705,"x_min":49,"x_max":643,"o":"m 49 661 l 242 661 l 250 568 q 437 673 319 673 q 643 410 643 673 l 643 0 l 437 0 l 437 410 q 414 490 437 466 q 340 514 391 514 q 254 475 290 514 l 254 0 l 49 0 l 49 661 m 446 850 q 356 876 417 850 q 276 902 296 902 q 243 888 256 902 q 230 847 230 873 l 116 853 q 157 971 116 922 q 256 1020 197 1020 q 339 996 281 1020 q 403 971 397 972 q 428 969 409 969 q 460 983 447 969 q 473 1024 473 997 l 587 1017 q 547 899 587 947 q 446 850 506 850 z "},"ò":{"ha":702,"x_min":28,"x_max":667,"o":"m 234 335 l 234 322 q 348 144 234 144 q 461 322 461 144 l 461 335 q 348 513 461 513 q 234 335 234 513 m 28 322 l 28 335 q 113 579 28 487 q 347 671 197 671 q 582 579 497 671 q 667 335 667 487 l 667 322 q 582 78 667 170 q 347 -14 497 -14 q 113 77 197 -14 q 28 322 28 169 m 341 984 l 468 822 l 300 822 l 128 981 l 129 984 l 341 984 z "},"ó":{"ha":702,"x_min":28,"x_max":667,"o":"m 234 335 l 234 322 q 348 144 234 144 q 461 322 461 144 l 461 335 q 348 513 461 513 q 234 335 234 513 m 28 322 l 28 335 q 113 579 28 487 q 347 671 197 671 q 582 579 497 671 q 667 335 667 487 l 667 322 q 582 78 667 170 q 347 -14 497 -14 q 113 77 197 -14 q 28 322 28 169 m 277 829 l 397 1021 l 614 1021 l 445 829 l 277 829 z "},"ô":{"ha":702,"x_min":28,"x_max":667,"o":"m 234 335 l 234 322 q 348 144 234 144 q 461 322 461 144 l 461 335 q 348 513 461 513 q 234 335 234 513 m 28 322 l 28 335 q 113 579 28 487 q 347 671 197 671 q 582 579 497 671 q 667 335 667 487 l 667 322 q 582 78 667 170 q 347 -14 497 -14 q 113 77 197 -14 q 28 322 28 169 m 612 842 l 450 842 l 352 925 l 255 842 l 96 842 l 96 852 l 294 1022 l 412 1022 l 612 850 l 612 842 z "},"õ":{"ha":702,"x_min":28,"x_max":667,"o":"m 234 335 l 234 322 q 348 144 234 144 q 461 322 461 144 l 461 335 q 348 513 461 513 q 234 335 234 513 m 28 322 l 28 335 q 113 579 28 487 q 347 671 197 671 q 582 579 497 671 q 667 335 667 487 l 667 322 q 582 78 667 170 q 347 -14 497 -14 q 113 77 197 -14 q 28 322 28 169 m 448 850 q 358 876 419 850 q 278 902 297 902 q 245 888 258 902 q 232 847 232 873 l 118 853 q 159 971 118 922 q 258 1020 199 1020 q 341 996 283 1020 q 405 971 399 972 q 430 969 411 969 q 462 983 449 969 q 475 1024 475 997 l 589 1017 q 549 899 589 947 q 448 850 508 850 z "},"ö":{"ha":702,"x_min":28,"x_max":667,"o":"m 234 335 l 234 322 q 348 144 234 144 q 461 322 461 144 l 461 335 q 348 513 461 513 q 234 335 234 513 m 28 322 l 28 335 q 113 579 28 487 q 347 671 197 671 q 582 579 497 671 q 667 335 667 487 l 667 322 q 582 78 667 170 q 347 -14 497 -14 q 113 77 197 -14 q 28 322 28 169 m 192 836 q 173 836 192 836 q 127 859 153 836 q 100 917 100 882 q 127 974 100 951 q 192 998 153 998 q 257 974 231 998 q 284 917 284 951 q 257 859 284 883 q 192 836 231 836 m 509 836 q 489 836 509 836 q 444 859 470 836 q 417 917 417 882 q 444 974 417 951 q 509 998 470 998 q 574 974 547 998 q 601 917 601 951 q 574 859 601 883 q 509 836 547 836 z "},"÷":{"ha":711,"x_min":36,"x_max":673,"o":"m 459 257 l 459 107 l 252 107 l 252 257 l 459 257 m 673 503 l 673 355 l 36 355 l 36 503 l 673 503 m 459 747 l 459 597 l 252 597 l 252 747 l 459 747 z "},"ø":{"ha":703,"x_min":32,"x_max":668,"o":"m 351 137 q 463 307 460 137 l 463 326 q 452 416 463 374 l 319 140 q 351 137 330 137 m 350 504 q 238 351 246 504 l 237 315 q 248 218 237 255 l 385 498 q 350 504 368 504 m 349 663 q 457 648 408 663 l 499 734 l 607 734 l 545 605 q 668 314 668 514 q 583 68 668 158 q 351 -22 498 -22 q 246 -9 295 -22 l 203 -98 l 94 -98 l 158 33 q 32 326 32 121 q 70 503 32 426 q 180 621 109 580 q 349 663 252 663 z "},"ù":{"ha":705,"x_min":47,"x_max":642,"o":"m 266 -14 q 104 53 161 -14 q 47 256 47 119 l 47 659 l 253 659 l 253 255 q 334 144 253 144 q 435 181 400 144 l 435 659 l 642 659 l 642 -1 l 461 -1 l 448 77 q 266 -14 382 -14 m 338 984 l 465 822 l 297 822 l 125 981 l 126 984 l 338 984 z "},"ú":{"ha":705,"x_min":47,"x_max":642,"o":"m 266 -14 q 104 53 161 -14 q 47 256 47 119 l 47 659 l 253 659 l 253 255 q 334 144 253 144 q 435 181 400 144 l 435 659 l 642 659 l 642 -1 l 461 -1 l 448 77 q 266 -14 382 -14 m 274 829 l 394 1021 l 612 1021 l 442 829 l 274 829 z "},"û":{"ha":705,"x_min":47,"x_max":642,"o":"m 266 -14 q 104 53 161 -14 q 47 256 47 119 l 47 659 l 253 659 l 253 255 q 334 144 253 144 q 435 181 400 144 l 435 659 l 642 659 l 642 -1 l 461 -1 l 448 77 q 266 -14 382 -14 m 609 842 l 447 842 l 349 925 l 252 842 l 94 842 l 94 852 l 291 1022 l 409 1022 l 609 850 l 609 842 z "},"ü":{"ha":705,"x_min":47,"x_max":642,"o":"m 266 -14 q 104 53 161 -14 q 47 256 47 119 l 47 659 l 253 659 l 253 255 q 334 144 253 144 q 435 181 400 144 l 435 659 l 642 659 l 642 -1 l 461 -1 l 448 77 q 266 -14 382 -14 m 189 836 q 170 836 189 836 q 124 859 151 836 q 98 917 98 882 q 124 974 98 951 q 189 998 151 998 q 255 974 228 998 q 281 917 281 951 q 255 859 281 883 q 189 836 228 836 m 506 836 q 487 836 506 836 q 441 859 467 836 q 414 917 414 882 q 441 974 414 951 q 506 998 467 998 q 571 974 545 998 q 598 917 598 951 q 571 859 598 883 q 506 836 545 836 z "},"ý":{"ha":648,"x_min":-3,"x_max":649,"o":"m 316 256 l 320 256 l 429 631 l 649 631 l 386 -128 q 285 -266 342 -232 q 154 -296 233 -296 l 140 -296 q 127 -295 134 -296 q 116 -294 119 -294 q 103 -292 113 -294 q 91 -289 94 -290 q 75 -285 88 -288 q 56 -281 61 -282 l 81 -134 q 104 -137 100 -137 q 175 -123 152 -137 q 209 -79 198 -110 l 225 -37 l -3 631 l 216 631 l 316 262 l 316 256 m 248 829 l 368 1021 l 585 1021 l 416 829 l 248 829 z "},"þ":{"ha":701,"x_min":58,"x_max":669,"o":"m 413 -41 q 264 25 322 -41 l 264 -282 l 58 -282 l 58 909 l 264 909 l 264 581 q 412 644 321 644 q 601 556 533 644 q 669 307 669 467 l 669 297 q 601 51 669 142 q 413 -41 532 -41 m 463 310 q 361 486 463 486 q 264 435 290 486 l 264 172 q 362 118 290 118 q 463 287 460 118 l 463 310 z "},"ÿ":{"ha":648,"x_min":-3,"x_max":649,"o":"m 316 256 l 320 256 l 429 631 l 649 631 l 386 -128 q 285 -266 342 -232 q 154 -296 233 -296 l 140 -296 q 127 -295 134 -296 q 116 -294 119 -294 q 103 -292 113 -294 q 91 -289 94 -290 q 75 -285 88 -288 q 56 -281 61 -282 l 81 -134 q 104 -137 100 -137 q 175 -123 152 -137 q 209 -79 198 -110 l 225 -37 l -3 631 l 216 631 l 316 262 l 316 256 m 163 836 q 143 836 163 836 q 98 859 124 836 q 71 917 71 882 q 98 974 71 951 q 163 998 124 998 q 228 974 201 998 q 255 917 255 951 q 228 859 255 883 q 163 836 201 836 m 479 836 q 460 836 479 836 q 414 859 441 836 q 388 917 388 882 q 414 974 388 951 q 479 998 441 998 q 545 974 518 998 q 572 917 572 951 q 545 859 572 883 q 479 836 518 836 z "},"Ā":{"ha":852,"x_min":4,"x_max":800,"o":"m 593 0 l 542 173 l 262 173 l 212 0 l 4 0 l 291 888 l 513 888 l 800 0 l 593 0 m 400 650 l 308 332 l 496 332 l 404 650 l 400 650 m 663 1183 l 663 1078 l 214 1078 l 214 1183 l 663 1183 z "},"ā":{"ha":663,"x_min":24,"x_max":639,"o":"m 236 -14 q 83 40 141 -14 q 24 184 24 94 q 98 337 24 285 q 321 390 172 390 l 397 390 l 397 437 q 315 524 397 524 q 245 455 245 524 l 45 456 l 44 459 q 119 611 40 551 q 327 671 199 671 q 529 610 454 671 q 604 435 604 548 l 604 186 q 639 -1 604 87 l 435 -1 q 408 75 417 35 q 236 -14 344 -14 m 323 280 q 253 257 277 280 q 230 201 230 235 q 249 150 230 168 q 299 133 269 133 q 397 177 361 133 l 397 280 l 323 280 m 548 974 l 548 868 l 100 868 l 100 974 l 548 974 z "},"Ă":{"ha":852,"x_min":4,"x_max":800,"o":"m 593 0 l 542 173 l 262 173 l 212 0 l 4 0 l 291 888 l 513 888 l 800 0 l 593 0 m 400 650 l 308 332 l 496 332 l 404 650 l 400 650 m 528 1232 l 669 1232 q 608 1097 669 1148 q 443 1045 546 1045 q 279 1097 340 1045 q 218 1232 218 1148 l 357 1232 q 380 1175 357 1196 q 444 1155 403 1155 q 506 1175 484 1155 q 528 1232 528 1195 z "},"ă":{"ha":663,"x_min":25,"x_max":640,"o":"m 237 -14 q 83 40 142 -14 q 25 184 25 94 q 99 337 25 285 q 322 390 173 390 l 397 390 l 397 437 q 316 524 397 524 q 245 455 245 524 l 46 456 l 45 459 q 120 611 41 551 q 327 671 199 671 q 530 610 455 671 q 604 435 604 548 l 604 186 q 640 -1 604 87 l 436 -1 q 409 75 418 35 q 237 -14 345 -14 m 324 280 q 254 257 277 280 q 231 201 231 235 q 250 150 231 168 q 300 133 269 133 q 397 177 361 133 l 397 280 l 324 280 m 414 1022 l 555 1022 q 493 886 555 938 q 329 835 431 835 q 164 886 226 835 q 103 1022 103 938 l 243 1022 q 266 965 243 985 q 329 945 288 945 q 392 965 370 945 q 414 1022 414 985 z "},"Ą":{"ha":852,"x_min":-2,"x_max":854,"o":"m 425 611 l 330 302 l 521 302 l 425 611 m 700 -127 q 736 -165 700 -165 q 779 -154 756 -165 l 802 -256 q 695 -283 758 -283 q 593 -248 633 -283 q 553 -153 553 -213 q 622 -22 553 -73 l 572 138 l 278 138 l 227 -28 l -2 -28 l 324 861 l 526 860 l 854 -29 l 789 -29 q 720 -75 740 -54 q 700 -127 700 -96 z "},"ą":{"ha":663,"x_min":28,"x_max":636,"o":"m 235 170 q 253 124 235 142 q 305 106 272 106 q 364 122 338 106 q 401 161 390 138 l 401 266 l 342 266 q 235 170 235 266 m 411 31 q 256 -41 354 -41 q 93 16 157 -41 q 28 158 28 73 q 107 320 28 266 q 338 375 186 375 l 401 375 l 401 410 q 323 501 401 501 q 250 429 250 501 l 44 429 q 125 585 44 525 q 333 644 205 644 q 533 583 460 644 q 608 414 606 522 l 608 121 q 636 -18 608 31 l 636 -28 l 602 -28 q 534 -74 553 -53 q 514 -127 514 -96 q 551 -164 514 -164 q 592 -153 568 -164 l 615 -256 q 509 -283 571 -283 q 406 -248 446 -283 q 366 -152 366 -212 l 366 -151 q 429 -26 366 -75 q 411 31 418 -5 z "},"Ć":{"ha":821,"x_min":43,"x_max":759,"o":"m 758 307 q 665 67 751 149 q 414 -14 578 -14 q 146 87 249 -14 q 43 350 43 188 l 43 536 q 142 799 43 698 q 405 900 241 900 q 657 817 568 900 q 759 574 747 733 l 758 570 l 557 570 q 517 701 553 660 q 401 741 482 741 q 291 686 332 741 q 250 537 250 630 l 250 350 q 295 200 250 256 q 414 144 339 144 q 520 183 489 144 q 556 311 552 222 l 756 311 l 758 307 m 354 1039 l 474 1231 l 692 1231 l 522 1039 l 354 1039 z "},"ć":{"ha":650,"x_min":24,"x_max":611,"o":"m 230 321 q 254 189 230 234 q 337 144 279 144 q 419 233 419 144 l 608 233 l 609 230 q 535 54 611 122 q 337 -14 458 -14 q 107 77 189 -14 q 24 321 24 169 l 24 336 q 106 579 24 488 q 336 671 189 671 q 537 601 463 671 q 609 410 611 531 l 608 406 l 419 406 q 398 484 419 455 q 336 513 376 513 q 254 467 279 513 q 230 336 230 422 l 230 321 m 250 829 l 370 1021 l 587 1021 l 418 829 l 250 829 z "},"Č":{"ha":821,"x_min":43,"x_max":759,"o":"m 758 307 q 665 67 751 149 q 414 -14 578 -14 q 146 87 249 -14 q 43 350 43 188 l 43 536 q 142 799 43 698 q 405 900 241 900 q 657 817 568 900 q 759 574 747 733 l 758 570 l 557 570 q 517 701 553 660 q 401 741 482 741 q 291 686 332 741 q 250 537 250 630 l 250 350 q 295 200 250 256 q 414 144 339 144 q 520 183 489 144 q 556 311 552 222 l 756 311 l 758 307 m 696 1233 l 696 1226 l 497 1053 l 365 1053 l 165 1227 l 165 1233 l 342 1233 l 431 1151 l 521 1233 l 696 1233 z "},"č":{"ha":650,"x_min":24,"x_max":611,"o":"m 230 321 q 254 189 230 234 q 337 144 279 144 q 419 233 419 144 l 608 233 l 609 230 q 535 54 611 122 q 337 -14 458 -14 q 107 77 189 -14 q 24 321 24 169 l 24 336 q 106 579 24 488 q 336 671 189 671 q 537 601 463 671 q 609 410 611 531 l 608 406 l 419 406 q 398 484 419 455 q 336 513 376 513 q 254 467 279 513 q 230 336 230 422 l 230 321 m 591 1023 l 591 1016 l 393 843 l 260 843 l 60 1017 l 60 1023 l 237 1023 l 327 941 l 416 1023 l 591 1023 z "},"Ď":{"ha":808,"x_min":24,"x_max":755,"o":"m 373 730 l 273 730 l 273 159 l 373 159 q 502 215 455 159 q 549 364 549 271 l 549 526 q 502 674 549 619 q 373 730 455 730 m 387 0 l 66 0 l 66 888 l 387 888 q 651 786 546 888 q 755 524 755 684 l 755 364 q 651 102 755 205 q 387 0 546 0 m 555 1233 l 555 1226 l 356 1053 l 224 1053 l 24 1227 l 24 1233 l 201 1233 l 290 1151 l 380 1233 l 555 1233 z "},"ď":{"ha":795,"x_min":27,"x_max":641,"o":"m 285 671 q 434 590 374 671 l 434 951 l 641 951 l 641 -1 l 462 -1 l 447 80 q 284 -14 385 -14 q 96 75 163 -14 q 28 315 28 163 l 27 328 q 95 578 27 486 q 285 671 163 671 m 234 328 l 234 315 q 258 188 234 231 q 336 144 282 144 q 434 191 403 144 l 434 458 q 338 513 401 513 q 234 328 234 513 z "},"Đ":{"ha":827,"x_min":-18,"x_max":784,"o":"m 428 504 l 428 388 l 300 388 l 300 165 l 375 165 q 517 231 468 165 q 566 425 566 296 l 566 464 q 372 724 566 724 l 300 724 l 300 504 l 428 504 m 378 0 l 86 0 l 86 388 l -18 388 l -18 504 l 86 504 l 86 888 l 372 888 q 584 836 491 888 q 730 686 677 783 q 784 467 783 589 l 784 425 q 733 207 784 302 q 587 55 682 111 q 378 0 493 0 z "},"đ":{"ha":722,"x_min":31,"x_max":729,"o":"m 729 857 l 729 741 l 644 741 l 644 -1 l 458 -1 l 448 69 q 287 -14 385 -14 q 99 77 167 -14 q 31 330 31 168 q 99 582 31 492 q 288 671 167 671 q 437 602 378 671 l 437 741 l 283 741 l 283 857 l 437 857 l 437 936 l 644 936 l 644 857 l 729 857 m 340 145 q 437 203 410 145 l 437 454 q 341 513 410 513 q 238 359 246 513 l 237 321 q 340 145 237 145 z "},"Ē":{"ha":699,"x_min":63,"x_max":682,"o":"m 618 539 l 618 380 l 270 380 l 270 159 l 680 159 l 680 0 l 63 0 l 63 888 l 682 888 l 682 730 l 270 730 l 270 539 l 618 539 m 618 1183 l 618 1078 l 170 1078 l 170 1183 l 618 1183 z "},"ē":{"ha":681,"x_min":36,"x_max":628,"o":"m 427 410 q 341 513 427 513 q 248 397 258 513 l 250 393 l 427 393 l 427 410 m 616 60 l 616 60 l 616 60 m 546 975 l 546 869 l 98 869 l 98 975 l 546 975 m 36 307 l 36 331 q 117 579 36 486 q 341 672 197 673 q 552 592 475 672 q 628 373 628 512 l 628 264 l 251 264 l 250 261 q 292 176 256 208 q 384 144 327 144 q 474 153 440 144 q 567 185 508 161 l 616 60 q 502 7 570 27 q 356 -14 433 -14 q 124 77 212 -14 q 36 307 36 167 z "},"Ė":{"ha":699,"x_min":62,"x_max":681,"o":"m 618 539 l 618 380 l 269 380 l 269 159 l 680 159 l 680 0 l 62 0 l 62 888 l 681 888 l 681 730 l 269 730 l 269 539 l 618 539 m 510 1151 q 510 1131 510 1151 q 481 1086 510 1112 q 409 1061 453 1061 q 337 1086 366 1061 q 308 1151 308 1112 q 336 1215 308 1190 q 409 1240 365 1240 q 482 1215 454 1240 q 510 1151 510 1190 z "},"ė":{"ha":681,"x_min":36,"x_max":628,"o":"m 427 410 q 341 513 427 513 q 248 397 258 513 l 250 393 l 427 393 l 427 410 m 616 60 l 616 60 l 616 60 m 439 941 q 439 922 439 941 q 410 877 439 902 q 338 852 382 852 q 266 877 294 852 q 237 941 237 902 q 265 1006 237 981 q 338 1031 294 1031 q 411 1006 382 1031 q 439 941 439 981 m 36 307 l 36 331 q 117 579 36 486 q 341 672 197 673 q 552 592 475 672 q 628 373 628 512 l 628 264 l 251 264 l 250 261 q 292 176 256 208 q 384 144 327 144 q 474 153 440 144 q 567 185 508 161 l 616 60 q 502 7 570 27 q 356 -14 433 -14 q 124 77 212 -14 q 36 307 36 167 z "},"Ę":{"ha":699,"x_min":67,"x_max":681,"o":"m 282 349 l 282 136 l 680 136 l 680 -28 l 561 -28 q 492 -74 512 -53 q 473 -127 473 -96 q 509 -164 473 -164 q 551 -153 527 -164 l 574 -256 q 467 -283 530 -283 q 365 -248 405 -283 q 324 -152 324 -212 q 385 -28 324 -76 l 67 -28 l 67 861 l 681 861 l 681 695 l 281 695 l 281 508 l 618 508 l 619 349 l 282 349 z "},"ę":{"ha":681,"x_min":37,"x_max":656,"o":"m 355 488 q 248 368 264 488 l 455 368 l 455 385 q 430 461 456 435 q 355 488 404 488 m 450 -103 q 486 -140 450 -140 q 528 -130 504 -140 l 551 -232 q 444 -259 507 -259 q 341 -224 381 -259 q 301 -131 301 -189 q 331 -36 301 -73 q 117 66 197 -22 q 37 288 37 154 l 37 306 q 75 485 37 408 q 185 605 113 562 q 355 647 257 647 q 576 561 496 647 q 656 319 656 474 l 656 239 l 247 239 q 295 152 258 183 q 391 121 332 121 q 544 189 488 121 l 639 78 q 536 -4 604 28 l 538 -5 q 469 -51 489 -29 q 450 -103 450 -72 z "},"Ě":{"ha":699,"x_min":63,"x_max":682,"o":"m 618 539 l 618 380 l 270 380 l 270 159 l 680 159 l 680 0 l 63 0 l 63 888 l 682 888 l 682 730 l 270 730 l 270 539 l 618 539 m 661 1233 l 661 1226 l 462 1053 l 330 1053 l 130 1227 l 130 1233 l 307 1233 l 396 1151 l 486 1233 l 661 1233 z "},"ě":{"ha":681,"x_min":36,"x_max":628,"o":"m 427 410 q 341 513 427 513 q 248 397 258 513 l 250 393 l 427 393 l 427 410 m 616 60 l 616 60 l 616 60 m 589 1023 l 589 1017 l 390 844 l 258 844 l 58 1018 l 58 1023 l 235 1023 l 324 941 l 414 1023 l 589 1023 m 36 307 l 36 331 q 117 579 36 486 q 341 672 197 673 q 552 592 475 672 q 628 373 628 512 l 628 264 l 251 264 l 250 261 q 292 176 256 208 q 384 144 327 144 q 474 153 440 144 q 567 185 508 161 l 616 60 q 502 7 570 27 q 356 -14 433 -14 q 124 77 212 -14 q 36 307 36 167 z "},"Ğ":{"ha":852,"x_min":48,"x_max":766,"o":"m 766 455 l 766 121 q 628 24 715 62 q 419 -14 541 -14 q 151 87 254 -14 q 48 350 48 188 l 48 536 q 148 799 48 697 q 411 900 248 900 q 662 823 574 900 q 761 604 749 747 l 760 600 l 566 600 q 520 707 556 673 q 413 741 485 741 q 298 685 342 741 q 254 537 254 628 l 254 350 q 298 200 254 256 q 419 144 341 144 q 559 178 518 144 l 559 319 l 419 319 l 419 455 l 766 455 m 530 1232 l 671 1232 q 609 1097 671 1148 q 445 1045 547 1045 q 280 1097 342 1045 q 219 1232 219 1148 l 359 1232 q 381 1175 359 1196 q 445 1155 404 1155 q 508 1175 486 1155 q 530 1232 530 1195 z "},"ğ":{"ha":719,"x_min":27,"x_max":640,"o":"m 284 643 q 445 548 384 643 l 458 631 l 640 631 l 640 -4 q 549 -217 640 -137 q 304 -296 458 -296 q 90 -245 198 -296 l 123 -92 q 303 -130 213 -130 q 400 -97 366 -130 q 433 -3 433 -63 l 433 31 q 283 -43 376 -43 q 95 46 163 -43 q 28 287 28 136 l 27 299 q 95 550 27 457 q 284 643 162 643 m 233 299 l 233 287 q 336 116 233 116 q 433 159 403 116 l 433 435 q 337 484 403 484 q 233 299 233 484 m 426 1022 l 567 1022 q 505 886 567 938 q 341 835 444 835 q 177 886 238 835 q 115 1022 115 938 l 255 1022 q 278 965 255 985 q 341 945 300 945 q 404 965 382 945 q 426 1022 426 985 z "},"Ģ":{"ha":852,"x_min":49,"x_max":767,"o":"m 767 455 l 767 121 q 629 24 716 62 q 420 -14 541 -14 q 152 87 254 -14 q 49 350 49 188 l 49 536 q 149 799 49 697 q 412 900 249 900 q 662 823 575 900 q 762 604 749 747 l 761 600 l 567 600 q 521 707 557 673 q 414 741 486 741 q 299 685 342 741 q 255 537 255 628 l 255 350 q 298 200 255 256 q 420 144 342 144 q 560 178 519 144 l 560 319 l 420 319 l 420 455 l 767 455 z "},"ģ":{"ha":719,"x_min":27,"x_max":640,"o":"m 284 643 q 445 548 384 643 l 458 631 l 640 631 l 640 -4 q 549 -217 640 -137 q 304 -296 458 -296 q 90 -245 198 -296 l 123 -92 q 303 -130 213 -130 q 400 -97 366 -130 q 433 -3 433 -63 l 433 31 q 283 -43 376 -43 q 95 46 163 -43 q 28 287 28 136 l 27 299 q 95 550 27 457 q 284 643 162 643 m 233 299 l 233 287 q 336 116 233 116 q 433 159 403 116 l 433 435 q 337 484 403 484 q 233 299 233 484 z "},"Ī":{"ha":377,"x_min":-45,"x_max":403,"o":"m 294 888 l 294 0 l 88 0 l 88 888 l 294 888 m 403 1183 l 403 1078 l -45 1078 l -45 1183 l 403 1183 z "},"ī":{"ha":357,"x_min":-56,"x_max":393,"o":"m 287 661 l 287 0 l 80 0 l 80 661 l 287 661 m 393 960 l 393 854 l -56 854 l -56 960 l 393 960 z "},"Į":{"ha":377,"x_min":14,"x_max":288,"o":"m 263 -256 q 156 -283 219 -283 q 54 -248 94 -283 q 14 -152 14 -212 q 119 0 14 -54 l 81 0 l 81 888 l 288 888 l 288 0 l 161 0 l 250 -28 q 181 -74 201 -53 q 161 -127 161 -96 q 197 -164 161 -164 q 239 -153 217 -164 l 263 -256 z "},"į":{"ha":344,"x_min":3,"x_max":274,"o":"m 253 -256 q 146 -283 209 -283 q 43 -248 83 -283 q 3 -152 3 -212 q 109 0 3 -54 l 67 0 l 67 661 l 274 661 l 274 0 l 151 0 l 239 -28 q 171 -74 191 -53 q 151 -127 151 -96 q 187 -164 151 -164 q 229 -153 207 -164 l 253 -256 m 274 952 l 274 814 l 67 814 l 67 952 l 274 952 z "},"İ":{"ha":377,"x_min":75,"x_max":281,"o":"m 281 888 l 281 0 l 75 0 l 75 888 l 281 888 m 281 1151 q 281 1131 281 1151 q 253 1086 281 1112 q 181 1061 224 1061 q 108 1086 137 1061 q 79 1151 79 1112 q 108 1215 79 1190 q 181 1240 136 1240 q 253 1215 225 1240 q 281 1151 281 1190 z "},"ı":{"ha":357,"x_min":75,"x_max":282,"o":"m 282 661 l 282 0 l 75 0 l 75 661 l 282 661 z "},"Ķ":{"ha":800,"x_min":62,"x_max":814,"o":"m 269 357 l 269 0 l 62 0 l 62 888 l 269 888 l 269 541 l 339 541 l 534 888 l 791 888 l 515 486 l 814 0 l 564 0 l 364 357 l 269 357 z "},"ķ":{"ha":684,"x_min":52,"x_max":695,"o":"m 258 262 l 258 0 l 52 0 l 52 952 l 258 952 l 258 418 l 286 418 l 427 661 l 663 661 l 458 362 l 695 0 l 460 0 l 293 262 l 258 262 z "},"Ĺ":{"ha":677,"x_min":62,"x_max":652,"o":"m 269 888 l 269 159 l 652 159 l 652 0 l 62 0 l 62 888 l 269 888 m 83 1039 l 203 1231 l 421 1231 l 252 1039 l 83 1039 z "},"ĺ":{"ha":344,"x_min":61,"x_max":411,"o":"m 268 952 l 268 0 l 61 0 l 61 952 l 268 952 m 73 1091 l 193 1283 l 411 1283 l 241 1091 l 73 1091 z "},"Ļ":{"ha":677,"x_min":62,"x_max":652,"o":"m 269 888 l 269 159 l 652 159 l 652 0 l 62 0 l 62 888 l 269 888 z "},"ļ":{"ha":344,"x_min":61,"x_max":268,"o":"m 268 952 l 268 0 l 61 0 l 61 952 l 268 952 z "},"Ľ":{"ha":677,"x_min":62,"x_max":652,"o":"m 269 888 l 269 159 l 652 159 l 652 0 l 62 0 l 62 888 l 269 888 z "},"ľ":{"ha":435,"x_min":60,"x_max":267,"o":"m 267 952 l 267 0 l 60 0 l 60 952 l 267 952 z "},"Ł":{"ha":708,"x_min":16,"x_max":686,"o":"m 313 888 l 313 558 l 431 590 l 431 481 l 313 449 l 313 165 l 686 165 l 686 0 l 98 0 l 98 390 l 16 368 l 16 476 l 98 498 l 98 888 l 313 888 z "},"ł":{"ha":404,"x_min":16,"x_max":384,"o":"m 302 937 l 302 565 l 384 590 l 384 480 l 302 455 l 302 0 l 95 0 l 95 391 l 16 366 l 16 476 l 95 500 l 95 937 l 302 937 z "},"Ń":{"ha":878,"x_min":63,"x_max":804,"o":"m 804 888 l 804 0 l 599 0 l 273 566 l 270 565 l 270 0 l 63 0 l 63 888 l 270 888 l 595 322 l 599 323 l 599 888 l 804 888 m 375 1039 l 495 1231 l 713 1231 l 543 1039 l 375 1039 z "},"ń":{"ha":705,"x_min":49,"x_max":643,"o":"m 49 661 l 242 661 l 250 568 q 437 673 319 673 q 643 410 643 673 l 643 0 l 437 0 l 437 410 q 414 490 437 466 q 340 514 391 514 q 254 475 290 514 l 254 0 l 49 0 l 49 661 m 275 829 l 395 1021 l 612 1021 l 443 829 l 275 829 z "},"Ņ":{"ha":878,"x_min":62,"x_max":804,"o":"m 804 888 l 804 0 l 598 0 l 273 566 l 269 565 l 269 0 l 62 0 l 62 888 l 269 888 l 594 322 l 598 323 l 598 888 l 804 888 z "},"ņ":{"ha":705,"x_min":49,"x_max":643,"o":"m 49 661 l 242 661 l 250 568 q 437 673 319 673 q 643 410 643 673 l 643 0 l 437 0 l 437 410 q 414 490 437 466 q 340 514 391 514 q 254 475 290 514 l 254 0 l 49 0 l 49 661 z "},"Ň":{"ha":878,"x_min":62,"x_max":804,"o":"m 804 888 l 804 0 l 598 0 l 273 566 l 269 565 l 269 0 l 62 0 l 62 888 l 269 888 l 594 322 l 598 323 l 598 888 l 804 888 m 716 1233 l 716 1226 l 517 1053 l 385 1053 l 185 1227 l 185 1233 l 362 1233 l 452 1151 l 541 1233 l 716 1233 z "},"ň":{"ha":705,"x_min":49,"x_max":643,"o":"m 49 661 l 242 661 l 250 568 q 437 673 319 673 q 643 410 643 673 l 643 0 l 437 0 l 437 410 q 414 490 437 466 q 340 514 391 514 q 254 475 290 514 l 254 0 l 49 0 l 49 661 m 616 1023 l 616 1016 l 418 843 l 286 843 l 85 1017 l 85 1023 l 262 1023 l 352 941 l 441 1023 l 616 1023 z "},"Ō":{"ha":863,"x_min":45,"x_max":800,"o":"m 595 363 l 595 524 q 549 682 595 622 q 422 741 504 741 q 296 682 341 741 q 251 524 251 623 l 251 363 q 297 204 251 264 q 424 144 342 144 q 550 204 505 144 q 595 363 595 264 m 800 523 l 800 363 q 696 92 800 197 q 424 -14 592 -14 q 151 92 256 -14 q 45 363 45 197 l 45 523 q 93 717 45 631 q 226 851 140 803 q 423 900 313 900 q 695 794 591 900 q 800 523 800 688 m 662 1183 l 662 1078 l 214 1078 l 214 1183 l 662 1183 z "},"ō":{"ha":702,"x_min":28,"x_max":667,"o":"m 234 335 l 234 322 q 348 144 234 144 q 461 322 461 144 l 461 335 q 348 513 461 513 q 234 335 234 513 m 28 322 l 28 335 q 113 579 28 487 q 347 671 197 671 q 582 579 497 671 q 667 335 667 487 l 667 322 q 582 78 667 170 q 347 -14 497 -14 q 113 77 197 -14 q 28 322 28 169 m 576 974 l 576 868 l 127 868 l 127 974 l 576 974 z "},"Ő":{"ha":863,"x_min":45,"x_max":800,"o":"m 595 363 l 595 524 q 549 682 595 622 q 422 741 504 741 q 296 682 341 741 q 251 524 251 623 l 251 363 q 297 204 251 264 q 424 144 342 144 q 550 204 505 144 q 595 363 595 264 m 800 523 l 800 363 q 696 92 800 197 q 424 -14 592 -14 q 151 92 256 -14 q 45 363 45 197 l 45 523 q 93 717 45 631 q 226 851 140 803 q 423 900 313 900 q 695 794 591 900 q 800 523 800 688 m 483 1048 l 621 1231 l 790 1231 l 627 1048 l 483 1048 m 245 1048 l 366 1231 l 537 1231 l 392 1048 l 245 1048 z "},"ő":{"ha":702,"x_min":28,"x_max":704,"o":"m 234 335 l 234 322 q 348 144 234 144 q 461 322 461 144 l 461 335 q 348 513 461 513 q 234 335 234 513 m 28 322 l 28 335 q 113 579 28 487 q 347 671 197 671 q 582 579 497 671 q 667 335 667 487 l 667 322 q 582 78 667 170 q 347 -14 497 -14 q 113 77 197 -14 q 28 322 28 169 m 397 838 l 534 1021 l 704 1021 l 541 838 l 397 838 m 159 838 l 280 1021 l 451 1021 l 306 838 l 159 838 z "},"Œ":{"ha":1217,"x_min":56,"x_max":1172,"o":"m 261 349 l 262 349 q 309 196 262 248 q 440 144 355 144 q 557 152 505 144 l 557 732 q 438 740 500 740 q 308 689 354 740 q 261 536 261 637 l 261 349 m 439 -14 q 240 31 327 -14 q 104 161 153 77 q 56 350 56 245 l 56 536 q 104 725 56 642 q 240 854 152 808 q 439 899 325 899 q 616 887 514 899 l 1172 887 l 1172 722 l 772 722 l 772 534 l 1109 534 l 1109 375 l 772 375 l 772 163 l 1171 163 l 1169 -2 l 615 -2 q 439 -14 513 -14 z "},"œ":{"ha":1126,"x_min":46,"x_max":1078,"o":"m 368 145 q 481 313 477 145 l 481 335 q 366 513 481 513 q 254 359 262 513 l 254 322 q 368 145 254 145 m 878 409 l 878 409 q 792 513 878 513 q 695 393 710 513 l 878 393 l 878 409 m 366 671 q 583 595 498 671 q 794 672 663 672 q 1002 591 926 671 q 1078 369 1078 511 l 1078 264 l 695 264 q 742 176 706 208 q 834 145 779 145 q 968 167 911 145 l 1015 186 l 1064 60 q 949 7 1019 27 q 805 -14 880 -14 q 586 64 674 -14 q 362 -14 500 -14 q 138 70 224 -14 q 46 300 53 154 l 47 335 q 86 512 47 435 q 197 630 124 588 q 366 671 270 671 z "},"Ŕ":{"ha":815,"x_min":63,"x_max":796,"o":"m 270 1 l 63 1 l 63 890 l 405 890 q 650 819 560 890 q 740 623 740 747 q 596 424 740 487 q 713 348 676 401 q 749 212 749 295 l 749 156 q 761 72 749 114 q 796 12 772 30 l 796 0 l 583 0 q 544 156 544 31 l 544 210 q 510 307 544 274 q 412 340 477 340 l 270 342 l 270 1 m 270 730 l 270 499 l 406 499 q 501 527 468 499 q 534 610 534 555 q 500 697 534 665 q 405 730 466 730 l 270 730 m 284 1039 l 404 1231 l 622 1231 l 452 1039 l 284 1039 z "},"ŕ":{"ha":473,"x_min":52,"x_max":500,"o":"m 258 0 l 52 0 l 52 661 l 246 661 l 253 564 q 389 673 298 673 q 446 665 421 673 l 425 479 l 350 479 q 258 433 281 479 l 258 0 m 163 829 l 283 1021 l 500 1021 l 331 829 l 163 829 z "},"Ŗ":{"ha":815,"x_min":62,"x_max":795,"o":"m 269 1 l 62 1 l 62 890 l 404 890 q 649 819 559 890 q 739 623 739 747 q 595 424 739 487 q 712 348 675 401 q 749 212 749 295 l 749 156 q 760 72 749 114 q 795 12 772 30 l 795 0 l 583 0 q 543 156 543 31 l 543 210 q 510 307 543 274 q 411 340 476 340 l 269 342 l 269 1 m 269 730 l 269 499 l 405 499 q 500 527 467 499 q 533 610 533 555 q 499 697 533 665 q 404 730 465 730 l 269 730 z "},"ŗ":{"ha":473,"x_min":51,"x_max":445,"o":"m 258 0 l 51 0 l 51 661 l 245 661 l 252 564 q 388 673 297 673 q 445 665 420 673 l 424 479 l 349 479 q 258 433 280 479 l 258 0 z "},"Ř":{"ha":815,"x_min":62,"x_max":795,"o":"m 269 1 l 62 1 l 62 890 l 404 890 q 649 819 559 890 q 739 623 739 747 q 595 424 739 487 q 712 348 675 401 q 749 212 749 295 l 749 156 q 760 72 749 114 q 795 12 772 30 l 795 0 l 583 0 q 543 156 543 31 l 543 210 q 510 307 543 274 q 411 340 476 340 l 269 342 l 269 1 m 269 730 l 269 499 l 405 499 q 500 527 467 499 q 533 610 533 555 q 499 697 533 665 q 404 730 465 730 l 269 730 m 625 1233 l 625 1226 l 427 1053 l 294 1053 l 94 1227 l 94 1233 l 271 1233 l 361 1151 l 450 1233 l 625 1233 z "},"ř":{"ha":473,"x_min":-18,"x_max":513,"o":"m 266 0 l 59 0 l 59 661 l 254 661 l 260 564 q 396 673 305 673 q 453 665 429 673 l 432 479 l 357 479 q 266 433 288 479 l 266 0 m 513 1023 l 513 1016 l 314 843 l 182 843 l -18 1017 l -18 1023 l 159 1023 l 248 941 l 338 1023 l 513 1023 z "},"Ś":{"ha":783,"x_min":39,"x_max":744,"o":"m 410 142 l 410 141 q 505 166 473 141 q 537 235 537 191 q 508 306 537 280 q 395 361 478 331 q 139 479 214 418 q 64 651 64 541 q 159 831 64 762 q 405 900 255 900 q 649 824 555 900 q 739 629 743 748 l 738 625 l 538 625 q 502 712 538 680 q 403 745 465 745 q 305 718 341 745 q 269 651 269 690 q 303 588 269 612 q 439 528 337 564 q 671 414 597 481 q 744 233 744 348 q 653 52 744 119 q 410 -14 563 -14 q 224 19 307 -14 q 90 120 140 52 q 41 281 39 188 l 42 284 l 243 284 q 284 175 243 209 q 410 142 324 142 m 334 1039 l 454 1231 l 672 1231 l 503 1039 l 334 1039 z "},"ś":{"ha":640,"x_min":19,"x_max":599,"o":"m 316 122 l 316 123 q 400 185 400 123 q 371 230 400 211 q 271 263 342 248 q 96 334 153 286 q 39 467 39 381 q 113 612 39 553 q 315 671 187 671 q 520 613 442 671 q 595 460 599 554 l 593 456 l 393 456 q 373 516 393 496 q 315 536 353 536 q 255 518 277 536 q 233 473 233 500 q 260 427 233 445 q 361 395 288 410 q 542 323 485 371 q 599 188 599 276 q 519 43 599 100 q 310 -14 440 -14 q 99 52 180 -14 q 22 207 19 119 l 24 210 l 210 210 q 316 122 213 122 m 232 829 l 352 1021 l 570 1021 l 400 829 l 232 829 z "},"Š":{"ha":783,"x_min":39,"x_max":744,"o":"m 410 142 l 410 141 q 505 166 473 141 q 537 235 537 191 q 508 306 537 280 q 395 361 478 331 q 139 479 214 418 q 64 651 64 541 q 159 831 64 762 q 405 900 255 900 q 649 824 555 900 q 739 629 743 748 l 738 625 l 538 625 q 502 712 538 680 q 403 745 465 745 q 305 718 341 745 q 269 651 269 690 q 303 588 269 612 q 439 528 337 564 q 671 414 597 481 q 744 233 744 348 q 653 52 744 119 q 410 -14 563 -14 q 224 19 307 -14 q 90 120 140 52 q 41 281 39 188 l 42 284 l 243 284 q 284 175 243 209 q 410 142 324 142 m 676 1233 l 676 1226 l 477 1053 l 345 1053 l 145 1227 l 145 1233 l 322 1233 l 412 1151 l 501 1233 l 676 1233 z "},"š":{"ha":640,"x_min":19,"x_max":599,"o":"m 316 122 l 316 123 q 400 185 400 123 q 371 230 400 211 q 271 263 342 248 q 96 334 153 286 q 39 467 39 381 q 113 612 39 553 q 315 671 187 671 q 520 613 442 671 q 595 460 599 554 l 593 456 l 393 456 q 373 516 393 496 q 315 536 353 536 q 255 518 277 536 q 233 473 233 500 q 260 427 233 445 q 361 395 288 410 q 542 323 485 371 q 599 188 599 276 q 519 43 599 100 q 310 -14 440 -14 q 99 52 180 -14 q 22 207 19 119 l 24 210 l 210 210 q 316 122 213 122 m 574 1023 l 574 1016 l 375 843 l 243 843 l 43 1017 l 43 1023 l 220 1023 l 309 941 l 399 1023 l 574 1023 z "},"Ť":{"ha":788,"x_min":13,"x_max":687,"o":"m 687 888 l 687 730 l 452 730 l 452 0 l 245 0 l 245 730 l 13 730 l 13 888 l 687 888 m 660 1233 l 660 1226 l 461 1053 l 329 1053 l 129 1227 l 129 1233 l 306 1233 l 395 1151 l 485 1233 l 660 1233 z "},"ť":{"ha":454,"x_min":3,"x_max":430,"o":"m 96 823 l 302 823 l 302 659 l 414 659 l 414 516 l 302 516 l 302 214 q 355 147 302 147 q 415 153 389 147 l 430 1 q 303 -14 366 -14 q 148 41 199 -14 q 96 212 96 96 l 96 516 l 3 516 l 3 659 l 96 659 l 96 823 z "},"Ū":{"ha":831,"x_min":58,"x_max":791,"o":"m 585 887 l 791 887 l 791 305 q 692 70 791 155 q 425 -14 593 -14 q 157 70 257 -14 q 58 305 58 155 l 58 887 l 264 887 l 264 305 q 306 184 264 224 q 426 144 348 144 q 585 305 585 144 l 585 887 m 639 1183 l 639 1078 l 191 1078 l 191 1183 l 639 1183 z "},"ū":{"ha":705,"x_min":47,"x_max":642,"o":"m 266 -14 q 104 53 161 -14 q 47 256 47 119 l 47 659 l 253 659 l 253 255 q 334 144 253 144 q 435 181 400 144 l 435 659 l 642 659 l 642 -1 l 461 -1 l 448 77 q 266 -14 382 -14 m 573 974 l 573 868 l 125 868 l 125 974 l 573 974 z "},"Ů":{"ha":831,"x_min":58,"x_max":791,"o":"m 585 887 l 791 887 l 791 305 q 692 70 791 155 q 425 -14 593 -14 q 157 70 257 -14 q 58 305 58 155 l 58 887 l 264 887 l 264 305 q 306 184 264 224 q 426 144 348 144 q 585 305 585 144 l 585 887 m 429 1224 q 415 1224 429 1224 q 383 1206 400 1224 q 366 1160 366 1187 q 383 1114 366 1132 q 429 1096 400 1096 q 475 1114 458 1096 q 492 1160 492 1132 q 475 1206 492 1187 q 429 1224 458 1224 m 566 1160 q 566 1134 566 1160 q 527 1073 566 1107 q 429 1038 488 1038 q 331 1072 370 1038 q 292 1159 292 1107 q 331 1247 292 1212 q 429 1283 371 1283 q 526 1247 486 1283 q 566 1160 566 1212 z "},"ů":{"ha":705,"x_min":47,"x_max":642,"o":"m 266 -14 q 104 53 161 -14 q 47 256 47 119 l 47 659 l 253 659 l 253 255 q 334 144 253 144 q 435 181 400 144 l 435 659 l 642 659 l 642 -1 l 461 -1 l 448 77 q 266 -14 382 -14 m 363 1014 q 349 1014 363 1014 q 317 996 334 1014 q 300 949 300 977 q 317 904 300 922 q 363 886 334 886 q 409 904 392 886 q 426 949 426 922 q 409 996 426 977 q 363 1014 392 1014 m 500 949 q 500 923 500 949 q 461 862 500 897 q 363 827 422 827 q 265 862 304 827 q 226 949 226 897 q 266 1037 226 1002 q 363 1073 305 1073 q 460 1037 420 1073 q 500 949 500 1002 z "},"Ű":{"ha":831,"x_min":58,"x_max":791,"o":"m 585 887 l 791 887 l 791 305 q 692 70 791 155 q 425 -14 593 -14 q 157 70 257 -14 q 58 305 58 155 l 58 887 l 264 887 l 264 305 q 306 184 264 224 q 426 144 348 144 q 585 305 585 144 l 585 887 m 460 1048 l 597 1231 l 767 1231 l 604 1048 l 460 1048 m 222 1048 l 343 1231 l 514 1231 l 369 1048 l 222 1048 z "},"ű":{"ha":705,"x_min":47,"x_max":701,"o":"m 266 -14 q 104 53 161 -14 q 47 256 47 119 l 47 659 l 253 659 l 253 255 q 334 144 253 144 q 435 181 400 144 l 435 659 l 642 659 l 642 -1 l 461 -1 l 448 77 q 266 -14 382 -14 m 394 838 l 532 1021 l 701 1021 l 538 838 l 394 838 m 157 838 l 277 1021 l 448 1021 l 303 838 l 157 838 z "},"Ų":{"ha":831,"x_min":64,"x_max":764,"o":"m 550 865 l 764 865 l 764 284 q 639 24 763 107 l 642 23 q 573 -23 593 -1 q 553 -75 553 -44 q 589 -113 553 -113 q 632 -102 608 -113 l 655 -204 q 548 -231 611 -231 q 446 -196 486 -231 q 406 -100 406 -161 q 418 -35 406 -66 q 158 50 251 -35 q 64 287 64 135 l 64 865 l 279 865 l 279 275 q 415 130 283 130 q 516 167 483 130 q 550 285 550 204 l 550 865 z "},"ų":{"ha":705,"x_min":54,"x_max":650,"o":"m 650 -28 l 624 -28 q 555 -74 575 -53 q 535 -127 535 -96 q 572 -164 535 -164 q 614 -153 591 -164 l 637 -256 q 531 -283 593 -283 q 428 -248 468 -283 q 388 -152 388 -212 q 456 -22 388 -73 l 451 43 q 276 -41 386 -41 q 110 22 166 -41 q 54 204 54 85 l 54 632 l 260 632 l 260 203 q 342 118 260 118 q 443 169 414 118 l 443 632 l 650 632 l 650 -28 z "},"Ÿ":{"ha":785,"x_min":-2,"x_max":802,"o":"m 500 0 l 294 0 l 294 323 l -2 888 l 221 888 l 397 500 l 401 500 l 578 888 l 802 888 l 500 313 l 500 0 m 241 1046 q 221 1046 241 1046 q 176 1069 202 1046 q 149 1127 149 1093 q 176 1184 149 1161 q 241 1208 202 1208 q 306 1184 279 1208 q 333 1127 333 1161 q 306 1069 333 1093 q 241 1046 279 1046 m 557 1046 q 538 1046 557 1046 q 492 1069 519 1046 q 466 1127 466 1093 q 492 1184 466 1161 q 557 1208 519 1208 q 623 1184 596 1208 q 650 1127 650 1161 q 623 1069 650 1093 q 557 1046 596 1046 z "},"Ź":{"ha":762,"x_min":35,"x_max":695,"o":"m 695 159 l 695 0 l 37 0 l 37 93 l 434 730 l 35 730 l 35 888 l 690 888 l 690 800 l 291 159 l 695 159 m 317 1039 l 437 1231 l 654 1231 l 485 1039 l 317 1039 z "},"ź":{"ha":644,"x_min":36,"x_max":597,"o":"m 597 159 l 597 0 l 36 0 l 36 115 l 329 502 l 48 502 l 48 661 l 591 661 l 591 549 l 296 159 l 597 159 m 242 829 l 362 1021 l 580 1021 l 410 829 l 242 829 z "},"Ż":{"ha":762,"x_min":35,"x_max":695,"o":"m 695 159 l 695 0 l 37 0 l 37 93 l 434 730 l 35 730 l 35 888 l 690 888 l 690 800 l 291 159 l 695 159 m 509 1151 q 509 1131 509 1151 q 480 1086 509 1112 q 408 1061 452 1061 q 335 1086 364 1061 q 307 1151 307 1112 q 335 1215 307 1190 q 408 1240 363 1240 q 480 1215 452 1240 q 509 1151 509 1190 z "},"ż":{"ha":644,"x_min":36,"x_max":597,"o":"m 597 159 l 597 0 l 36 0 l 36 115 l 329 502 l 48 502 l 48 661 l 591 661 l 591 549 l 296 159 l 597 159 m 434 941 q 434 921 434 941 q 406 876 434 901 q 333 851 377 851 q 261 876 290 851 q 232 941 232 901 q 260 1005 232 980 q 333 1030 289 1030 q 406 1005 378 1030 q 434 941 434 980 z "},"Ž":{"ha":762,"x_min":35,"x_max":695,"o":"m 695 159 l 695 0 l 37 0 l 37 93 l 434 730 l 35 730 l 35 888 l 690 888 l 690 800 l 291 159 l 695 159 m 659 1233 l 659 1226 l 460 1053 l 328 1053 l 127 1227 l 127 1233 l 304 1233 l 394 1151 l 484 1233 l 659 1233 z "},"ž":{"ha":644,"x_min":36,"x_max":597,"o":"m 597 159 l 597 0 l 36 0 l 36 115 l 329 502 l 48 502 l 48 661 l 591 661 l 591 549 l 296 159 l 597 159 m 584 1023 l 584 1016 l 385 843 l 253 843 l 53 1017 l 53 1023 l 230 1023 l 319 941 l 409 1023 l 584 1023 z "},"ƒ":{"ha":463,"x_min":-25,"x_max":467,"o":"m 73 -296 q -25 -286 24 -296 l -16 -130 q 39 -138 4 -138 q 88 -119 73 -138 q 102 -53 102 -100 l 102 488 l 7 488 l 7 631 l 102 631 l 102 684 q 170 860 102 798 q 364 921 237 921 q 467 908 402 921 l 451 756 q 389 762 418 762 q 309 682 309 762 l 309 631 l 439 631 l 440 488 l 309 488 l 309 -53 q 247 -233 308 -170 q 73 -296 186 -296 z "},"Ț":{"ha":788,"x_min":14,"x_max":688,"o":"m 688 888 l 688 730 l 453 730 l 453 0 l 246 0 l 246 730 l 14 730 l 14 888 l 688 888 z "},"ț":{"ha":429,"x_min":3,"x_max":430,"o":"m 96 823 l 302 823 l 302 659 l 414 659 l 414 516 l 302 516 l 302 214 q 355 147 302 147 q 415 153 389 147 l 430 1 q 303 -14 366 -14 q 148 41 199 -14 q 96 212 96 96 l 96 516 l 3 516 l 3 659 l 96 659 l 96 823 z "},"ʼ":{"ha":441,"x_min":98,"x_max":366,"o":"m 355 1015 l 366 994 l 255 684 l 98 684 l 163 1015 l 355 1015 z "},"ˆ":{"ha":631,"x_min":59,"x_max":574,"o":"m 574 842 l 412 842 l 315 925 l 218 842 l 59 842 l 59 852 l 256 1022 l 374 1022 l 574 850 l 574 842 z "},"ˇ":{"ha":602,"x_min":34,"x_max":565,"o":"m 565 1023 l 565 1016 l 366 843 l 234 843 l 34 1017 l 34 1023 l 211 1023 l 300 941 l 390 1023 l 565 1023 z "},"ˉ":{"ha":650,"x_min":87,"x_max":536,"o":"m 536 977 l 536 871 l 87 871 l 87 977 l 536 977 z "},"˘":{"ha":566,"x_min":58,"x_max":509,"o":"m 368 1022 l 509 1022 q 448 886 509 938 q 283 835 386 835 q 119 886 180 835 q 58 1022 58 938 l 197 1022 q 220 965 197 985 q 283 945 243 945 q 346 965 324 945 q 368 1022 368 985 z "},"˙":{"ha":344,"x_min":65,"x_max":267,"o":"m 267 925 q 267 905 267 925 q 239 861 267 886 q 166 836 210 836 q 94 861 123 836 q 65 925 65 886 q 94 989 65 964 q 166 1015 122 1015 q 239 989 211 1015 q 267 925 267 964 z "},"˚":{"ha":412,"x_min":72,"x_max":346,"o":"m 209 929 q 195 929 209 929 q 163 911 180 929 q 146 865 146 892 q 163 819 146 837 q 209 801 180 801 q 255 819 238 801 q 272 865 272 837 q 255 911 272 892 q 209 929 238 929 m 346 865 q 346 839 346 865 q 307 778 346 812 q 209 743 268 743 q 111 777 150 743 q 72 864 72 812 q 112 952 72 917 q 209 988 151 988 q 306 952 267 988 q 346 865 346 917 z "},"˛":{"ha":394,"x_min":16,"x_max":265,"o":"m 163 -127 q 199 -164 163 -164 q 241 -153 219 -164 l 265 -256 q 158 -283 221 -283 q 56 -248 96 -283 q 16 -152 16 -212 q 138 8 16 -46 l 252 -28 q 183 -74 203 -53 q 163 -127 163 -96 z "},"˜":{"ha":602,"x_min":69,"x_max":541,"o":"m 399 853 q 309 879 370 853 q 229 905 248 905 q 196 890 210 905 q 183 850 183 876 l 69 856 q 110 974 69 924 q 210 1023 151 1023 q 292 999 234 1023 q 356 974 351 975 q 381 972 362 972 q 413 986 400 972 q 427 1027 427 1000 l 541 1020 q 500 902 541 950 q 399 853 459 853 z "},"˝":{"ha":539,"x_min":24,"x_max":569,"o":"m 262 838 l 399 1021 l 569 1021 l 406 838 l 262 838 m 24 838 l 145 1021 l 316 1021 l 171 838 l 24 838 z "},"π":{"ha":837,"x_min":37,"x_max":810,"o":"m 693 512 l 693 220 q 707 168 693 182 q 756 154 720 154 q 810 157 793 154 l 810 10 q 694 -7 753 -7 q 537 42 588 -7 q 486 195 486 92 l 486 512 l 353 512 l 353 -1 l 148 -1 l 148 512 l 37 512 l 37 660 l 804 660 l 805 512 l 693 512 z "},"ऀ":{"ha":0,"x_min":-684,"x_max":-137,"o":"m -495 936 l -495 1080 l -338 1080 l -338 936 l -495 936 m -163 1067 q -417 1149 -272 1149 q -657 1072 -562 1149 l -684 1207 q -574 1275 -645 1251 q -421 1299 -504 1299 q -265 1275 -338 1299 q -137 1206 -191 1251 l -163 1067 z "},"ँ":{"ha":0,"x_min":-652,"x_max":-104,"o":"m -625 1166 q -372 1084 -517 1084 q -132 1162 -227 1084 l -104 1027 q -214 959 -144 983 q -368 935 -285 935 q -524 959 -450 935 q -652 1027 -597 983 l -625 1166 m -294 1298 l -294 1154 l -451 1154 l -451 1298 l -294 1298 z "},"ं":{"ha":0,"x_min":-318,"x_max":-137,"o":"m -137 1143 l -137 977 l -318 977 l -318 1143 l -137 1143 z "},"ः":{"ha":416,"x_min":83,"x_max":289,"o":"m 289 275 l 289 102 l 83 102 l 83 275 l 289 275 m 289 661 l 289 487 l 83 487 l 83 661 l 289 661 z "},"ऄ":{"ha":1033,"x_min":50,"x_max":1053,"o":"m 569 295 q 497 103 569 174 q 309 33 425 33 q 169 47 229 33 q 50 94 109 62 l 80 250 q 180 214 139 224 q 266 203 222 203 q 336 231 309 203 q 363 303 363 258 q 269 400 363 389 q 138 389 211 389 l 138 548 q 290 578 243 548 q 338 655 338 608 q 316 709 338 686 q 261 731 294 731 q 200 722 229 731 q 119 691 170 713 l 90 840 q 184 876 138 865 q 300 886 231 886 q 476 826 409 886 q 544 669 544 766 q 465 486 544 559 q 484 473 470 484 l 701 473 l 701 730 l 596 730 l 596 877 l 720 877 l 720 885 q 707 933 720 918 q 664 949 694 949 q 602 942 651 949 q 516 934 553 934 q 430 954 479 934 q 343 1007 382 973 l 401 1137 q 532 1094 457 1094 q 626 1110 554 1094 q 732 1126 698 1126 q 862 1072 814 1126 q 909 911 909 1019 l 909 877 l 1053 877 l 1053 730 l 909 730 l 909 0 l 703 0 l 701 313 l 568 313 q 569 295 569 307 z "},"अ":{"ha":1033,"x_min":51,"x_max":1053,"o":"m 703 0 l 703 313 l 570 313 q 570 295 570 307 q 498 103 570 174 q 311 33 426 33 q 170 47 231 33 q 51 94 110 62 l 81 250 q 182 214 140 224 q 267 203 223 203 q 338 231 311 203 q 365 303 365 258 q 271 400 365 389 q 139 389 212 389 l 139 548 q 292 578 244 548 q 339 655 339 608 q 317 709 339 686 q 263 731 295 731 q 201 722 231 731 q 120 691 172 713 l 91 840 q 186 876 140 865 q 302 886 232 886 q 478 826 410 886 q 545 669 545 766 q 466 486 545 559 q 486 473 471 484 l 703 473 l 703 730 l 597 730 l 597 877 l 1053 877 l 1053 730 l 909 730 l 909 0 l 703 0 z "},"आ":{"ha":1449,"x_min":51,"x_max":1469,"o":"m 703 0 l 703 313 l 570 313 q 570 295 570 307 q 498 103 570 174 q 311 33 426 33 q 170 47 231 33 q 51 94 110 62 l 81 250 q 182 214 140 224 q 267 203 223 203 q 338 231 311 203 q 365 303 365 258 q 271 400 365 389 q 139 389 212 389 l 139 548 q 292 578 244 548 q 339 655 339 608 q 317 709 339 686 q 263 731 295 731 q 201 722 231 731 q 120 691 172 713 l 91 840 q 186 876 140 865 q 302 886 232 886 q 478 826 410 886 q 545 669 545 766 q 466 486 545 559 q 486 473 471 484 l 703 473 l 703 730 l 597 730 l 597 877 l 1469 877 l 1469 730 l 1324 730 l 1324 0 l 1118 0 l 1118 730 l 909 730 l 909 0 l 703 0 z "},"इ":{"ha":749,"x_min":-20,"x_max":770,"o":"m 266 1 q 129 30 180 1 q 78 109 78 60 q 110 190 78 159 q 198 222 142 222 q 357 159 277 222 l 368 159 q 452 182 420 159 q 484 236 484 204 q 424 290 484 286 q 344 282 378 292 q 273 245 310 272 l 252 245 q 113 340 170 276 q 55 481 55 405 q 119 605 55 557 q 311 652 182 652 l 423 652 l 423 730 l -20 730 l -20 878 l 770 878 l 770 730 l 625 730 l 625 504 l 321 504 q 267 490 285 504 q 250 456 250 476 q 266 416 250 437 q 441 446 345 446 q 621 386 551 446 q 690 235 690 325 q 632 87 690 145 q 465 14 574 29 l 560 -104 l 406 -178 l 266 1 z "},"ई":{"ha":749,"x_min":-25,"x_max":780,"o":"m 261 1 q 124 30 175 1 q 73 109 73 60 q 105 190 73 159 q 193 222 137 222 q 353 159 272 222 l 363 159 q 447 182 415 159 q 479 236 479 204 q 419 290 479 286 q 339 282 373 292 q 269 245 305 272 l 248 245 q 108 340 165 276 q 50 481 50 405 q 114 605 50 557 q 307 652 178 652 l 418 652 l 418 730 l -25 730 l -25 878 l 408 878 q 381 1041 381 963 q 448 1202 381 1142 q 629 1261 514 1261 q 780 1234 705 1261 l 765 1108 q 691 1118 720 1118 q 610 1084 642 1118 q 579 998 579 1050 q 594 878 579 946 l 765 878 l 765 730 l 621 730 l 621 504 l 316 504 q 262 490 280 504 q 245 456 245 476 q 261 416 245 437 q 436 446 340 446 q 616 386 547 446 q 685 235 685 325 q 627 87 685 145 q 460 14 569 29 l 555 -104 l 401 -178 l 261 1 z "},"उ":{"ha":681,"x_min":-20,"x_max":701,"o":"m 312 13 l 311 13 q 166 27 229 13 q 40 79 104 42 l 64 238 q 263 180 162 180 q 368 208 332 180 q 405 278 405 235 q 378 352 405 321 q 296 390 351 382 q 172 380 238 380 l 142 380 l 142 539 l 169 539 q 317 568 282 539 q 342 601 336 584 q 349 644 349 618 q 321 706 349 683 q 241 730 294 730 l -20 730 l -20 877 l 701 877 l 701 730 l 533 730 q 554 631 554 686 q 496 484 554 545 q 581 391 550 446 q 611 273 611 336 q 531 81 611 149 q 312 13 452 13 z "},"ऊ":{"ha":1008,"x_min":-20,"x_max":1028,"o":"m 311 14 q 166 28 229 14 q 40 79 104 43 l 64 239 q 263 181 162 181 q 368 208 332 181 q 405 279 405 235 q 378 353 405 322 q 296 391 351 383 q 172 381 238 381 l 142 381 l 142 540 l 169 540 q 317 570 282 540 q 342 602 336 585 q 349 644 349 618 q 321 707 349 684 q 241 730 294 730 l -20 730 l -20 878 l 1028 878 l 1028 730 l 533 730 q 554 637 554 686 q 540 553 554 589 q 672 571 608 571 q 874 495 792 571 q 956 291 956 419 q 871 56 956 163 l 675 96 q 751 296 751 201 q 723 372 751 344 q 650 400 694 400 q 584 385 621 400 q 611 273 611 329 l 610 273 q 531 82 610 150 q 311 14 451 14 z "},"ऋ":{"ha":1092,"x_min":-21,"x_max":1112,"o":"m 298 454 q 281 460 298 454 q 222 467 264 467 q 132 454 180 467 q 47 420 84 441 l 6 593 q 99 630 43 614 q 211 645 154 645 q 316 629 268 645 q 443 572 368 612 l 443 730 l -21 730 l -21 877 l 1112 877 l 1112 730 l 649 730 l 649 501 q 737 515 700 505 q 722 578 722 541 q 756 640 722 616 q 855 665 790 665 q 973 631 920 665 q 1025 547 1025 597 q 1014 497 1025 517 q 976 450 1003 477 q 1038 265 1038 361 q 979 120 1038 170 q 813 70 919 70 q 739 74 763 70 l 718 214 q 765 213 724 213 q 827 232 805 213 q 850 285 850 251 q 826 362 850 319 q 650 326 749 334 l 650 0 l 444 0 l 443 211 l 197 54 l 87 212 l 406 401 q 298 454 333 442 z "},"ऌ":{"ha":1019,"x_min":-20,"x_max":1040,"o":"m 633 117 q 670 227 633 181 q 777 290 707 273 q 777 314 777 298 q 696 435 777 435 q 631 394 654 435 q 608 277 608 353 l 608 176 l 409 176 l 409 286 q 410 326 409 299 q 378 403 403 376 q 315 431 353 431 q 252 397 277 431 q 228 306 228 363 q 253 191 228 248 q 327 62 277 134 l 163 6 q 71 159 109 68 q 33 331 33 249 q 101 538 33 466 q 288 610 170 610 q 491 530 406 610 q 679 609 564 609 l 689 609 l 689 730 l -20 730 l -20 877 l 1040 877 l 1040 730 l 895 730 l 895 524 q 970 308 970 444 q 949 178 970 247 l 891 178 q 828 160 852 178 q 805 112 805 141 q 825 68 805 83 q 872 54 844 54 q 932 60 901 54 q 981 75 964 67 l 1002 -49 q 939 -67 979 -60 q 867 -75 898 -75 l 868 -76 q 696 -23 760 -76 q 633 117 633 30 z "},"ऍ":{"ha":802,"x_min":-20,"x_max":823,"o":"m 88 460 l 88 730 l -20 730 l -20 877 l 823 877 l 823 730 l 686 730 l 686 536 q 646 375 686 444 q 524 274 606 307 l 400 389 q 459 456 438 413 q 479 556 479 500 l 479 730 l 294 730 l 294 483 q 382 233 294 308 q 661 158 471 158 l 623 -3 q 397 31 498 -3 q 229 126 296 65 q 124 273 161 187 q 88 460 88 358 m 147 1166 q 401 1084 256 1084 q 641 1162 546 1084 l 668 1027 q 558 959 629 983 q 405 935 488 935 q 249 959 322 935 q 121 1027 175 983 l 147 1166 z "},"ऎ":{"ha":802,"x_min":-22,"x_max":823,"o":"m 621 -3 q 396 31 497 -3 q 227 126 295 65 q 123 273 159 187 q 87 460 87 358 l 87 730 l -22 730 l -22 877 l 496 877 l 496 885 q 484 933 496 918 q 441 949 471 949 q 379 942 428 949 q 293 934 330 934 q 207 954 256 934 q 120 1007 159 973 l 178 1137 q 309 1094 234 1094 q 403 1110 331 1094 q 509 1126 475 1126 q 638 1072 591 1126 q 686 911 686 1019 l 686 877 l 823 877 l 823 730 l 686 730 l 686 536 q 646 375 686 444 q 524 274 606 307 l 400 389 q 459 456 438 413 q 479 556 479 500 l 479 730 l 294 730 l 294 483 q 382 233 294 308 q 661 158 471 158 l 623 -3 l 621 -3 z "},"ए":{"ha":802,"x_min":-20,"x_max":823,"o":"m 88 460 l 88 730 l -20 730 l -20 877 l 823 877 l 823 730 l 686 730 l 686 536 q 646 375 686 444 q 524 274 606 307 l 400 389 q 459 456 438 413 q 479 556 479 500 l 479 730 l 294 730 l 294 483 q 382 233 294 308 q 661 158 471 158 l 623 -3 q 397 31 498 -3 q 229 126 296 65 q 124 273 161 187 q 88 460 88 358 z "},"ऐ":{"ha":802,"x_min":-20,"x_max":823,"o":"m 88 460 l 88 730 l -20 730 l -20 877 l 453 877 l 217 1147 l 397 1246 l 667 877 l 823 877 l 823 730 l 686 730 l 686 536 q 646 375 686 444 q 524 274 606 307 l 400 389 q 459 456 438 413 q 479 556 479 500 l 479 730 l 294 730 l 294 483 q 382 233 294 308 q 661 158 471 158 l 623 -3 q 397 31 498 -3 q 229 126 296 65 q 124 273 161 187 q 88 460 88 358 z "},"ऑ":{"ha":1449,"x_min":51,"x_max":1469,"o":"m 703 0 l 703 313 l 570 313 q 570 295 570 307 q 498 103 570 174 q 311 33 426 33 q 170 47 231 33 q 51 94 110 62 l 81 250 q 182 214 140 224 q 267 203 223 203 q 338 231 311 203 q 365 303 365 258 q 271 400 365 389 q 139 389 212 389 l 139 548 q 292 578 244 548 q 339 655 339 608 q 317 709 339 686 q 263 731 295 731 q 201 722 231 731 q 120 691 172 713 l 91 840 q 186 876 140 865 q 302 886 232 886 q 478 826 410 886 q 545 669 545 766 q 466 486 545 559 q 486 473 471 484 l 703 473 l 703 730 l 597 730 l 597 877 l 1469 877 l 1469 730 l 1324 730 l 1324 0 l 1118 0 l 1118 730 l 909 730 l 909 0 l 703 0 m 779 1166 q 1032 1084 887 1084 q 1272 1162 1177 1084 l 1299 1027 q 1190 959 1260 983 q 1036 935 1119 935 q 880 959 954 935 q 752 1027 806 983 l 779 1166 z "},"ऒ":{"ha":1449,"x_min":50,"x_max":1469,"o":"m 569 295 q 497 103 569 174 q 309 33 425 33 q 169 47 229 33 q 50 94 109 62 l 80 250 q 180 214 139 224 q 266 203 222 203 q 336 231 309 203 q 363 303 363 258 q 269 400 363 389 q 138 389 211 389 l 138 548 q 290 578 243 548 q 338 655 338 608 q 316 709 338 686 q 261 731 294 731 q 200 722 229 731 q 119 691 170 713 l 90 840 q 184 876 138 865 q 300 886 231 886 q 476 826 409 886 q 544 669 544 766 q 465 486 544 559 q 484 473 470 484 l 701 473 l 701 730 l 596 730 l 596 877 l 1135 877 l 1135 885 q 1122 933 1135 918 q 1080 949 1109 949 q 1018 942 1067 949 q 932 934 969 934 q 846 954 895 934 q 759 1007 798 973 l 817 1137 q 948 1094 873 1094 q 1042 1110 970 1094 q 1148 1126 1114 1126 q 1277 1072 1230 1126 q 1324 911 1324 1019 l 1324 877 l 1469 877 l 1469 730 l 1324 730 l 1324 0 l 1118 0 l 1118 730 l 909 730 l 909 0 l 703 0 l 701 313 l 568 313 q 569 295 569 307 z "},"ओ":{"ha":1449,"x_min":51,"x_max":1469,"o":"m 703 0 l 703 313 l 570 313 q 570 295 570 307 q 498 103 570 174 q 311 33 426 33 q 170 47 231 33 q 51 94 110 62 l 81 250 q 182 214 140 224 q 267 203 223 203 q 338 231 311 203 q 365 303 365 258 q 271 400 365 389 q 139 389 212 389 l 139 548 q 292 578 244 548 q 339 655 339 608 q 317 709 339 686 q 263 731 295 731 q 201 722 231 731 q 120 691 172 713 l 91 840 q 186 876 140 865 q 302 886 232 886 q 478 826 410 886 q 545 669 545 766 q 466 486 545 559 q 486 473 471 484 l 703 473 l 703 730 l 597 730 l 597 877 l 1092 877 l 856 1147 l 1036 1246 l 1306 877 l 1469 877 l 1469 730 l 1324 730 l 1324 0 l 1118 0 l 1118 730 l 909 730 l 909 0 l 703 0 z "},"औ":{"ha":1449,"x_min":51,"x_max":1469,"o":"m 703 0 l 703 313 l 570 313 q 570 295 570 307 q 498 103 570 174 q 311 33 426 33 q 170 47 231 33 q 51 94 110 62 l 81 250 q 182 214 140 224 q 267 203 223 203 q 338 231 311 203 q 365 303 365 258 q 271 400 365 389 q 139 389 212 389 l 139 548 q 292 578 244 548 q 339 655 339 608 q 317 709 339 686 q 263 731 295 731 q 201 722 231 731 q 120 691 172 713 l 91 840 q 186 876 140 865 q 302 886 232 886 q 478 826 410 886 q 545 669 545 766 q 466 486 545 559 q 486 473 471 484 l 703 473 l 703 730 l 597 730 l 597 877 l 964 877 l 707 1042 l 844 1175 l 1117 960 l 992 1247 l 1182 1291 l 1316 877 l 1469 877 l 1469 730 l 1324 730 l 1324 0 l 1118 0 l 1118 730 l 909 730 l 909 0 l 703 0 z "},"क":{"ha":1089,"x_min":-20,"x_max":1109,"o":"m 640 0 l 433 0 l 433 118 q 301 98 385 98 q 89 176 172 98 q 6 379 6 255 q 80 569 6 503 q 273 636 154 636 q 433 614 374 636 l 433 730 l -20 730 l -20 877 l 1109 877 l 1109 730 l 640 730 l 640 598 q 754 612 694 612 q 956 536 874 612 q 1038 332 1038 460 q 954 97 1038 203 l 757 137 q 833 337 833 242 q 805 413 833 385 q 733 441 777 441 q 640 412 690 441 l 640 0 m 314 262 q 433 300 387 262 l 433 446 q 320 471 386 471 q 243 444 272 471 q 214 367 214 416 q 242 290 214 317 q 314 262 270 262 z "},"ख":{"ha":1231,"x_min":-39,"x_max":1251,"o":"m 712 413 q 712 393 712 413 q 741 349 712 372 q 802 325 769 325 q 857 332 836 325 q 900 357 879 340 l 900 484 q 804 503 858 503 q 739 478 765 503 q 712 413 712 454 m 289 583 l 289 730 l -21 730 l -21 877 l 1251 877 l 1251 730 l 1106 730 l 1106 0 l 900 0 l 900 182 q 785 168 864 168 q 598 238 675 168 q 520 418 520 309 q 589 592 520 528 q 765 656 658 656 q 901 642 827 656 l 901 730 l 496 730 l 496 586 q 339 308 496 365 l 533 74 l 387 -31 l -39 473 l 102 583 l 218 481 q 272 508 254 484 q 289 583 289 532 z "},"ग":{"ha":876,"x_min":-20,"x_max":897,"o":"m 546 0 l 546 730 l 355 730 l 355 324 q 323 237 355 268 q 235 205 292 205 q 89 268 157 205 q 20 403 20 330 q 50 481 20 452 q 130 511 79 511 l 149 511 l 149 730 l -20 730 l -20 877 l 897 877 l 897 730 l 752 730 l 752 0 l 546 0 z "},"घ":{"ha":914,"x_min":-20,"x_max":935,"o":"m 583 730 l 374 730 q 309 708 333 730 q 285 650 285 686 q 358 575 285 585 l 477 575 l 490 416 l 388 416 q 308 394 334 416 q 281 333 281 372 q 314 273 281 295 q 401 250 346 252 l 401 251 q 583 300 495 248 l 583 730 m 583 0 l 583 108 q 385 80 488 80 q 144 153 230 80 q 60 344 58 225 q 153 511 60 439 q 66 667 66 568 q 75 730 66 699 l -20 730 l -20 877 l 935 877 l 935 730 l 789 730 l 789 0 l 583 0 z "},"ङ":{"ha":907,"x_min":-20,"x_max":927,"o":"m 398 1 l 398 0 q 50 83 186 0 l 92 239 q 239 177 162 199 q 377 155 315 155 q 474 172 439 155 q 509 222 509 189 q 490 261 509 246 q 439 276 471 276 q 288 239 357 276 l 267 239 q 124 331 178 271 q 69 473 69 391 q 129 602 69 556 q 312 648 188 648 l 444 648 l 444 730 l -20 730 l -20 877 l 927 877 l 927 730 l 646 730 l 646 500 l 329 500 q 257 447 257 500 q 281 403 257 425 q 458 436 379 436 q 643 375 576 436 q 709 216 709 313 q 631 60 709 119 q 398 1 552 1 m 858 517 l 858 376 l 675 376 l 675 517 l 858 517 z "},"च":{"ha":927,"x_min":-20,"x_max":947,"o":"m 595 0 l 595 110 q 444 90 537 90 q 224 161 311 90 q 136 356 136 232 q 149 438 136 399 l 6 438 l 6 597 l 522 597 l 522 438 l 460 438 l 460 437 q 352 347 352 437 q 382 281 352 305 q 451 256 412 258 q 595 298 530 254 l 595 730 l -20 730 l -20 877 l 947 877 l 947 730 l 802 730 l 802 0 l 595 0 z "},"छ":{"ha":1014,"x_min":-20,"x_max":1034,"o":"m 402 381 q 332 353 358 381 q 306 275 306 326 q 356 191 306 225 q 488 159 407 157 q 684 220 609 161 q 758 359 758 279 q 735 444 758 416 q 679 472 711 472 q 581 444 632 472 l 534 582 q 684 632 599 625 l 684 730 l 372 730 q 290 642 290 730 q 315 570 290 600 q 379 540 340 540 l 458 540 l 472 381 l 402 381 m 79 288 q 173 478 79 406 q 97 556 123 509 q 71 660 71 603 q 80 730 71 697 l -20 730 l -20 877 l 1034 877 l 1034 730 l 890 730 l 890 557 q 958 353 959 480 q 925 217 958 281 q 835 102 892 152 q 690 23 777 53 q 500 -7 603 -7 q 189 73 299 -9 q 79 288 79 155 z "},"ज":{"ha":996,"x_min":-20,"x_max":1016,"o":"m 535 283 q 467 103 535 172 q 269 35 398 35 q 22 86 140 35 l 54 238 q 218 201 143 201 q 297 230 267 201 q 328 313 328 260 q 276 404 328 366 q 148 443 225 443 l 112 443 l 112 599 l 669 599 l 669 730 l -20 730 l -20 877 l 1016 877 l 1016 730 l 871 730 l 871 0 l 669 0 l 669 440 l 482 440 q 535 283 535 375 z "},"झ":{"ha":1153,"x_min":-21,"x_max":1173,"o":"m 265 0 q 128 30 179 0 q 77 109 77 59 q 109 190 77 158 q 197 221 141 221 q 357 159 276 221 l 367 159 q 451 181 419 159 q 483 235 483 203 q 423 289 483 286 q 343 281 377 291 q 273 245 309 271 l 252 245 q 112 340 170 275 q 54 480 54 404 q 118 604 54 557 q 311 652 182 652 l 422 652 l 422 730 l -21 730 l -21 877 l 1173 877 l 1173 730 l 1028 730 l 1028 0 l 822 0 l 822 192 l 686 192 q 616 73 673 119 q 465 14 560 27 l 560 -104 l 406 -178 l 265 0 m 441 446 q 564 420 510 446 q 651 352 618 395 l 823 352 l 823 730 l 625 730 l 625 503 l 321 503 q 267 489 285 503 q 250 456 250 475 q 266 416 250 436 q 441 446 345 446 z "},"ञ":{"ha":1044,"x_min":-20,"x_max":1065,"o":"m 278 92 q 26 150 144 92 l 60 309 q 160 273 126 283 q 242 264 195 264 q 323 294 289 264 q 358 376 358 324 q 325 459 358 429 q 239 489 291 489 q 111 462 173 489 l 75 612 q 263 652 163 652 q 439 605 363 652 q 545 475 514 557 l 714 475 l 714 730 l -20 730 l -20 877 l 1065 877 l 1065 730 l 920 730 l 920 0 l 714 0 l 713 307 l 557 307 q 459 149 537 206 q 278 92 382 92 z "},"ट":{"ha":741,"x_min":-21,"x_max":760,"o":"m 387 611 l 410 611 l 410 729 l -21 729 l -21 876 l 760 876 l 760 729 l 616 729 l 616 449 l 422 449 q 306 414 347 449 q 264 318 264 378 q 312 224 264 258 q 628 216 408 157 l 650 48 q 442 17 560 17 l 441 16 q 153 100 261 16 q 47 324 45 183 q 138 538 48 465 q 387 611 227 611 z "},"ठ":{"ha":844,"x_min":-20,"x_max":865,"o":"m 243 316 q 243 283 243 316 q 288 213 243 251 q 407 175 332 175 q 530 214 481 175 q 578 321 578 254 q 561 399 578 363 q 513 455 543 435 l 441 455 q 294 418 345 455 q 243 316 243 380 m 31 333 q 135 536 31 459 q 414 613 240 613 l 514 613 l 514 730 l -20 730 l -20 877 l 865 877 l 865 730 l 720 730 l 720 509 q 781 311 781 426 q 684 93 781 174 q 415 10 588 12 q 136 96 241 9 q 31 333 31 184 z "},"ड":{"ha":770,"x_min":-20,"x_max":790,"o":"m 398 1 l 398 0 q 50 83 186 0 l 92 239 q 239 177 162 199 q 377 155 315 155 q 474 172 439 155 q 509 222 509 189 q 490 261 509 246 q 439 276 471 276 q 288 239 357 276 l 267 239 q 124 331 178 271 q 69 473 69 391 q 129 602 69 556 q 312 648 188 648 l 444 648 l 444 730 l -20 730 l -20 877 l 790 877 l 790 730 l 646 730 l 646 500 l 329 500 q 257 447 257 500 q 281 403 257 425 q 458 436 379 436 q 643 375 576 436 q 709 216 709 313 q 631 60 709 119 q 398 1 552 1 z "},"ढ":{"ha":770,"x_min":-21,"x_max":790,"o":"m 422 1 l 422 1 q 220 42 309 1 q 80 157 131 82 q 30 330 30 233 q 125 545 30 465 q 393 625 220 625 l 439 625 l 439 730 l -21 730 l -21 877 l 790 877 l 790 730 l 646 730 l 646 469 l 428 469 q 231 314 231 469 q 283 189 231 235 q 426 143 336 143 q 521 164 490 143 q 552 212 552 185 q 484 267 552 267 q 421 253 457 267 q 356 216 385 239 l 291 334 q 386 390 330 368 q 504 412 442 412 q 673 356 612 412 q 733 211 733 300 q 654 56 733 111 q 422 1 576 1 z "},"ण":{"ha":1097,"x_min":-20,"x_max":1118,"o":"m 341 394 q 414 492 414 394 l 414 730 l 270 730 l 270 492 q 288 419 270 444 q 341 394 307 394 m 621 730 l 621 501 q 545 295 621 366 q 344 223 469 223 q 203 254 266 223 q 102 350 141 284 q 63 507 63 415 l 63 730 l -20 730 l -20 877 l 1118 877 l 1118 730 l 973 730 l 973 0 l 767 0 l 768 730 l 621 730 z "},"त":{"ha":810,"x_min":-20,"x_max":831,"o":"m 172 -8 q 173 -9 173 -8 l 172 -8 m 40 336 q 120 538 40 461 q 355 616 201 616 l 480 616 l 480 729 l -20 729 l -20 876 l 831 876 l 831 729 l 686 729 l 686 -1 l 480 -1 l 480 446 l 408 446 q 284 404 326 446 q 242 296 242 363 q 341 50 242 189 l 172 -8 q 74 164 108 74 q 40 336 40 254 z "},"थ":{"ha":945,"x_min":21,"x_max":965,"o":"m 470 113 q 182 201 296 113 q 21 462 68 290 l 24 485 q 313 559 246 498 q 341 598 334 579 q 349 642 349 618 q 330 702 349 682 q 282 723 311 723 q 239 704 254 723 q 223 660 223 686 q 233 604 223 633 l 79 588 q 54 695 54 633 q 114 822 54 770 q 286 873 174 873 q 465 807 398 873 q 531 633 531 741 q 460 453 531 526 q 266 367 389 381 q 456 276 325 276 q 614 320 543 276 l 614 730 l 584 730 l 584 877 l 965 877 l 965 730 l 821 730 l 821 0 l 614 0 l 613 128 q 470 113 546 113 z "},"द":{"ha":748,"x_min":-20,"x_max":768,"o":"m 410 56 q 140 138 247 56 q 33 347 33 219 q 119 543 33 475 q 385 610 205 610 l 418 610 l 418 730 l -20 730 l -20 878 l 768 878 l 768 730 l 624 730 l 624 452 l 428 452 q 281 421 322 452 q 239 336 239 391 q 274 250 239 281 q 368 215 309 218 q 366 244 366 241 q 402 323 366 292 q 510 353 438 353 q 638 308 582 353 q 695 205 695 262 q 603 87 695 125 l 686 -100 l 500 -139 l 425 56 l 410 56 z "},"ध":{"ha":919,"x_min":31,"x_max":939,"o":"m 795 0 l 589 0 l 589 106 q 385 80 507 80 q 144 153 230 80 q 59 344 58 225 q 83 433 60 391 q 146 507 106 475 q 61 584 92 536 q 31 692 31 632 q 93 832 31 780 q 250 885 155 885 q 444 850 372 885 l 420 711 q 311 732 363 732 q 259 712 279 732 q 239 656 239 692 q 272 597 239 620 q 349 575 305 575 l 481 575 l 495 416 l 388 416 q 308 394 334 416 q 281 333 281 372 q 314 273 281 295 q 401 250 347 250 q 589 298 514 250 l 589 730 l 554 730 l 554 877 l 939 877 l 939 730 l 795 730 l 795 0 z "},"न":{"ha":815,"x_min":-20,"x_max":836,"o":"m 485 0 l 485 399 l 294 399 l 294 283 q 271 208 294 236 q 203 180 248 180 q 114 218 157 180 q 46 316 71 257 q 21 433 21 374 q 176 572 21 572 l 485 572 l 485 730 l -20 730 l -20 877 l 836 877 l 836 730 l 691 730 l 691 0 l 485 0 z "},"ऩ":{"ha":815,"x_min":-20,"x_max":836,"o":"m 264 56 l 264 -81 l 92 -81 l 92 56 l 264 56 m 485 0 l 485 399 l 294 399 l 294 283 q 271 208 294 236 q 203 180 248 180 q 114 218 157 180 q 46 316 71 257 q 21 433 21 374 q 176 572 21 572 l 485 572 l 485 730 l -20 730 l -20 877 l 836 877 l 836 730 l 691 730 l 691 0 l 485 0 z "},"प":{"ha":782,"x_min":-20,"x_max":802,"o":"m 351 398 q 452 446 416 398 l 452 730 l 264 730 l 264 505 q 351 398 264 398 m 452 0 l 452 250 q 354 238 406 238 q 139 321 220 238 q 58 559 58 404 l 58 730 l -20 730 l -20 877 l 802 877 l 802 730 l 658 730 l 658 0 l 452 0 z "},"फ":{"ha":1109,"x_min":-20,"x_max":1130,"o":"m 658 0 l 452 0 l 452 250 q 354 238 406 238 q 139 321 220 238 q 58 559 58 404 l 58 730 l -20 730 l -20 877 l 1130 877 l 1130 730 l 658 730 l 658 597 q 773 612 710 612 q 975 536 893 612 q 1057 332 1057 460 q 972 97 1057 203 l 776 137 q 852 337 852 242 q 824 413 852 385 q 752 441 795 441 q 658 412 709 441 l 658 0 m 351 398 q 452 446 416 398 l 452 730 l 264 730 l 264 505 q 351 398 264 398 z "},"ब":{"ha":798,"x_min":-20,"x_max":818,"o":"m 345 258 l 357 258 l 252 451 q 223 367 223 420 q 256 286 223 313 q 345 258 290 258 m 447 283 l 447 283 q 467 296 463 293 l 467 459 q 336 484 412 484 l 447 283 m 467 0 l 467 124 q 322 100 404 100 q 171 133 241 100 q 59 232 101 166 q 17 383 17 297 q 98 573 17 505 q 301 641 178 641 q 467 616 398 641 l 467 730 l -20 730 l -20 877 l 818 877 l 818 730 l 673 730 l 673 0 l 467 0 z "},"भ":{"ha":839,"x_min":-31,"x_max":859,"o":"m 509 0 l 509 319 l 340 319 l 340 275 q 316 211 340 234 q 246 187 292 187 q 94 248 165 187 q 22 379 22 308 q 53 455 22 426 q 131 484 84 484 l 134 484 l 134 640 q 69 735 134 735 q 28 729 46 735 q -14 707 11 723 l -31 848 q 34 881 -7 869 q 122 894 75 894 q 284 831 227 894 q 340 654 340 768 l 340 484 l 509 484 l 509 730 l 471 730 l 471 877 l 859 877 l 859 730 l 715 730 l 715 0 l 509 0 z "},"म":{"ha":862,"x_min":-20,"x_max":882,"o":"m 348 319 l 348 275 q 321 211 348 235 q 248 187 294 187 q 95 243 161 187 q 29 379 29 300 q 60 455 29 426 q 138 484 91 484 l 141 484 l 141 730 l -20 730 l -20 877 l 882 877 l 882 730 l 738 730 l 738 0 l 532 0 l 532 319 l 348 319 m 532 730 l 347 730 l 347 484 l 532 484 l 532 730 z "},"य":{"ha":861,"x_min":-20,"x_max":882,"o":"m 425 313 q 531 343 485 313 l 531 728 l 360 728 q 415 589 415 672 q 374 467 415 519 q 264 395 332 415 q 425 313 323 313 m 531 0 l 531 160 q 429 151 497 153 q 171 236 286 150 q 9 472 56 321 l 13 495 q 158 535 109 503 q 208 621 208 567 q 140 730 208 693 l -20 730 l -20 877 l 882 877 l 882 730 l 737 730 l 737 0 l 531 0 z "},"र":{"ha":611,"x_min":-38,"x_max":631,"o":"m 290 583 l 290 730 l -20 730 l -20 877 l 631 877 l 631 730 l 496 730 l 496 586 q 339 308 496 365 l 533 74 l 387 -31 l -38 473 l 103 583 l 218 481 q 272 508 255 484 q 290 583 290 532 z "},"ऱ":{"ha":611,"x_min":-38,"x_max":631,"o":"m 203 56 l 203 -81 l 31 -81 l 31 56 l 203 56 m 290 583 l 290 730 l -20 730 l -20 877 l 631 877 l 631 730 l 496 730 l 496 586 q 339 308 496 365 l 533 74 l 387 -31 l -38 473 l 103 583 l 218 481 q 272 508 255 484 q 290 583 290 532 z "},"ल":{"ha":1105,"x_min":-20,"x_max":1125,"o":"m 720 427 q 647 386 676 427 q 618 277 618 345 l 618 176 l 418 176 l 418 300 q 390 395 416 360 q 323 430 363 430 q 255 396 282 430 q 227 304 227 363 q 251 189 227 246 q 322 62 274 132 l 157 6 q 66 158 104 68 q 29 331 29 248 q 98 542 29 467 q 285 617 166 617 q 509 526 421 617 q 701 612 590 612 q 774 607 741 612 l 774 730 l -20 730 l -20 877 l 1125 877 l 1125 730 l 981 730 l 981 0 l 774 0 l 774 417 q 720 427 748 427 z "},"ळ":{"ha":1124,"x_min":-20,"x_max":1145,"o":"m 323 174 l 323 174 q 401 211 372 174 q 430 323 430 248 q 321 469 430 469 q 248 431 276 469 q 220 321 220 394 q 249 211 220 248 q 323 174 277 174 m 890 326 q 890 361 890 326 q 862 433 890 397 q 789 469 835 469 q 714 432 743 469 q 686 323 686 395 q 714 215 686 252 q 790 178 743 178 q 863 216 837 178 q 890 326 890 254 m 793 17 l 792 17 q 560 120 648 17 q 466 45 526 73 q 328 18 407 18 q 118 103 200 18 q 36 325 36 187 q 111 543 36 462 q 313 623 185 623 q 453 594 391 623 q 557 515 516 565 q 779 625 638 625 l 794 625 l 794 730 l -20 730 l -20 877 l 1145 877 l 1145 730 l 1000 730 l 1000 532 q 1071 316 1071 452 q 999 99 1071 181 q 793 17 926 17 z "},"ऴ":{"ha":1124,"x_min":-20,"x_max":1145,"o":"m 302 -32 l 302 -169 l 130 -169 l 130 -32 l 302 -32 m 323 174 l 323 174 q 401 211 372 174 q 430 323 430 248 q 321 469 430 469 q 248 431 276 469 q 220 321 220 394 q 249 211 220 248 q 323 174 277 174 m 890 326 q 890 361 890 326 q 862 433 890 397 q 789 469 835 469 q 714 432 743 469 q 686 323 686 395 q 714 215 686 252 q 790 178 743 178 q 863 216 837 178 q 890 326 890 254 m 793 17 l 792 17 q 560 120 648 17 q 466 45 526 73 q 328 18 407 18 q 118 103 200 18 q 36 325 36 187 q 111 543 36 462 q 313 623 185 623 q 453 594 391 623 q 557 515 516 565 q 779 625 638 625 l 794 625 l 794 730 l -20 730 l -20 877 l 1145 877 l 1145 730 l 1000 730 l 1000 532 q 1071 316 1071 452 q 999 99 1071 181 q 793 17 926 17 z "},"व":{"ha":798,"x_min":-20,"x_max":818,"o":"m 467 0 l 467 124 q 322 100 404 100 q 171 133 241 100 q 59 232 101 166 q 17 383 17 297 q 98 573 17 505 q 301 641 178 641 q 467 616 398 641 l 467 730 l -20 730 l -20 877 l 818 877 l 818 730 l 673 730 l 673 0 l 467 0 m 336 484 q 253 453 283 484 q 223 369 223 423 q 256 287 223 314 q 352 259 290 259 q 467 296 414 259 l 467 459 q 336 484 412 484 z "},"श":{"ha":1065,"x_min":66,"x_max":1086,"o":"m 207 186 q 104 221 142 186 q 66 323 66 257 q 109 438 66 389 q 209 488 151 488 q 327 432 278 488 q 434 616 434 490 q 409 692 434 666 q 346 718 384 718 q 286 691 309 718 q 263 622 263 665 q 267 572 263 611 l 90 555 q 75 665 75 612 q 147 823 75 758 q 338 888 219 888 q 558 811 477 888 q 640 602 640 734 q 587 417 640 504 q 448 269 534 330 l 608 77 l 445 -14 l 286 195 q 207 186 243 186 m 735 0 l 735 730 l 698 730 l 698 877 l 1086 877 l 1086 730 l 941 730 l 941 0 l 735 0 z "},"ष":{"ha":782,"x_min":-20,"x_max":802,"o":"m 351 398 q 391 404 376 398 l 264 635 l 264 505 q 351 398 264 398 m 452 730 l 313 730 l 452 481 l 452 730 m 452 0 l 452 250 q 354 238 406 238 q 139 321 220 238 q 58 559 58 404 l 58 730 l -20 730 l -20 877 l 802 877 l 802 730 l 658 730 l 658 0 l 452 0 z "},"स":{"ha":979,"x_min":-28,"x_max":999,"o":"m 264 584 l 264 731 l -20 731 l -20 878 l 999 878 l 999 731 l 854 731 l 854 1 l 648 1 l 648 315 l 338 315 q 322 309 333 314 l 494 64 l 334 -26 l -28 484 l 117 587 l 211 488 l 211 486 q 264 584 264 499 m 470 566 q 463 479 470 516 l 648 479 l 648 730 l 470 730 l 470 566 z "},"ह":{"ha":768,"x_min":-21,"x_max":788,"o":"m 77 120 q 142 292 77 222 q 54 460 54 360 q 116 591 54 543 q 299 638 178 638 l 437 638 l 437 729 l -21 729 l -21 876 l 788 876 l 788 729 l 644 729 l 644 479 l 347 479 q 259 423 259 479 q 286 376 259 395 q 389 389 336 389 q 614 321 531 389 q 696 151 696 254 q 692 103 696 121 q 676 52 688 85 l 487 71 q 496 131 496 108 q 469 204 496 176 q 392 229 441 231 q 314 194 343 227 q 284 106 284 160 q 361 -6 284 33 q 613 -45 439 -45 l 587 -202 q 208 -117 338 -202 q 77 120 77 -31 z "},"ऺ":{"ha":0,"x_min":-323,"x_max":-118,"o":"m -323 1012 l -118 1012 l -118 797 l -323 797 l -323 1012 z "},"ऻ":{"ha":418,"x_min":-20,"x_max":438,"o":"m 87 0 l 87 730 l -20 730 l -20 877 l 88 877 l 88 1012 l 294 1012 l 294 877 l 438 877 l 438 730 l 294 730 l 294 0 l 87 0 z "},"़":{"ha":0,"x_min":-637,"x_max":-465,"o":"m -465 56 l -465 -81 l -637 -81 l -637 56 l -465 56 z "},"ऽ":{"ha":695,"x_min":64,"x_max":620,"o":"m 620 278 q 547 105 620 171 q 337 39 475 39 q 65 102 199 39 l 104 272 q 313 211 222 211 q 384 231 359 211 q 408 277 408 250 q 401 320 408 304 q 272 421 384 357 q 112 543 159 484 q 64 680 64 601 q 126 824 64 772 q 319 877 189 877 l 573 877 l 573 730 l 347 730 q 292 712 311 730 q 273 669 273 694 q 291 624 273 643 q 373 570 309 605 q 562 434 505 498 q 618 279 618 369 l 620 278 z "},"ा":{"ha":418,"x_min":-20,"x_max":438,"o":"m 87 0 l 87 730 l -20 730 l -20 877 l 438 877 l 438 730 l 294 730 l 294 0 l 87 0 z "},"ि":{"ha":418,"x_min":-20,"x_max":973,"o":"m -20 730 l -20 877 l 89 877 l 89 916 q 196 1124 89 1049 q 496 1198 304 1199 q 973 1088 749 1198 l 936 935 q 507 1020 711 1020 q 351 987 408 1020 q 294 901 294 954 l 294 877 l 438 877 l 438 730 l 294 730 l 294 0 l 87 0 l 88 730 l -20 730 z "},"ी":{"ha":418,"x_min":-379,"x_max":438,"o":"m 87 0 l 87 730 l -20 730 l -20 878 l 66 878 q -103 1050 -8 1050 q -155 1031 -137 1050 q -172 979 -172 1012 q -160 919 -172 946 q -123 857 -148 892 l -334 857 q -366 923 -353 881 q -379 1009 -379 964 q -315 1161 -379 1104 q -138 1217 -251 1217 q 104 1133 5 1217 q 266 877 204 1049 l 438 877 l 438 730 l 294 730 l 294 0 l 87 0 z "},"ु":{"ha":0,"x_min":-637,"x_max":16,"o":"m -240 32 q -53 -29 -123 32 q 16 -184 16 -90 q -58 -338 16 -278 q -252 -397 -133 -397 q -637 -239 -455 -397 l -579 -98 q -411 -213 -484 -181 q -273 -245 -338 -245 q -163 -174 -163 -245 q -188 -125 -163 -142 q -254 -107 -212 -107 q -390 -142 -323 -107 l -435 -18 q -350 18 -402 4 q -240 32 -298 32 z "},"ू":{"ha":0,"x_min":-508,"x_max":164,"o":"m -231 -413 q -431 -349 -353 -413 q -508 -188 -508 -285 q -438 -33 -508 -91 q -253 25 -369 25 q -36 -42 -138 25 q 164 -260 66 -110 l 60 -370 q -110 -176 -38 -227 q -176 -141 -146 -151 q -244 -131 -206 -131 q -306 -150 -281 -131 q -330 -202 -330 -170 q -302 -252 -330 -234 q -236 -271 -275 -271 q -133 -262 -198 -271 l -117 -397 q -231 -413 -163 -413 z "},"ृ":{"ha":0,"x_min":-492,"x_max":-71,"o":"m -215 -374 q -413 -314 -334 -374 q -492 -161 -492 -254 q -427 -15 -492 -68 q -235 39 -361 39 l -124 39 l -124 -81 l -201 -81 q -277 -104 -249 -81 q -304 -165 -304 -128 q -278 -224 -304 -202 q -215 -247 -252 -247 q -92 -231 -133 -247 l -71 -356 q -215 -374 -130 -374 z "},"ॄ":{"ha":0,"x_min":-431,"x_max":-83,"o":"m -83 -414 q -211 -443 -132 -443 q -338 -403 -290 -443 q -385 -298 -385 -363 q -368 -235 -385 -263 q -431 -111 -431 -193 q -380 -1 -431 -41 q -232 40 -330 40 l -123 40 l -123 -80 l -219 -80 q -273 -91 -258 -80 q -288 -121 -288 -101 q -270 -152 -288 -140 q -217 -163 -252 -163 q -120 -149 -182 -163 l -96 -247 q -222 -271 -142 -271 q -243 -271 -235 -271 q -264 -304 -264 -281 q -206 -349 -264 -349 q -102 -326 -149 -349 l -83 -414 z "},"ॅ":{"ha":0,"x_min":-652,"x_max":-104,"o":"m -625 1166 q -372 1084 -517 1084 q -132 1162 -227 1084 l -104 1027 q -214 959 -144 983 q -368 935 -285 935 q -524 959 -450 935 q -652 1027 -597 983 l -625 1166 z "},"ॆ":{"ha":0,"x_min":-694,"x_max":-128,"o":"m -128 828 l -317 828 l -317 885 q -330 933 -317 918 q -373 949 -343 949 q -435 942 -386 949 q -521 934 -484 934 q -607 954 -558 934 q -694 1007 -655 973 l -635 1137 q -505 1094 -580 1094 q -411 1110 -483 1094 q -304 1126 -339 1126 q -175 1072 -222 1126 q -128 911 -128 1019 l -128 828 z "},"े":{"ha":0,"x_min":-589,"x_max":-120,"o":"m -120 852 l -331 852 l -589 1147 l -409 1246 l -120 852 z "},"ै":{"ha":0,"x_min":-745,"x_max":-129,"o":"m -450 852 l -745 1042 l -608 1175 l -336 960 l -460 1247 l -271 1291 l -129 852 l -450 852 z "},"ॉ":{"ha":418,"x_min":-76,"x_max":471,"o":"m 87 0 l 87 730 l -20 730 l -20 877 l 438 877 l 438 730 l 294 730 l 294 0 l 87 0 m -50 1167 q 204 1085 59 1085 q 444 1163 349 1085 l 471 1027 q 361 960 432 983 q 208 936 291 936 q 52 960 125 936 q -76 1028 -22 983 l -50 1167 z "},"ॊ":{"ha":418,"x_min":-311,"x_max":438,"o":"m -21 730 l -21 877 l 66 877 l 66 885 q 53 933 66 918 q 10 949 40 949 q -52 942 -3 949 q -138 934 -100 934 q -223 954 -175 934 q -311 1007 -272 973 l -252 1137 q -121 1094 -197 1094 q -28 1110 -100 1094 q 78 1126 43 1126 q 207 1072 160 1126 q 254 911 254 1019 l 254 877 l 438 877 l 438 730 l 294 730 l 294 0 l 87 0 l 87 730 l -21 730 z "},"ो":{"ha":418,"x_min":-176,"x_max":438,"o":"m 87 0 l 87 730 l -20 730 l -20 877 l 60 877 l -176 1147 l 4 1246 l 275 877 l 438 877 l 438 730 l 294 730 l 294 0 l 87 0 z "},"ौ":{"ha":418,"x_min":-323,"x_max":438,"o":"m 87 0 l 87 730 l -20 730 l -20 852 l -28 852 l -323 1042 l -186 1175 l 86 960 l -39 1247 l 151 1291 l 285 877 l 438 877 l 438 730 l 294 730 l 294 0 l 87 0 z "},"्":{"ha":0,"x_min":-399,"x_max":37,"o":"m -399 -192 l -335 -61 l 37 -225 l -31 -354 l -399 -192 z "},"ॎ":{"ha":404,"x_min":86,"x_max":425,"o":"m 86 0 l 86 877 l 425 877 l 425 730 l 289 730 l 289 0 l 86 0 z "},"ॏ":{"ha":418,"x_min":-279,"x_max":438,"o":"m -21 731 l -21 878 l 43 878 q 19 908 30 899 q -6 917 8 917 q -59 908 -20 917 q -132 899 -98 899 q -279 954 -206 899 l -239 1071 q -122 1027 -185 1027 q -41 1042 -111 1027 q -184 1112 -115 1053 l -139 1223 q -3 1174 -71 1174 q 74 1190 18 1174 q 152 1206 130 1206 q 255 1161 216 1206 q 294 1029 294 1117 l 294 878 l 438 878 l 438 731 l 294 731 l 294 1 l 87 1 l 87 731 l -21 731 m 159 997 q 145 1042 159 1027 q 113 1058 131 1058 q 62 1049 96 1058 q 159 978 113 1037 l 159 997 z "},"ॐ":{"ha":1271,"x_min":69,"x_max":1213,"o":"m 567 182 q 476 72 538 111 q 331 34 413 34 q 189 48 249 34 q 69 95 128 62 l 100 250 q 200 214 159 225 q 285 203 241 203 q 356 231 329 203 q 383 304 383 259 q 289 401 383 389 q 157 390 231 390 l 157 549 q 310 578 262 549 q 357 656 357 608 q 335 709 357 687 q 281 732 313 732 q 219 723 249 732 q 138 692 190 713 l 109 841 q 204 877 158 866 q 320 887 250 887 q 496 827 429 887 q 564 670 564 767 q 484 487 564 559 q 587 326 574 430 q 608 325 593 325 q 660 345 643 325 q 690 425 677 364 q 781 620 718 556 q 949 683 844 683 q 1139 604 1065 683 q 1213 405 1213 525 q 1146 212 1213 284 q 964 140 1079 140 q 868 154 918 140 l 884 290 q 953 286 918 286 q 1010 319 989 286 q 1032 414 1032 353 q 959 528 1032 528 q 907 497 927 528 q 871 383 886 467 q 792 223 850 271 q 626 175 735 175 l 625 177 q 567 182 594 177 m 579 958 q 833 876 688 876 q 1073 954 978 876 l 1100 818 q 990 750 1061 774 q 837 726 920 726 q 681 750 754 726 q 553 819 607 774 l 579 958 m 911 1089 l 911 945 l 753 945 l 753 1089 l 911 1089 z "},"॑":{"ha":0,"x_min":-323,"x_max":-118,"o":"m -323 1175 l -118 1175 l -118 960 l -323 960 l -323 1175 z "},"॒":{"ha":0,"x_min":-634,"x_max":-119,"o":"m -119 -178 l -634 -178 l -634 -39 l -119 -39 l -119 -178 z "},"॓":{"ha":0,"x_min":-456,"x_max":-134,"o":"m -227 1221 l -134 963 l -308 963 l -456 1221 l -227 1221 z "},"॔":{"ha":0,"x_min":-313,"x_max":7,"o":"m -313 963 l -220 1221 l 7 1221 l -139 963 l -313 963 z "},"ॕ":{"ha":0,"x_min":-651,"x_max":-104,"o":"m -121 937 l -635 937 l -635 1055 l -121 1055 l -121 937 m -625 1304 q -370 1231 -515 1231 q -131 1300 -225 1231 l -104 1180 q -213 1120 -143 1141 q -367 1099 -283 1099 q -523 1120 -450 1099 q -651 1181 -597 1141 l -625 1304 z "},"ॖ":{"ha":0,"x_min":-501,"x_max":52,"o":"m 52 -136 q -215 -228 -55 -228 q -501 -140 -376 -228 l -469 -20 q -221 -97 -360 -97 q 14 -17 -81 -97 l 52 -136 z "},"ॗ":{"ha":0,"x_min":-515,"x_max":65,"o":"m 65 -296 q -216 -378 -47 -378 q -515 -300 -385 -378 l -481 -193 q -219 -262 -365 -262 q 26 -191 -73 -262 l 65 -296 m 52 -130 q -215 -215 -56 -215 q -501 -134 -375 -215 l -469 -24 q -221 -95 -359 -95 q 14 -22 -83 -95 l 52 -130 z "},"क़":{"ha":1089,"x_min":-20,"x_max":1109,"o":"m 183 56 l 183 -81 l 11 -81 l 11 56 l 183 56 m 640 0 l 433 0 l 433 118 q 301 98 385 98 q 89 176 172 98 q 6 379 6 255 q 80 569 6 503 q 273 636 154 636 q 433 614 374 636 l 433 730 l -20 730 l -20 877 l 1109 877 l 1109 730 l 640 730 l 640 598 q 754 612 694 612 q 956 536 874 612 q 1038 332 1038 460 q 954 97 1038 203 l 757 137 q 833 337 833 242 q 805 413 833 385 q 733 441 777 441 q 640 412 690 441 l 640 0 m 314 262 q 433 300 387 262 l 433 446 q 320 471 386 471 q 243 444 272 471 q 214 367 214 416 q 242 290 214 317 q 314 262 270 262 z "},"ख़":{"ha":1231,"x_min":-39,"x_max":1251,"o":"m 237 56 l 237 -81 l 64 -81 l 64 56 l 237 56 m 712 413 q 712 393 712 413 q 741 349 712 372 q 802 325 769 325 q 857 332 836 325 q 900 357 879 340 l 900 484 q 804 503 858 503 q 739 478 765 503 q 712 413 712 454 m 289 583 l 289 730 l -21 730 l -21 877 l 1251 877 l 1251 730 l 1106 730 l 1106 0 l 900 0 l 900 182 q 785 168 864 168 q 598 238 675 168 q 520 418 520 309 q 589 592 520 528 q 765 656 658 656 q 901 642 827 656 l 901 730 l 496 730 l 496 586 q 339 308 496 365 l 533 74 l 387 -31 l -39 473 l 102 583 l 218 481 q 272 508 254 484 q 289 583 289 532 z "},"ग़":{"ha":876,"x_min":-20,"x_max":897,"o":"m 271 56 l 271 -81 l 99 -81 l 99 56 l 271 56 m 546 0 l 546 730 l 355 730 l 355 324 q 323 237 355 268 q 235 205 292 205 q 89 268 157 205 q 20 403 20 330 q 50 481 20 452 q 130 511 79 511 l 149 511 l 149 730 l -20 730 l -20 877 l 897 877 l 897 730 l 752 730 l 752 0 l 546 0 z "},"ज़":{"ha":996,"x_min":-20,"x_max":1016,"o":"m 213 3 l 213 -134 l 41 -134 l 41 3 l 213 3 m 535 283 q 467 103 535 172 q 269 35 398 35 q 22 86 140 35 l 54 238 q 218 201 143 201 q 297 230 267 201 q 328 313 328 260 q 276 404 328 366 q 148 443 225 443 l 112 443 l 112 599 l 669 599 l 669 730 l -20 730 l -20 877 l 1016 877 l 1016 730 l 871 730 l 871 0 l 669 0 l 669 440 l 482 440 q 535 283 535 375 z "},"ड़":{"ha":770,"x_min":-20,"x_max":790,"o":"m 461 -46 l 461 -183 l 289 -183 l 289 -46 l 461 -46 m 398 1 l 398 0 q 50 83 186 0 l 92 239 q 239 177 162 199 q 377 155 315 155 q 474 172 439 155 q 509 222 509 189 q 490 261 509 246 q 439 276 471 276 q 288 239 357 276 l 267 239 q 124 331 178 271 q 69 473 69 391 q 129 602 69 556 q 312 648 188 648 l 444 648 l 444 730 l -20 730 l -20 877 l 790 877 l 790 730 l 646 730 l 646 500 l 329 500 q 257 447 257 500 q 281 403 257 425 q 458 436 379 436 q 643 375 576 436 q 709 216 709 313 q 631 60 709 119 q 398 1 552 1 z "},"ढ़":{"ha":770,"x_min":-21,"x_max":790,"o":"m 467 -52 l 467 -189 l 295 -189 l 295 -52 l 467 -52 m 422 1 l 422 1 q 220 42 309 1 q 80 157 131 82 q 30 330 30 233 q 125 545 30 465 q 393 625 220 625 l 439 625 l 439 730 l -21 730 l -21 877 l 790 877 l 790 730 l 646 730 l 646 469 l 428 469 q 231 314 231 469 q 283 189 231 235 q 426 143 336 143 q 521 164 490 143 q 552 212 552 185 q 484 267 552 267 q 421 253 457 267 q 356 216 385 239 l 291 334 q 386 390 330 368 q 504 412 442 412 q 673 356 612 412 q 733 211 733 300 q 654 56 733 111 q 422 1 576 1 z "},"फ़":{"ha":1109,"x_min":-20,"x_max":1130,"o":"m 264 56 l 264 -81 l 92 -81 l 92 56 l 264 56 m 658 0 l 452 0 l 452 250 q 354 238 406 238 q 139 321 220 238 q 58 559 58 404 l 58 730 l -20 730 l -20 877 l 1130 877 l 1130 730 l 658 730 l 658 597 q 773 612 710 612 q 975 536 893 612 q 1057 332 1057 460 q 972 97 1057 203 l 776 137 q 852 337 852 242 q 824 413 852 385 q 752 441 795 441 q 658 412 709 441 l 658 0 m 351 398 q 452 446 416 398 l 452 730 l 264 730 l 264 505 q 351 398 264 398 z "},"य़":{"ha":861,"x_min":-20,"x_max":882,"o":"m 292 55 l 292 -82 l 119 -82 l 119 55 l 292 55 m 425 313 q 531 343 485 313 l 531 728 l 360 728 q 415 589 415 672 q 374 467 415 519 q 264 395 332 415 q 425 313 323 313 m 531 0 l 531 160 q 429 151 497 153 q 171 236 286 150 q 9 472 56 321 l 13 495 q 158 535 109 503 q 208 621 208 567 q 140 730 208 693 l -20 730 l -20 877 l 882 877 l 882 730 l 737 730 l 737 0 l 531 0 z "},"ॠ":{"ha":1105,"x_min":-21,"x_max":1125,"o":"m 738 172 q 846 327 738 268 l 825 362 q 649 326 743 334 l 649 1 l 443 1 l 443 212 l 197 54 l 87 213 l 406 402 q 298 455 333 443 q 222 467 264 467 q 132 454 180 467 q 47 420 84 441 l 6 593 q 99 630 43 615 q 211 646 154 646 q 316 630 268 646 q 443 572 368 613 l 443 730 l -21 730 l -21 878 l 1125 878 l 1125 730 l 649 730 l 649 502 q 737 516 700 505 q 722 579 722 541 q 756 641 722 616 q 855 665 790 665 q 973 631 920 665 q 1025 547 1025 597 q 1014 498 1025 518 q 978 453 1003 478 l 1058 322 l 1047 247 q 952 210 977 229 q 928 169 928 192 q 981 130 928 130 q 1042 139 1007 130 l 1059 19 q 945 -1 1004 -1 l 945 -1 q 793 47 849 -1 q 738 172 738 96 z "},"ॡ":{"ha":1019,"x_min":-20,"x_max":1040,"o":"m 777 280 l 778 315 q 697 436 778 436 q 632 395 655 436 q 609 277 609 353 l 609 177 l 410 177 l 410 286 q 411 327 410 300 q 378 404 404 376 q 315 431 353 431 q 253 398 277 431 q 229 306 229 364 q 253 192 229 248 q 328 63 278 135 l 164 7 q 72 159 110 69 q 34 332 34 250 q 102 538 34 467 q 289 610 170 610 q 492 530 407 610 q 680 610 565 610 l 690 610 l 690 730 l -20 730 l -20 878 l 1040 878 l 1040 730 l 896 730 l 896 525 q 971 309 971 445 q 949 179 971 248 l 879 179 q 811 167 830 179 q 793 135 793 155 q 810 103 793 114 q 860 92 827 92 q 954 106 892 92 l 978 7 q 852 -17 932 -17 q 830 -16 838 -17 q 817 -47 817 -27 q 831 -78 817 -66 q 871 -90 846 -90 q 972 -66 926 -90 l 990 -155 q 863 -182 942 -182 q 737 -143 785 -182 q 690 -37 690 -103 q 706 22 690 -3 q 644 147 644 65 q 678 234 644 199 q 777 280 712 269 z "},"ॢ":{"ha":0,"x_min":-501,"x_max":47,"o":"m -19 -262 q -111 -238 -77 -262 q -144 -175 -144 -214 q -125 -128 -144 -148 q -75 -100 -105 -109 q -74 -78 -74 -90 q -85 -57 -74 -66 q -116 -47 -97 -47 q -149 -63 -136 -47 q -161 -104 -161 -79 l -161 -149 l -292 -149 l -292 -106 q -308 -67 -292 -85 q -345 -50 -324 -50 q -375 -61 -365 -50 q -386 -89 -386 -71 q -312 -204 -386 -138 l -406 -239 q -475 -166 -448 -212 q -501 -69 -501 -121 q -464 18 -501 -17 q -366 53 -426 53 q -234 5 -289 53 q -114 53 -177 53 q -10 16 -52 53 q 31 -69 31 -20 q 18 -154 31 -118 l -11 -154 q -54 -178 -54 -154 q -43 -197 -54 -191 q -16 -203 -33 -203 q 38 -195 1 -203 l 47 -252 q -19 -262 20 -262 z "},"ॣ":{"ha":0,"x_min":-501,"x_max":56,"o":"m -75 -96 l -74 -79 q -85 -57 -74 -66 q -116 -47 -97 -47 q -149 -63 -136 -47 q -161 -104 -161 -79 l -161 -149 l -292 -149 l -292 -106 q -308 -67 -292 -85 q -345 -50 -324 -50 q -375 -61 -365 -50 q -386 -89 -386 -71 q -312 -204 -386 -138 l -406 -239 q -475 -166 -448 -212 q -501 -69 -501 -121 q -464 18 -501 -17 q -366 53 -426 53 q -234 5 -289 53 q -114 53 -177 53 q -10 16 -52 53 q 31 -71 31 -20 q 18 -136 31 -100 l -11 -136 q -45 -141 -36 -136 q -54 -157 -54 -146 q -17 -179 -54 -179 q 38 -171 1 -179 l 45 -220 q -20 -230 18 -230 l -23 -230 q -39 -246 -39 -234 q -29 -261 -39 -256 q -1 -267 -20 -267 q 44 -258 18 -267 l 56 -298 q -13 -309 22 -309 q -109 -248 -109 -309 q -96 -218 -109 -233 q -142 -157 -142 -197 q -124 -118 -142 -134 q -75 -96 -106 -102 z "},"।":{"ha":666,"x_min":231,"x_max":435,"o":"m 435 -113 l 231 -113 l 231 950 l 435 950 l 435 -113 z "},"॥":{"ha":977,"x_min":231,"x_max":747,"o":"m 747 -113 l 542 -113 l 542 950 l 747 950 l 747 -113 m 435 -113 l 231 -113 l 231 950 l 435 950 l 435 -113 z "},"०":{"ha":785,"x_min":45,"x_max":734,"o":"m 251 441 q 251 406 251 441 q 291 328 251 371 q 392 285 331 285 q 491 328 453 285 q 530 441 530 370 q 490 555 530 511 q 389 599 451 599 q 289 555 327 599 q 251 441 251 511 m 382 755 l 383 755 q 638 667 542 755 q 734 441 734 578 q 640 216 734 304 q 392 128 545 128 q 142 215 240 128 q 45 440 45 302 q 140 666 45 577 q 382 755 235 755 z "},"१":{"ha":618,"x_min":30,"x_max":585,"o":"m 307 732 q 287 732 307 732 q 245 709 268 732 q 223 646 223 685 q 254 579 223 607 q 344 543 285 551 q 397 650 397 597 q 371 708 397 684 q 307 732 346 732 m 349 15 l 349 47 q 341 98 349 83 q 307 129 334 113 l 69 267 l 67 310 l 214 432 q 81 519 132 461 q 30 652 30 578 q 103 815 30 749 q 304 880 176 880 q 509 813 433 880 q 585 648 585 745 q 557 537 585 589 q 450 415 529 485 l 315 297 l 476 203 q 536 145 518 178 q 555 59 555 111 l 555 15 l 349 15 z "},"२":{"ha":652,"x_min":49,"x_max":602,"o":"m 189 218 q 86 251 124 218 q 49 349 49 283 q 91 464 49 414 q 191 513 133 513 q 312 453 262 513 q 397 594 397 511 q 357 680 397 647 q 258 713 317 713 q 74 673 174 713 l 56 829 q 152 859 95 847 q 259 871 208 871 q 510 792 417 871 q 602 592 602 713 q 553 421 602 502 q 422 288 504 341 l 597 77 l 435 -14 l 252 222 q 189 218 216 218 z "},"३":{"ha":659,"x_min":47,"x_max":590,"o":"m 235 121 q 98 151 149 121 q 47 230 47 180 q 79 311 47 279 q 168 342 111 342 q 327 280 245 342 q 368 305 351 286 q 385 353 385 323 q 363 406 385 382 q 303 437 341 429 q 234 433 271 433 l 161 433 l 161 589 l 203 589 q 320 610 277 589 q 364 668 364 632 q 340 722 364 704 q 278 739 316 739 q 120 696 217 739 l 98 839 q 187 867 133 856 q 278 878 241 878 q 495 820 420 878 q 570 671 570 761 q 496 517 570 582 q 590 343 590 448 q 545 222 590 275 q 429 142 500 170 l 530 18 l 375 -56 l 235 121 z "},"४":{"ha":725,"x_min":35,"x_max":707,"o":"m 300 256 q 300 242 300 256 q 322 211 300 229 q 374 193 343 193 q 426 211 406 193 q 447 254 447 228 q 432 298 447 279 q 368 347 417 317 q 316 303 331 324 q 300 256 300 283 m 637 252 q 637 205 637 252 q 562 102 637 157 q 376 46 488 46 q 185 106 264 46 q 106 258 106 167 q 211 445 106 358 q 35 724 35 578 q 42 790 35 764 q 67 857 50 816 l 260 826 q 236 717 236 768 q 266 628 236 667 q 368 544 296 589 q 478 633 452 595 q 505 721 505 671 q 501 774 505 753 q 484 833 498 794 l 677 852 q 701 779 695 804 q 707 718 707 754 q 526 439 707 563 q 637 252 637 347 z "},"५":{"ha":707,"x_min":24,"x_max":711,"o":"m 375 231 q 121 309 218 231 q 24 517 24 387 q 100 731 24 630 q 309 888 176 832 l 445 773 q 231 517 231 665 q 266 427 231 462 q 347 390 300 392 q 344 433 344 408 q 380 514 344 481 q 489 546 417 546 q 610 505 561 546 q 660 397 660 463 q 587 283 660 332 l 711 56 l 532 3 l 419 233 q 375 231 391 231 z "},"६":{"ha":669,"x_min":67,"x_max":659,"o":"m 389 97 q 152 161 237 97 q 67 336 67 224 q 160 519 67 448 q 76 673 76 578 q 148 823 76 768 q 368 879 219 879 q 571 844 481 879 l 546 702 q 385 734 455 734 q 308 715 335 734 q 281 665 281 696 q 308 615 281 633 q 376 594 334 597 q 445 597 404 597 l 515 597 l 515 441 l 451 441 q 318 410 363 441 q 273 340 273 379 q 293 280 273 301 q 345 256 313 258 q 344 271 344 260 q 376 350 344 321 q 476 379 409 379 q 594 340 543 379 q 646 243 646 300 q 583 144 646 185 l 659 17 l 480 -34 l 412 98 q 389 97 404 97 z "},"७":{"ha":807,"x_min":40,"x_max":773,"o":"m 524 562 q 509 562 524 562 q 479 544 495 562 q 463 491 463 526 q 493 432 463 457 q 585 394 524 406 q 589 464 589 420 q 571 534 589 507 q 524 562 552 562 m 418 75 l 418 75 q 271 102 340 75 q 150 181 201 130 q 70 309 99 232 q 40 481 40 387 q 71 682 40 576 q 149 866 101 787 l 353 836 q 274 655 307 759 q 240 475 240 551 q 424 226 240 226 q 524 265 484 226 q 355 347 420 283 q 289 500 289 410 q 351 649 289 591 q 512 707 413 707 q 699 634 625 707 q 773 453 773 561 q 730 260 773 345 q 605 125 687 176 q 418 75 524 75 z "},"८":{"ha":661,"x_min":30,"x_max":606,"o":"m 250 353 q 288 266 250 297 q 376 236 326 235 q 456 240 426 236 q 506 249 487 244 q 579 271 525 254 l 606 119 q 371 77 488 77 q 124 155 218 77 q 30 361 30 233 q 66 500 30 429 q 173 635 103 571 l 429 871 l 587 755 l 342 522 q 271 434 292 473 q 250 353 250 395 z "},"९":{"ha":665,"x_min":26,"x_max":609,"o":"m 412 632 q 412 654 412 632 q 387 702 413 675 q 321 728 360 728 q 257 702 282 728 q 231 638 231 675 q 243 577 231 601 q 287 523 256 554 l 288 522 q 379 559 347 530 q 412 632 410 589 m 398 22 l 398 80 q 387 144 398 120 q 342 203 376 168 l 159 389 q 58 517 90 459 q 26 641 26 575 q 101 813 26 744 q 309 882 176 882 q 525 810 441 882 q 609 630 609 739 q 557 479 609 542 q 412 395 505 417 l 504 302 q 581 198 558 246 q 604 88 604 150 l 604 22 l 398 22 z "},"॰":{"ha":550,"x_min":18,"x_max":519,"o":"m 363 449 q 363 471 363 449 q 336 522 363 494 q 270 549 310 549 q 202 521 229 549 q 175 449 175 493 q 202 378 175 406 q 269 350 229 350 q 335 377 308 350 q 363 449 363 405 m 519 447 q 519 398 519 447 q 448 286 519 349 q 271 222 377 222 q 91 289 165 222 q 18 453 18 356 q 87 614 18 551 q 264 677 156 677 q 446 611 373 677 q 519 447 519 545 z "},"ॱ":{"ha":466,"x_min":119,"x_max":300,"o":"m 300 886 l 300 720 l 119 720 l 119 886 l 300 886 z "},"ॲ":{"ha":1033,"x_min":51,"x_max":1076,"o":"m 703 0 l 703 313 l 570 313 q 570 295 570 307 q 498 103 570 174 q 311 33 426 33 q 170 47 231 33 q 51 94 110 62 l 81 250 q 182 214 140 224 q 267 203 223 203 q 338 231 311 203 q 365 303 365 258 q 271 400 365 389 q 139 389 212 389 l 139 548 q 292 578 244 548 q 339 655 339 608 q 317 709 339 686 q 263 731 295 731 q 201 722 231 731 q 120 691 172 713 l 91 840 q 186 876 140 865 q 302 886 232 886 q 478 826 410 886 q 545 669 545 766 q 466 486 545 559 q 486 473 471 484 l 703 473 l 703 730 l 597 730 l 597 877 l 1053 877 l 1053 730 l 909 730 l 909 0 l 703 0 m 555 1166 q 809 1084 664 1084 q 1049 1162 954 1084 l 1076 1027 q 966 959 1037 983 q 813 935 896 935 q 657 959 730 935 q 529 1027 583 983 l 555 1166 z "},"ॳ":{"ha":1033,"x_min":51,"x_max":1053,"o":"m 703 0 l 703 313 l 570 313 q 570 295 570 307 q 498 103 570 174 q 311 33 426 33 q 170 47 231 33 q 51 94 110 62 l 81 250 q 182 214 140 224 q 267 203 223 203 q 338 231 311 203 q 365 303 365 258 q 271 400 365 389 q 139 389 212 389 l 139 548 q 292 578 244 548 q 339 655 339 608 q 317 709 339 686 q 263 731 295 731 q 201 722 231 731 q 120 691 172 713 l 91 840 q 186 876 140 865 q 302 886 232 886 q 478 826 410 886 q 545 669 545 766 q 466 486 545 559 q 486 473 471 484 l 703 473 l 703 730 l 597 730 l 597 877 l 703 877 l 703 1012 l 909 1012 l 909 877 l 1053 877 l 1053 730 l 909 730 l 909 0 l 703 0 z "},"ॴ":{"ha":1449,"x_min":51,"x_max":1469,"o":"m 703 0 l 703 313 l 570 313 q 570 295 570 307 q 498 103 570 174 q 311 33 426 33 q 170 47 231 33 q 51 94 110 62 l 81 250 q 182 214 140 224 q 267 203 223 203 q 338 231 311 203 q 365 303 365 258 q 271 400 365 389 q 139 389 212 389 l 139 548 q 292 578 244 548 q 339 655 339 608 q 317 709 339 686 q 263 731 295 731 q 201 722 231 731 q 120 691 172 713 l 91 840 q 186 876 140 865 q 302 886 232 886 q 478 826 410 886 q 545 669 545 766 q 466 486 545 559 q 486 473 471 484 l 703 473 l 703 730 l 597 730 l 597 877 l 1119 877 l 1119 1012 l 1324 1012 l 1324 877 l 1469 877 l 1469 730 l 1324 730 l 1324 0 l 1118 0 l 1118 730 l 909 730 l 909 0 l 703 0 z "},"ॵ":{"ha":1449,"x_min":50,"x_max":1469,"o":"m 570 295 q 497 103 570 174 q 310 33 425 33 q 170 47 230 33 q 50 94 109 62 l 81 250 q 181 214 140 224 q 266 203 222 203 q 337 231 310 203 q 364 303 364 258 q 270 400 364 389 q 138 389 212 389 l 138 548 q 291 578 243 548 q 338 655 338 608 q 316 709 338 686 q 262 731 294 731 q 200 722 230 731 q 119 691 171 713 l 90 840 q 185 876 139 865 q 301 886 231 886 q 477 826 410 886 q 545 669 545 766 q 465 486 545 559 q 485 473 471 484 l 702 473 l 702 730 l 597 730 l 597 877 l 1074 877 q 1049 908 1061 899 q 1024 917 1038 917 q 971 908 1010 917 q 899 899 932 899 q 751 954 824 899 l 791 1071 q 908 1027 845 1027 q 989 1042 920 1027 q 846 1112 916 1053 l 891 1223 q 1027 1174 960 1174 q 1104 1190 1048 1174 q 1182 1206 1160 1206 q 1285 1161 1246 1206 q 1324 1029 1324 1117 l 1324 877 l 1469 877 l 1469 730 l 1324 730 l 1324 0 l 1118 0 l 1118 730 l 909 730 l 909 0 l 703 0 l 702 313 l 569 313 q 570 295 570 307 m 1190 997 q 1175 1042 1190 1027 q 1143 1058 1161 1058 q 1092 1049 1126 1058 q 1190 978 1143 1037 l 1190 997 z "},"ॶ":{"ha":1033,"x_min":51,"x_max":1053,"o":"m 738 -135 q 471 -227 631 -227 q 185 -139 311 -227 l 218 -19 q 466 -96 326 -96 q 700 -16 605 -96 l 738 -135 m 703 0 l 703 313 l 570 313 q 570 295 570 307 q 498 103 570 174 q 311 33 426 33 q 170 47 231 33 q 51 94 110 62 l 81 250 q 182 214 140 224 q 267 203 223 203 q 338 231 311 203 q 365 303 365 258 q 271 400 365 389 q 139 389 212 389 l 139 548 q 292 578 244 548 q 339 655 339 608 q 317 709 339 686 q 263 731 295 731 q 201 722 231 731 q 120 691 172 713 l 91 840 q 186 876 140 865 q 302 886 232 886 q 478 826 410 886 q 545 669 545 766 q 466 486 545 559 q 486 473 471 484 l 703 473 l 703 730 l 597 730 l 597 877 l 1053 877 l 1053 730 l 909 730 l 909 0 l 703 0 z "},"ॷ":{"ha":1033,"x_min":51,"x_max":1053,"o":"m 743 -296 q 462 -378 631 -378 q 163 -299 294 -378 l 197 -193 q 459 -261 313 -261 q 705 -190 606 -261 l 743 -296 m 730 -130 q 463 -214 623 -214 q 177 -134 303 -214 l 210 -24 q 457 -94 319 -94 q 692 -21 595 -94 l 730 -130 m 703 0 l 703 313 l 570 313 q 570 295 570 307 q 498 103 570 174 q 311 33 426 33 q 170 47 231 33 q 51 94 110 62 l 81 250 q 182 214 140 224 q 267 203 223 203 q 338 231 311 203 q 365 303 365 258 q 271 400 365 389 q 139 389 212 389 l 139 548 q 292 578 244 548 q 339 655 339 608 q 317 709 339 686 q 263 731 295 731 q 201 722 231 731 q 120 691 172 713 l 91 840 q 186 876 140 865 q 302 886 232 886 q 478 826 410 886 q 545 669 545 766 q 466 486 545 559 q 486 473 471 484 l 703 473 l 703 730 l 597 730 l 597 877 l 1053 877 l 1053 730 l 909 730 l 909 0 l 703 0 z "},"ॸ":{"ha":803,"x_min":-20,"x_max":823,"o":"m 547 276 q 520 350 547 323 q 443 377 493 377 q 348 363 393 377 l 348 275 q 321 211 348 235 q 248 187 294 187 q 95 243 161 187 q 29 379 29 300 q 60 455 29 426 q 138 484 91 484 l 141 484 l 141 730 l -20 730 l -20 877 l 823 877 l 823 730 l 347 730 l 347 546 q 441 552 396 552 q 667 476 581 552 q 752 272 752 401 q 667 36 752 142 l 471 76 q 547 276 547 181 z "},"ॹ":{"ha":996,"x_min":-20,"x_max":1016,"o":"m 164 -229 l 164 -135 l 0 -135 l 0 2 l 172 2 l 172 -92 l 324 -92 l 324 2 l 496 2 l 496 -135 l 336 -135 l 336 -229 l 164 -229 m 535 283 q 467 103 535 172 q 269 35 398 35 q 22 86 140 35 l 54 238 q 218 201 143 201 q 297 230 267 201 q 328 313 328 260 q 276 404 328 366 q 148 443 225 443 l 112 443 l 112 599 l 669 599 l 669 730 l -20 730 l -20 877 l 1016 877 l 1016 730 l 871 730 l 871 0 l 669 0 l 669 440 l 482 440 q 535 283 535 375 z "},"ॺ":{"ha":861,"x_min":-20,"x_max":882,"o":"m 425 313 l 425 313 q 491 323 459 313 l 391 491 q 264 395 351 420 q 425 313 323 313 m 531 728 l 363 728 l 372 715 q 397 673 389 693 l 531 451 l 531 728 m 531 0 l 531 160 q 429 151 497 153 q 171 236 286 150 q 9 472 56 321 l 13 495 q 158 535 109 503 q 208 621 208 567 q 140 730 208 693 l -20 730 l -20 877 l 882 877 l 882 730 l 737 730 l 737 0 l 531 0 z "},"ॻ":{"ha":876,"x_min":-20,"x_max":897,"o":"m 121 -125 l 121 7 l 546 7 l 546 730 l 355 730 l 355 324 q 323 237 355 268 q 235 205 292 205 q 89 268 157 205 q 20 403 20 330 q 50 481 20 452 q 130 511 79 511 l 149 511 l 149 730 l -20 730 l -20 877 l 897 877 l 897 730 l 752 730 l 752 -125 l 121 -125 z "},"ॼ":{"ha":996,"x_min":-20,"x_max":1016,"o":"m 669 7 l 669 440 l 482 440 q 535 283 535 375 q 467 103 535 172 q 269 35 398 35 q 22 86 140 35 l 54 238 q 218 201 143 201 q 297 230 267 201 q 328 313 328 260 q 276 404 328 366 q 148 443 225 443 l 112 443 l 112 599 l 669 599 l 669 730 l -20 730 l -20 877 l 1016 877 l 1016 730 l 871 730 l 871 -125 l 50 -125 l 49 7 l 669 7 z "},"ॽ":{"ha":678,"x_min":90,"x_max":646,"o":"m 163 0 l 163 477 l 229 477 q 369 514 318 477 q 420 615 420 551 q 386 693 420 662 q 294 725 351 725 q 133 680 215 725 l 90 840 q 315 887 192 887 q 555 812 465 887 q 646 621 646 738 q 607 474 646 538 q 506 375 568 410 q 369 334 444 341 l 369 0 l 163 0 z "},"ॾ":{"ha":770,"x_min":-20,"x_max":790,"o":"m 676 -54 l 676 -186 l 103 -186 l 103 -54 l 676 -54 m 398 1 l 398 0 q 50 83 186 0 l 92 239 q 239 177 162 199 q 377 155 315 155 q 474 172 439 155 q 509 222 509 189 q 490 261 509 246 q 439 276 471 276 q 288 239 357 276 l 267 239 q 124 331 178 271 q 69 473 69 391 q 129 602 69 556 q 312 648 188 648 l 444 648 l 444 730 l -20 730 l -20 877 l 790 877 l 790 730 l 646 730 l 646 500 l 329 500 q 257 447 257 500 q 281 403 257 425 q 458 436 379 436 q 643 375 576 436 q 709 216 709 313 q 631 60 709 119 q 398 1 552 1 z "},"ॿ":{"ha":798,"x_min":-20,"x_max":819,"o":"m 98 -125 l 98 7 l 468 7 l 468 123 q 323 99 404 99 q 172 132 241 99 q 60 231 102 165 q 18 382 18 296 q 98 572 18 504 q 302 640 179 640 q 468 616 399 640 l 468 729 l -20 729 l -20 876 l 819 876 l 819 729 l 674 729 l 674 -125 l 98 -125 m 345 258 l 357 258 l 252 451 q 223 367 223 420 q 256 286 223 313 q 345 258 290 258 m 447 283 l 447 283 q 467 296 463 293 l 467 459 q 336 484 412 484 l 447 283 z "},"​":{"ha":0,"x_min":0,"x_max":0,"o":""},"‌":{"ha":0,"x_min":-26,"x_max":26,"o":"m 26 -237 l -26 -237 l -26 1101 l 26 1101 l 26 -237 z "},"‍":{"ha":0,"x_min":-184,"x_max":184,"o":"m 26 -236 l -26 -236 l -26 849 l -149 723 l -184 758 l -34 911 l -182 1063 l -149 1097 l 0 945 l 148 1097 l 184 1063 l 35 911 l 184 758 l 148 724 l 26 850 l 26 -236 z "},"–":{"ha":862,"x_min":88,"x_max":683,"o":"m 683 537 l 683 392 l 88 392 l 88 537 l 683 537 z "},"—":{"ha":1023,"x_min":85,"x_max":818,"o":"m 818 537 l 818 392 l 85 392 l 85 537 l 818 537 z "},"―":{"ha":1187,"x_min":0,"x_max":0,"o":""},"‘":{"ha":419,"x_min":109,"x_max":310,"o":"m 109 620 l 109 739 l 208 952 l 310 952 l 273 743 l 273 620 l 109 620 z "},"’":{"ha":419,"x_min":116,"x_max":317,"o":"m 317 952 l 317 833 l 218 620 l 116 620 l 153 834 l 153 952 l 317 952 z "},"‚":{"ha":339,"x_min":51,"x_max":254,"o":"m 96 131 l 254 131 l 253 15 q 220 -104 252 -40 q 141 -210 189 -168 l 51 -161 q 96 9 95 -85 l 96 131 z "},"“":{"ha":627,"x_min":109,"x_max":517,"o":"m 109 620 l 109 739 l 208 952 l 310 952 l 273 743 l 273 620 l 109 620 m 317 620 l 317 739 l 416 952 l 517 952 l 481 743 l 481 620 l 317 620 z "},"”":{"ha":632,"x_min":111,"x_max":522,"o":"m 311 952 l 311 833 l 212 620 l 111 620 l 147 834 l 147 952 l 311 952 m 522 952 l 522 833 l 423 620 l 321 620 l 358 834 l 358 952 l 522 952 z "},"„":{"ha":534,"x_min":50,"x_max":474,"o":"m 95 142 l 253 142 l 252 17 q 223 -110 252 -43 q 147 -222 193 -176 l 50 -174 q 95 8 94 -92 l 95 142 m 316 142 l 474 142 l 473 12 l 473 12 q 441 -111 472 -45 q 362 -223 410 -176 l 264 -174 q 316 6 315 -81 l 316 142 z "},"†":{"ha":664,"x_min":31,"x_max":634,"o":"m 634 661 l 634 496 l 434 496 l 434 0 l 229 0 l 229 496 l 31 496 l 31 661 l 229 661 l 229 888 l 434 888 l 434 661 l 634 661 z "},"‡":{"ha":728,"x_min":63,"x_max":667,"o":"m 667 130 l 667 -28 l 467 -28 l 467 -282 l 260 -282 l 260 -28 l 63 -28 l 63 130 l 260 130 l 260 473 l 63 473 l 63 632 l 260 632 l 260 861 l 467 861 l 467 632 l 667 632 l 667 473 l 467 473 l 467 130 l 667 130 z "},"•":{"ha":462,"x_min":82,"x_max":391,"o":"m 82 463 l 82 528 q 124 634 82 593 q 237 675 166 675 q 349 635 307 675 q 391 528 391 595 l 391 463 q 350 357 391 397 q 237 317 308 317 q 124 357 166 317 q 82 463 82 397 z "},"…":{"ha":968,"x_min":81,"x_max":863,"o":"m 267 156 l 267 0 l 81 0 l 81 156 l 267 156 m 565 156 l 565 0 l 380 0 l 380 156 l 565 156 m 863 156 l 863 0 l 677 0 l 677 156 l 863 156 z "},"‰":{"ha":1204,"x_min":62,"x_max":1167,"o":"m 626 216 l 626 170 q 645 120 626 141 q 692 98 665 98 q 757 155 752 98 l 758 217 q 740 270 758 250 q 692 290 722 290 q 644 270 662 290 q 626 216 626 250 m 904 216 l 904 170 q 923 120 904 141 q 970 98 943 98 q 1035 155 1030 98 l 1035 217 q 1017 270 1035 250 q 969 290 1000 290 q 922 270 939 290 q 904 216 904 250 m 494 173 l 494 217 q 549 349 494 297 q 693 400 604 400 q 830 338 783 400 q 968 400 880 400 q 1112 349 1057 400 q 1167 212 1167 297 l 1167 170 q 1112 38 1167 89 q 969 -14 1057 -14 q 830 47 881 -14 q 693 -14 781 -14 q 550 38 606 -14 q 494 173 494 90 m 180 707 l 180 669 q 198 617 180 637 q 246 598 216 598 q 293 617 276 598 q 311 668 311 636 l 311 716 q 293 768 311 747 q 245 789 275 789 q 180 707 180 789 m 734 760 l 300 65 l 204 113 l 638 808 l 734 760 m 62 673 l 62 716 q 113 848 62 796 q 249 899 164 899 q 388 847 334 899 q 443 713 443 795 l 443 669 q 388 538 443 589 q 249 487 333 487 q 113 538 165 487 q 62 673 62 590 z "},"‹":{"ha":397,"x_min":66,"x_max":357,"o":"m 357 566 l 216 322 l 357 79 l 232 79 l 66 317 l 66 328 l 232 566 l 357 566 z "},"›":{"ha":378,"x_min":46,"x_max":339,"o":"m 46 566 l 173 566 l 339 328 l 339 316 l 173 78 l 46 78 l 188 321 l 46 566 z "},"⁄":{"ha":551,"x_min":9,"x_max":539,"o":"m 539 768 l 105 74 l 9 122 l 443 817 l 539 768 z "},"€":{"ha":724,"x_min":54,"x_max":680,"o":"m 547 151 q 654 170 603 151 l 680 5 q 519 -13 594 -13 q 256 73 353 -13 q 154 309 159 158 l 54 309 l 54 406 l 154 406 l 154 481 l 54 481 l 54 578 l 156 578 q 269 814 168 730 q 538 899 370 899 q 680 880 604 899 l 653 715 q 551 734 606 734 q 421 696 466 734 q 370 578 377 658 l 558 578 l 558 481 l 368 481 l 368 406 l 558 406 l 559 309 l 369 309 q 413 189 372 227 q 547 151 454 151 z "},"₹":{"ha":907,"x_min":109,"x_max":761,"o":"m 137 452 l 250 452 q 406 518 368 452 l 109 518 l 109 667 l 401 667 q 269 729 362 729 l 109 729 l 109 876 l 761 876 l 761 729 l 604 729 q 637 667 625 700 l 761 667 l 761 519 l 644 519 q 558 381 623 435 q 406 313 492 328 l 707 6 l 706 0 l 447 0 l 137 315 l 137 452 z "},"₺":{"ha":760,"x_min":25,"x_max":718,"o":"m 718 422 q 669 193 718 292 q 530 39 620 94 q 330 -14 444 -14 q 118 -2 216 -14 l 118 389 l 25 363 l 25 498 l 118 524 l 118 590 l 25 564 l 25 700 l 118 726 l 118 886 l 332 886 l 332 786 l 431 814 l 431 679 l 332 650 l 332 585 l 431 612 l 431 477 l 332 449 l 332 153 q 501 420 500 157 l 501 463 l 718 463 l 718 422 z "},"₽":{"ha":907,"x_min":39,"x_max":859,"o":"m 374 723 l 374 467 l 505 467 q 642 589 642 467 q 608 686 642 650 q 515 723 574 722 l 374 723 m 565 268 l 565 103 l 374 103 l 374 0 l 160 0 l 160 103 l 39 103 l 39 268 l 160 268 l 160 302 l 39 302 l 39 467 l 160 467 l 160 888 l 513 888 q 694 851 615 888 q 816 746 772 814 q 859 590 859 677 q 765 379 859 456 q 509 302 671 302 l 374 302 l 374 268 l 565 268 z "},"™":{"ha":792,"x_min":76,"x_max":720,"o":"m 631 619 l 631 825 l 571 619 l 521 619 l 461 827 l 461 619 l 372 619 l 372 951 l 481 951 l 547 732 l 618 951 l 720 951 l 720 619 l 631 619 m 332 951 l 332 880 l 258 880 l 258 622 l 155 622 l 155 880 l 76 880 l 76 951 l 332 951 z "},"℮":{"ha":788,"x_min":90,"x_max":712,"o":"m 573 545 q 411 614 503 614 q 243 539 318 614 l 243 370 l 573 370 l 573 545 m 410 -14 q 248 34 322 -14 q 131 161 173 81 q 90 329 90 241 q 134 496 90 417 q 253 623 178 574 q 410 671 329 671 q 561 629 492 671 q 669 514 629 587 q 712 350 709 441 l 712 313 l 243 313 l 243 112 q 409 45 316 45 q 633 119 530 45 l 636 56 q 410 -14 526 -14 z "},"∂":{"ha":717,"x_min":50,"x_max":688,"o":"m 370 476 q 256 316 258 476 l 256 298 q 369 144 256 144 q 483 334 483 144 l 483 410 q 370 476 439 476 m 50 323 l 50 323 q 129 550 50 466 q 343 635 208 635 q 507 569 439 635 q 436 732 485 677 q 315 787 387 787 q 223 774 260 787 l 180 755 l 143 892 l 172 907 q 332 942 243 942 q 587 819 494 942 q 687 469 680 696 l 688 401 q 649 184 688 279 q 537 37 610 89 q 368 -14 465 -14 q 135 74 220 -14 q 50 314 50 161 l 50 323 z "},"∏":{"ha":859,"x_min":99,"x_max":768,"o":"m 768 870 l 768 -183 l 562 -183 l 562 717 l 306 717 l 306 -183 l 99 -183 l 99 870 l 768 870 z "},"∑":{"ha":810,"x_min":31,"x_max":767,"o":"m 767 -24 l 767 -183 l 31 -183 l 31 -91 l 365 350 l 31 779 l 31 870 l 760 870 l 760 711 l 319 711 l 581 361 l 581 338 l 316 -24 l 767 -24 z "},"−":{"ha":684,"x_min":83,"x_max":591,"o":"m 591 553 l 591 392 l 83 392 l 83 553 l 591 553 z "},"√":{"ha":678,"x_min":31,"x_max":670,"o":"m 31 296 l 31 456 l 287 456 l 359 184 l 521 888 l 670 888 l 455 0 l 274 0 l 176 296 l 31 296 z "},"∞":{"ha":1324,"x_min":57,"x_max":1267,"o":"m 391 506 q 292 458 329 506 q 256 327 256 410 q 293 197 256 244 q 393 151 330 151 q 534 258 477 151 q 560 327 557 300 l 560 341 q 532 412 557 368 q 392 507 476 507 l 391 506 m 931 151 q 1031 199 994 151 q 1067 329 1067 246 q 1030 459 1067 411 q 932 507 994 507 q 791 412 848 507 q 764 341 766 368 l 764 327 q 795 245 766 294 q 932 151 852 151 l 931 151 m 1267 323 q 1227 147 1267 224 q 1114 28 1187 70 q 948 -14 1040 -14 q 784 32 857 -14 q 662 167 712 79 q 379 -14 555 -14 q 145 80 233 -14 q 57 333 57 174 q 97 509 57 431 q 210 628 137 586 q 378 671 281 671 q 662 497 555 671 q 785 627 712 583 q 945 671 857 671 l 946 671 q 1180 576 1093 671 q 1267 323 1267 482 z "},"∫":{"ha":382,"x_min":-63,"x_max":442,"o":"m 34 -296 q -63 -286 -14 -296 l -54 -130 q 1 -138 -31 -138 q 79 -52 76 -138 l 79 684 q 146 860 79 798 q 339 922 213 922 q 442 909 378 922 l 427 757 q 365 763 392 763 q 284 682 284 763 l 283 -45 q 219 -232 283 -167 q 34 -296 155 -296 z "},"≈":{"ha":730,"x_min":62,"x_max":652,"o":"m 509 297 q 652 374 591 297 l 652 221 q 515 157 589 157 q 450 165 479 157 q 366 200 421 173 q 279 236 311 227 q 210 244 248 244 q 131 223 171 243 q 62 166 91 203 l 62 319 q 205 384 125 384 q 321 359 261 385 l 401 320 q 509 297 453 297 m 515 553 q 652 630 591 553 l 652 477 q 590 429 620 445 q 523 413 560 413 q 457 421 486 413 q 372 456 428 429 q 286 492 317 484 q 216 500 255 500 q 133 478 176 500 q 62 422 89 457 l 62 575 q 131 623 91 606 q 210 641 172 640 q 279 632 248 641 q 366 597 311 624 q 450 562 421 570 q 515 553 479 553 z "},"≠":{"ha":732,"x_min":78,"x_max":644,"o":"m 644 336 l 644 178 l 299 178 l 235 52 l 156 90 l 201 178 l 78 178 l 78 336 l 283 336 l 338 446 l 78 446 l 78 604 l 420 604 l 482 724 l 561 686 l 519 604 l 644 604 l 644 446 l 437 446 l 381 336 l 644 336 z "},"≤":{"ha":638,"x_min":24,"x_max":564,"o":"m 538 184 l 538 23 l 29 23 l 29 184 l 538 184 m 564 551 l 227 448 l 227 445 l 564 345 l 564 177 l 24 374 l 24 521 l 564 718 l 564 551 z "},"≥":{"ha":642,"x_min":60,"x_max":602,"o":"m 60 23 l 60 184 l 62 184 l 62 345 l 399 445 l 399 448 l 62 551 l 62 718 l 602 521 l 602 374 l 83 184 l 569 184 l 569 23 l 60 23 z "},"◊":{"ha":639,"x_min":16,"x_max":627,"o":"m 424 444 l 322 681 l 218 444 l 321 208 l 424 444 m 16 444 l 231 888 l 412 888 l 627 444 l 412 0 l 230 0 l 16 444 z "},"◌":{"ha":730,"x_min":83,"x_max":652,"o":"m 368 193 q 408 157 408 193 q 368 120 408 120 q 338 130 348 120 q 328 157 328 140 q 338 183 328 173 q 368 193 348 193 m 189 273 q 229 236 229 273 q 189 200 229 200 q 159 210 170 200 q 149 236 149 220 q 159 263 149 253 q 189 273 170 273 m 548 273 q 578 263 568 273 q 588 236 588 253 q 578 210 588 220 q 548 200 568 200 q 508 236 508 200 q 548 273 508 273 m 611 381 q 572 417 572 381 q 611 454 572 454 q 642 444 631 454 q 652 420 652 435 q 648 398 652 406 q 611 381 638 381 m 123 454 q 153 444 142 454 q 163 417 163 434 q 153 391 163 401 q 123 381 142 381 q 83 417 83 381 q 123 454 83 454 m 189 635 q 229 599 229 635 q 189 563 229 563 q 159 573 170 563 q 149 599 149 583 q 159 626 149 616 q 189 635 170 635 m 548 635 q 578 626 568 635 q 588 599 588 616 q 578 573 588 583 q 548 563 568 563 q 508 599 508 563 q 548 635 508 635 m 408 677 q 368 642 408 642 q 338 652 348 642 q 328 678 328 662 q 368 714 328 714 q 408 677 408 714 z "}}}
